<?xml version="1.0" standalone="no"?>
<!DOCTYPE svg PUBLIC "-//W3C//DTD SVG 1.1//EN" "http://www.w3.org/Graphics/SVG/1.1/DTD/svg11.dtd" >
<svg xmlns="http://www.w3.org/2000/svg" xmlns:xlink="http://www.w3.org/1999/xlink" version="1.1">
<metadata>
Created by FontForge 20200314 at Thu Feb 25 21:18:18 2016
 By Unknown
(URW)++,Copyright 2006 by (URW)++ Design &#38; Development
</metadata>
<defs>
<font id="SupernormaleW00-Regular" horiz-adv-x="856" vert-adv-y="2048" >
  <font-face 
    font-family="SupernormaleW00-Regular"
    font-weight="400"
    font-stretch="normal"
    units-per-em="2048"
    panose-1="1 0 0 0 0 0 0 0 0 0"
    ascent="1638"
    descent="-410"
    x-height="821"
    cap-height="1104"
    bbox="-161 -589 1622 1566"
    underline-thickness="102"
    underline-position="-256"
    unicode-range="U+0020-FB02"
  />
<missing-glyph horiz-adv-x="348" vert-adv-y="2457" 
d="M35 0v1104h278v-1104h-278zM278 35v1034h-208v-1034h208z" />
    <glyph glyph-name=".notdef" horiz-adv-x="348" vert-adv-y="2457" 
d="M35 0v1104h278v-1104h-278zM278 35v1034h-208v-1034h208z" />
    <glyph glyph-name="glyph1" horiz-adv-x="0" vert-adv-y="0" 
 />
    <glyph glyph-name="glyph2" horiz-adv-x="348" vert-adv-y="2457" 
 />
    <glyph glyph-name="space" unicode=" " horiz-adv-x="348" vert-adv-y="2457" 
 />
    <glyph glyph-name="exclam" unicode="!" horiz-adv-x="442" vert-adv-y="2457" 
d="M233 275h-30q-60 0 -60 55v725q0 55 60 55h30q62 0 62 -55v-725q0 -55 -62 -55zM239 -8h-34q-72 0 -72 65v33q0 64 72 64h34q70 0 70 -64v-33q0 -65 -70 -65z" />
    <glyph glyph-name="quotedbl" unicode="&#x22;" horiz-adv-x="655" vert-adv-y="2457" 
d="M467 735h-31q-53 0 -53 50v270q0 49 53 49h31q55 0 55 -49v-270q0 -50 -55 -50zM219 735h-31q-55 0 -55 50v270q0 49 55 49h31q53 0 53 -49v-270q0 -50 -53 -50z" />
    <glyph glyph-name="numbersign" unicode="#" horiz-adv-x="1167" vert-adv-y="2457" 
d="M890 329h117q53 0 53 -49v-41q0 -49 -53 -49h-117v-141q0 -49 -55 -49h-44q-55 0 -55 49v141h-308v-141q0 -49 -53 -49h-46q-53 0 -53 49v141h-117q-55 0 -55 49v41q0 49 55 49h117v445h-117q-55 0 -55 49v41q0 49 55 49h117v142q0 49 53 49h46q53 0 53 -49v-142h308v142
q0 49 55 49h44q55 0 55 -49v-142h117q53 0 53 -49v-41q0 -49 -53 -49h-117v-445zM736 329v445h-308v-445h308z" />
    <glyph glyph-name="dollar" unicode="$" horiz-adv-x="1167" vert-adv-y="2457" 
d="M661 658q125 -3 186 -23q123 -40 162 -150q21 -60 21 -146q0 -189 -95 -276q-60 -54 -159 -72q-37 -6 -115 -9v-74q0 -51 -57 -51h-29q-57 0 -57 51v74h-27q-222 0 -303 127q-43 67 -43 160q0 40 14 53q12 10 35 10h64q50 0 51 -57q4 -162 162 -162h47v416
q-113 5 -171 26q-179 66 -179 267q0 134 86 212q62 57 158 77q35 7 106 12v82q0 51 55 51h31q57 0 57 -51v-82h8q123 0 217 -49q75 -39 107 -125q16 -41 16 -72q0 -15 -12 -28q-13 -13 -31 -13h-80q-32 0 -41 43q-23 111 -157 111h-27v-332zM518 658v332h-29q-74 0 -120 -46
q-45 -46 -45 -121t45 -120t120 -45h29zM661 113h47q162 0 162 215q0 199 -172 199h-37v-414z" />
    <glyph glyph-name="percent" unicode="%" horiz-adv-x="1239" vert-adv-y="2457" 
d="M416 627h-45q-117 0 -170 59q-49 54 -49 170v33q0 125 59 180q52 47 160 47h45q120 0 173 -59q48 -54 48 -168v-33q0 -127 -61 -182q-52 -47 -160 -47zM496 830v77q0 50 -22 70q-20 18 -66 18h-27q-50 0 -70 -22q-18 -19 -18 -66v-77q0 -50 21 -69q19 -17 67 -17h27
q51 0 71 21q17 19 17 65zM967 703l-581 -408q-32 -22 -32 -64l1 -34v-148q0 -49 -57 -49h-42q-57 0 -57 51v152q0 77 9 110q16 54 79 99l573 403q16 12 23 23q6 13 6 48v7v6v156q0 49 57 49h42q57 0 57 -51v-146q0 -70 -8 -104q-15 -61 -70 -100zM875 -10h-45
q-117 0 -170 59q-49 55 -49 172v33q0 125 59 178q52 47 160 47h45q118 0 171 -58q48 -53 48 -167v-33q0 -129 -61 -184q-52 -47 -158 -47zM955 193v79q0 48 -22 68q-21 18 -68 18h-25q-50 0 -70 -22q-18 -19 -18 -64v-79q0 -49 22 -69q20 -18 66 -18h25q51 0 72 23
q18 20 18 64z" />
    <glyph glyph-name="ampersand" unicode="&#x26;" horiz-adv-x="1042" vert-adv-y="2457" 
d="M856 645h147q62 0 62 -55v-31q0 -55 -62 -55h-147v-272q0 -61 22 -82q19 -17 64 -17h49q62 0 62 -55v-29q0 -57 -67 -57q-183 0 -224 78q-20 -34 -59 -54q-64 -34 -150 -34h-201q-136 0 -213 86q-78 87 -78 241q0 129 61 217q37 51 101 76q-44 25 -72 75q-39 72 -39 155
q0 134 90 215q85 75 228 75h108q152 0 237 -85q81 -81 81 -214v-178zM702 645v168q-69 170 -158 170h-121q-65 0 -109 -43q-48 -48 -48 -128q0 -78 46 -125q43 -42 111 -42h279zM702 504h-319q-81 0 -118 -43q-38 -42 -38 -137v-23q0 -105 46 -147q36 -33 107 -33h168
q154 0 154 164v219z" />
    <glyph glyph-name="quotesingle" unicode="'" horiz-adv-x="406" vert-adv-y="2457" 
d="M219 735h-31q-55 0 -55 50v270q0 49 55 49h31q53 0 53 -49v-270q0 -50 -53 -50z" />
    <glyph glyph-name="parenleft" unicode="(" horiz-adv-x="481" vert-adv-y="2457" 
d="M111 346v412q0 365 291 365q80 0 80 -56v-29q0 -53 -61 -55q-85 -2 -120 -41q-36 -40 -36 -129v-520q0 -98 44 -139q33 -30 112 -33q61 -2 61 -55v-29q0 -56 -76 -56q-295 0 -295 365z" />
    <glyph glyph-name="parenright" unicode=")" horiz-adv-x="492" vert-adv-y="2457" 
d="M0 37v29q0 53 61 55q86 3 120 41q36 41 36 131v520q0 97 -44 137q-35 31 -112 33q-61 2 -61 55v29q0 56 75 56q296 0 296 -365v-412q0 -365 -293 -365q-78 0 -78 56z" />
    <glyph glyph-name="asterisk" unicode="*" horiz-adv-x="782" vert-adv-y="2457" 
d="M490 823l176 -73q34 -15 34 -48q0 -14 -9 -30l-23 -39q-18 -31 -46 -31q-16 0 -34 14l-141 113l22 -197q1 -5 1 -6q4 -45 -62 -45h-31q-62 0 -62 47q0 3 1 9l24 196l-147 -115q-16 -12 -34 -12q-29 0 -46 29l-20 35q-11 18 -11 32q0 33 35 48l178 71l-174 72
q-35 14 -35 47q0 16 9 31l22 39q18 30 47 30q18 0 35 -14l145 -121l-24 197q-1 5 -1 7q-1 21 16 35q19 15 46 15h31q31 0 48 -19q12 -13 12 -31q0 -3 -1 -7l-26 -199l143 123q16 14 34 14q28 0 46 -30l20 -35q9 -15 9 -32q0 -33 -35 -48z" />
    <glyph glyph-name="plus" unicode="+" horiz-adv-x="799" vert-adv-y="2457" 
d="M476 614h147q62 0 62 -55v-29q0 -55 -62 -55h-147v-152q0 -55 -60 -55h-30q-62 0 -62 55v152h-150q-61 0 -61 55v29q0 55 61 55h150v162q0 57 62 57h30q60 0 60 -57v-162z" />
    <glyph glyph-name="comma" unicode="," horiz-adv-x="449" vert-adv-y="2457" 
d="M114 70v45q0 63 70 63h59q74 0 74 -63v-109q0 -138 -65 -199q-43 -40 -108 -40q-93 0 -93 65q0 64 63 66q64 2 64 42q0 24 -26 44q-19 15 -25 25q-13 20 -13 61z" />
    <glyph glyph-name="hyphen" unicode="-" horiz-adv-x="645" vert-adv-y="2457" 
d="M473 475h-299q-61 0 -61 55v29q0 55 61 55h299q60 0 60 -55v-29q0 -55 -60 -55z" />
    <glyph glyph-name="period" unicode="." horiz-adv-x="426" vert-adv-y="2457" 
d="M242 -8h-59q-70 0 -70 63v60q0 63 70 63h59q72 0 72 -63v-60q0 -63 -72 -63z" />
    <glyph glyph-name="slash" unicode="/" horiz-adv-x="575" vert-adv-y="2457" 
d="M542 1034l-366 -1009q-9 -25 -43 -25h-51q-28 0 -42 20q-9 13 -9 29q0 11 3 21l367 1009q9 25 43 25h51q31 0 46 -28q5 -10 5 -23q0 -8 -4 -19z" />
    <glyph glyph-name="zero" unicode="0" horiz-adv-x="1167" vert-adv-y="2457" 
d="M667 -18h-165q-196 0 -281 93q-78 87 -78 273v416q0 198 94 283q83 75 265 75h165q199 0 283 -93q76 -84 76 -265v-416q0 -204 -96 -290q-84 -76 -263 -76zM866 289v526q0 166 -154 166h-256q-79 0 -116 -41q-35 -39 -35 -125v-526q0 -94 43 -133q37 -33 108 -33h256
q154 0 154 166z" />
    <glyph glyph-name="one" unicode="1" horiz-adv-x="1167" vert-adv-y="2457" 
d="M698 143h197q57 0 57 -53v-37q0 -53 -57 -53h-562q-57 0 -57 53v37q0 53 57 53h205v662h-125q-57 0 -57 53v37q0 53 57 53h53q30 0 51 21t21 53v47q0 53 60 53h40q60 0 60 -53v-926z" />
    <glyph glyph-name="two" unicode="2" horiz-adv-x="1167" vert-adv-y="2457" 
d="M295 143h678q57 0 57 -55v-35q0 -53 -57 -53h-776q-60 0 -60 53v203q0 146 88 225q93 82 277 82h186q158 0 158 200q0 89 -33 147q-40 71 -123 71h-217q-106 0 -137 -78q-11 -27 -12 -78q-2 -65 -60 -65h-57q-60 0 -60 70q0 132 90 211q92 81 259 81h157q355 0 355 -354
q0 -348 -357 -348h-200q-70 0 -113 -43q-43 -44 -43 -111v-123z" />
    <glyph glyph-name="three" unicode="3" horiz-adv-x="1167" vert-adv-y="2457" 
d="M874 600q79 -49 113 -116q37 -71 37 -170q0 -177 -96 -265q-73 -67 -193 -67h-283q-189 0 -278 97q-70 77 -70 198q0 73 59 73h54q37 0 50 -23q8 -15 10 -63q1 -44 20 -77q36 -62 129 -62h280q156 0 156 172v27q0 174 -156 174h-129q-59 0 -59 53v35q0 53 59 53h86
q84 0 122 69q25 44 25 102q0 72 -38 119q-40 50 -109 50h-194q-145 0 -148 -158q-1 -65 -59 -65h-54q-59 0 -59 71q0 138 88 216q90 79 262 79h158q160 0 245 -94q72 -79 72 -202q0 -131 -100 -226z" />
    <glyph glyph-name="four" unicode="4" horiz-adv-x="1167" vert-adv-y="2457" 
d="M889 340h121q63 0 63 -57v-27q0 -59 -63 -59h-121v-144q0 -53 -60 -53h-38q-60 0 -60 53v144h-526q-66 0 -66 59v133q0 76 13 124q17 66 73 120l490 475q14 14 45 14h69q60 0 60 -53v-729zM731 340v574l-403 -394q-31 -30 -31 -108v-72h434z" />
    <glyph glyph-name="five" unicode="5" horiz-adv-x="1167" vert-adv-y="2457" 
d="M350 696h322q203 0 291 -95q75 -82 75 -250q0 -189 -107 -285q-93 -84 -261 -84h-175q-192 0 -280 96q-68 74 -68 193q0 73 59 73h60q37 0 50 -23q9 -15 10 -62q1 -42 20 -75q36 -61 129 -61h248q77 0 114 65q33 57 33 152q0 88 -31 142q-41 71 -126 71h-466
q-59 0 -59 55v441q0 53 59 53h722q59 0 59 -53v-37q0 -53 -59 -53h-619v-263z" />
    <glyph glyph-name="six" unicode="6" horiz-adv-x="1167" vert-adv-y="2457" 
d="M297 637q79 61 203 61h180q200 0 286 -93q73 -80 73 -249q0 -203 -102 -295q-87 -79 -257 -79h-186q-175 0 -260 94q-84 94 -84 289v398q0 199 93 284q84 75 265 75h187q191 0 280 -96q62 -67 62 -149q0 -18 -14 -32q-16 -16 -37 -16h-78q-41 0 -51 51q-22 101 -144 101
h-258q-77 0 -113 -40q-34 -38 -34 -126v-56q0 -79 -11 -122zM715 555h-248q-157 0 -157 -204q0 -82 24 -140q38 -88 123 -88h268q87 0 125 94q23 56 23 135q0 82 -29 133q-40 70 -129 70z" />
    <glyph glyph-name="seven" unicode="7" horiz-adv-x="1167" vert-adv-y="2457" 
d="M825 959h-660q-65 0 -65 57v27q0 59 65 59h752q66 0 66 -59v-131q0 -89 -10 -133q-15 -72 -72 -113l-303 -217q-23 -17 -29 -54q-2 -15 -2 -63v-279q0 -53 -59 -53h-39q-60 0 -60 53v267q0 82 11 130q17 74 75 116l299 217q31 22 31 110v66z" />
    <glyph glyph-name="eight" unicode="8" horiz-adv-x="1167" vert-adv-y="2457" 
d="M908 602q79 -49 113 -117q36 -70 36 -170q0 -176 -97 -265q-74 -68 -196 -68h-360q-137 0 -214 87q-79 89 -79 246q0 122 55 202q32 46 95 85q-105 98 -105 224q0 137 91 218q87 78 235 78h207q164 0 253 -97q72 -79 72 -198q0 -125 -106 -225zM695 981h-219
q-63 0 -105 -42q-49 -49 -49 -129q0 -76 46 -122q41 -41 108 -41h219q64 0 105 41q46 46 46 122q0 69 -38 117q-43 54 -113 54zM891 305v21q0 103 -45 145q-36 33 -104 33h-316q-75 0 -112 -41q-37 -42 -37 -137v-21q0 -106 46 -149q37 -33 103 -33h316q149 0 149 182z" />
    <glyph glyph-name="nine" unicode="9" horiz-adv-x="1167" vert-adv-y="2457" 
d="M872 477q-81 -59 -201 -59h-165q-210 0 -298 96q-73 79 -73 239q0 369 369 369h174q181 0 264 -93q80 -89 80 -278v-409q0 -200 -94 -285q-83 -75 -265 -75h-182q-232 0 -310 140q-32 57 -32 111q0 18 14 32q16 16 37 16h78q42 0 51 -49q21 -109 144 -109h253
q78 0 113 40q35 38 35 126v70v8v6q0 62 8 104zM716 981h-266q-77 0 -114 -65q-33 -58 -33 -152q0 -203 157 -203h246q158 0 158 202q0 79 -23 133q-37 85 -125 85z" />
    <glyph glyph-name="colon" unicode=":" horiz-adv-x="459" vert-adv-y="2457" 
d="M242 641h-59q-70 0 -70 63v60q0 63 70 63h59q72 0 72 -63v-60q0 -63 -72 -63zM242 -8h-59q-70 0 -70 63v60q0 63 70 63h59q72 0 72 -63v-60q0 -63 -72 -63z" />
    <glyph glyph-name="semicolon" unicode=";" horiz-adv-x="434" vert-adv-y="2457" 
d="M246 641h-60q-69 0 -69 63v60q0 63 69 63h60q71 0 71 -63v-60q0 -63 -71 -63zM114 70v45q0 63 70 63h59q74 0 74 -63v-109q0 -138 -65 -199q-43 -40 -108 -40q-93 0 -93 65q0 64 63 66q64 2 64 42q0 24 -26 44q-19 15 -25 25q-13 20 -13 61z" />
    <glyph glyph-name="less" unicode="&#x3c;" horiz-adv-x="799" vert-adv-y="2457" 
d="M223 528q175 -55 355 -138q69 -32 77 -45q8 -12 8 -26v-53q0 -22 -19 -37q-14 -11 -29 -11q-9 0 -15 3l-473 232q-33 16 -33 43v88q0 27 33 43l473 233q6 3 15 3q17 0 31 -12q17 -14 17 -36v-63q0 -17 -11 -30q-6 -8 -41 -24q-8 -3 -28 -13q-185 -93 -360 -148v-9z" />
    <glyph glyph-name="equal" unicode="=" horiz-adv-x="799" vert-adv-y="2457" 
d="M596 606h-396q-61 0 -61 55v29q0 55 61 55h396q61 0 61 -55v-29q0 -55 -61 -55zM596 319h-396q-61 0 -61 55v29q0 55 61 55h396q61 0 61 -55v-29q0 -55 -61 -55z" />
    <glyph glyph-name="greater" unicode="&#x3e;" horiz-adv-x="799" vert-adv-y="2457" 
d="M581 537q-169 53 -360 148q-20 9 -28 13q-35 17 -40 23q-12 13 -12 31v63q0 23 19 38q14 10 29 10q9 0 15 -3l473 -233q33 -16 33 -43v-88q0 -27 -33 -43l-473 -232q-6 -3 -14 -3q-17 0 -32 13q-17 14 -17 35v53q0 23 17 36q27 21 201 94q91 38 222 79v9z" />
    <glyph glyph-name="question" unicode="?" horiz-adv-x="641" vert-adv-y="2457" 
d="M623 635l-205 -209q-21 -21 -21 -78v-18q0 -55 -59 -55h-31q-39 0 -54 25q-8 13 -8 53q0 114 72 188l193 197q20 20 20 79v56q0 60 -23 80q-19 18 -63 18h-211q-48 0 -63 -26q-7 -12 -8 -44q-2 -59 -68 -59h-28q-66 0 -66 73q0 80 62 134q69 61 204 61h144q151 0 215 -70
q57 -63 57 -202q0 -142 -59 -203zM334 -8h-35q-72 0 -72 65v33q0 64 72 64h35q69 0 69 -64v-33q0 -65 -69 -65z" />
    <glyph glyph-name="at" unicode="@" horiz-adv-x="1518" vert-adv-y="2457" 
d="M1090 -156q61 -2 61 -57v-15q0 -55 -61 -55h-609q-196 0 -280 94q-78 87 -78 271v663q0 199 93 283q84 76 265 76h557q199 0 283 -93q76 -85 76 -266v-545q0 -97 -59 -149q-57 -51 -165 -51q-63 0 -142 20q-59 15 -94 15q-36 0 -102 -19q-91 -26 -155 -26q-116 0 -183 74
q-65 72 -65 202v289q0 150 71 214q64 58 202 58h114q154 0 219 -72q57 -64 56 -200l-2 -363q-1 -55 61 -55h43q61 0 62 55l2 615q0 172 -172 172h-656q-84 0 -129 -51q-43 -48 -43 -136v-763q0 -118 77 -164q40 -23 136 -23l136 1h142q273 1 335 1h5h-1zM940 235v353
q0 61 -23 83q-20 17 -63 17h-184q-47 0 -67 -22q-19 -21 -19 -78v-353q0 -61 22 -81q19 -17 64 -17h184q56 0 74 30q12 21 12 68z" />
    <glyph glyph-name="A" unicode="A" horiz-adv-x="1028" vert-adv-y="2457" 
d="M219 254v-199q0 -55 -64 -55h-32q-62 0 -62 55v262q0 50 23 96l319 658q16 33 43 33h141q27 0 43 -33l315 -649q23 -47 23 -94v-273q0 -55 -62 -55h-32q-64 0 -64 55v199h-591zM779 397q-24 52 -62 130q-135 279 -193 454h-17q-36 -108 -75 -199q-38 -87 -155 -329
l-27 -56h529z" />
    <glyph glyph-name="B" unicode="B" horiz-adv-x="1141" vert-adv-y="2457" 
d="M905 598q83 -48 118 -112q38 -68 38 -164q0 -166 -94 -252q-76 -70 -201 -70h-576q-57 0 -57 51v1002q0 51 57 51h496q168 0 255 -96q69 -74 69 -190q0 -127 -105 -220zM291 645h401q80 0 122 48q38 42 38 109q0 72 -44 115q-44 44 -116 44h-401v-316zM291 143h444
q99 0 134 59q22 39 22 113v17q0 98 -43 137q-37 33 -113 33h-444v-359z" />
    <glyph glyph-name="C" unicode="C" horiz-adv-x="1106" vert-adv-y="2457" 
d="M672 -20h-198q-201 0 -285 94q-78 86 -78 270v416q0 200 94 286q84 76 269 76h198q194 0 284 -98q69 -75 69 -196q0 -44 -16 -58q-13 -12 -40 -12h-59q-54 0 -55 63q-4 158 -156 158h-272q-83 0 -121 -41q-35 -40 -35 -131v-512q0 -99 44 -138q37 -34 112 -34h270
q152 0 156 160q1 63 55 63h61q56 0 56 -69q0 -138 -89 -217q-90 -80 -264 -80z" />
    <glyph glyph-name="D" unicode="D" horiz-adv-x="1143" vert-adv-y="2457" 
d="M669 0h-479q-57 0 -57 51v1002q0 51 57 51h479q203 0 288 -95q77 -85 77 -267v-380q0 -200 -94 -286q-85 -76 -271 -76zM291 143h428q82 0 119 42q36 39 36 130v474q0 98 -44 138q-37 34 -111 34h-428v-818z" />
    <glyph glyph-name="E" unicode="E" horiz-adv-x="1036" vert-adv-y="2457" 
d="M291 143h629q57 0 57 -51v-41q0 -51 -57 -51h-730q-57 0 -57 51v1002q0 51 57 51h730q57 0 57 -51v-41q0 -51 -57 -51h-629v-316h393q55 0 55 -49v-43q0 -51 -55 -51h-393v-359z" />
    <glyph glyph-name="F" unicode="F" horiz-adv-x="995" vert-adv-y="2457" 
d="M291 410v-359q0 -51 -58 -51h-43q-57 0 -57 51v1002q0 51 57 51h730q57 0 57 -51v-41q0 -51 -57 -51h-629v-408h393q55 0 55 -49v-43q0 -51 -55 -51h-393z" />
    <glyph glyph-name="G" unicode="G" horiz-adv-x="1116" vert-adv-y="2457" 
d="M868 412h-178q-57 0 -57 51v41q0 51 57 51h279q55 0 55 -51v-221q0 -78 -26 -136q-73 -167 -326 -167h-199q-200 0 -284 94q-78 86 -78 270v416q0 200 94 286q84 76 268 76h197q232 0 312 -141q32 -57 32 -108q0 -20 -14 -34q-15 -14 -33 -14h-80q-38 0 -48 47
q-22 107 -151 107h-262q-83 0 -120 -41q-35 -40 -35 -131v-512q0 -99 44 -138q36 -34 111 -34h285q157 0 157 160v129z" />
    <glyph glyph-name="H" unicode="H" horiz-adv-x="1147" vert-adv-y="2457" 
d="M858 645v408q0 51 57 51h43q58 0 58 -51v-1002q0 -51 -58 -51h-43q-57 0 -57 51v451h-567v-451q0 -51 -58 -51h-43q-57 0 -57 51v1002q0 51 57 51h43q58 0 58 -51v-408h567z" />
    <glyph glyph-name="I" unicode="I" horiz-adv-x="547" vert-adv-y="2457" 
d="M352 145h76q57 0 57 -51v-43q0 -51 -57 -51h-310q-57 0 -57 51v43q0 51 57 51h76v814h-76q-57 0 -57 51v43q0 51 57 51h310q57 0 57 -51v-43q0 -51 -57 -51h-76v-814z" />
    <glyph glyph-name="J" unicode="J" horiz-adv-x="983" vert-adv-y="2457" 
d="M704 961h-365q-57 0 -57 51v41q0 51 57 51h466q55 0 55 -51v-709q0 -202 -95 -288q-84 -76 -268 -76h-125q-193 0 -283 99q-69 76 -69 197q0 70 57 70h60q35 0 46 -21q8 -14 10 -63q1 -42 20 -75q37 -64 137 -64h198q82 0 120 42q36 40 36 130v666z" />
    <glyph glyph-name="K" unicode="K" horiz-adv-x="1075" vert-adv-y="2457" 
d="M776 582l256 -519q4 -7 4 -17q0 -16 -11 -29q-14 -17 -36 -17h-82q-28 0 -38 23l-226 479h-352v-451q0 -51 -58 -51h-43q-57 0 -57 51v1002q0 51 57 51h43q58 0 58 -51v-408h350l207 436q11 23 39 23h70q23 0 38 -19q10 -14 10 -29q0 -9 -3 -15z" />
    <glyph glyph-name="L" unicode="L" horiz-adv-x="895" vert-adv-y="2457" 
d="M291 143h528q58 0 58 -51v-41q0 -51 -58 -51h-629q-57 0 -57 51v1002q0 51 57 51h43q58 0 58 -51v-910z" />
    <glyph glyph-name="M" unicode="M" horiz-adv-x="1239" vert-adv-y="2457" 
d="M629 565l303 320q18 19 18 49v119q0 51 57 51h44q57 0 57 -51v-1002q0 -51 -57 -51h-44q-57 0 -57 51v516q0 27 6 59q4 17 4 25q0 31 -30 31q-16 0 -52 -47q-16 -21 -30 -37l-178 -190l-7 -9l-1 -2q-13 -16 -23 -16h-43q-10 0 -33 27l-172 184q-16 17 -29 37
q-33 46 -52 46q-29 0 -29 -32q0 -7 3 -24q7 -32 7 -58v-510q0 -51 -58 -51h-43q-57 0 -57 51v1002q0 51 57 51h43q58 0 58 -51v-111q0 -32 16 -49l312 -328h10z" />
    <glyph glyph-name="N" unicode="N" horiz-adv-x="1147" vert-adv-y="2457" 
d="M958 0h-43q-57 0 -57 51v86q0 35 -16 51l-451 459q-12 13 -46 58q-19 26 -34 26q-30 0 -30 -32q0 -7 3 -24q7 -32 7 -58v-566q0 -51 -58 -51h-43q-57 0 -57 51v1002q0 51 57 51h43q58 0 58 -51v-55q0 -33 16 -50l451 -459q13 -13 37 -47q19 -26 24 -31q7 -7 18 -7
q31 0 31 32q0 7 -3 24q-7 32 -7 60v533q0 51 57 51h43q58 0 58 -51v-1002q0 -51 -58 -51z" />
    <glyph glyph-name="O" unicode="O" horiz-adv-x="1139" vert-adv-y="2457" 
d="M666 -20h-192q-201 0 -285 94q-78 86 -78 270v416q0 200 94 286q84 76 269 76h192q202 0 286 -94q77 -86 77 -268v-416q0 -202 -96 -288q-84 -76 -267 -76zM869 295v512q0 99 -43 138q-37 34 -113 34h-286q-83 0 -121 -41q-35 -40 -35 -131v-512q0 -99 44 -138
q37 -34 112 -34h286q98 0 134 60q22 39 22 112z" />
    <glyph glyph-name="P" unicode="P" horiz-adv-x="1098" vert-adv-y="2457" 
d="M291 412v-361q0 -51 -58 -51h-43q-57 0 -57 51v1002q0 51 57 51h484q200 0 287 -96q75 -82 75 -249q0 -185 -94 -269q-87 -78 -268 -78h-383zM291 555h424q83 0 120 41q36 40 36 131v62q0 98 -44 138q-38 34 -112 34h-424v-406z" />
    <glyph glyph-name="Q" unicode="Q" horiz-adv-x="1143" vert-adv-y="2457" 
d="M941 66l88 -176q2 -4 2 -15v-2v-1q0 -19 -14 -32q-13 -14 -33 -14h-72q-28 0 -39 23l-72 145q-69 -12 -137 -12h-190q-202 0 -286 94q-77 85 -77 268v416q0 200 94 286q84 76 269 76h192q202 0 286 -94q77 -86 77 -268v-416q0 -183 -88 -278zM869 297v510q0 99 -43 138
q-37 34 -113 34h-286q-83 0 -121 -41q-35 -40 -35 -131v-510q0 -99 43 -139q37 -33 113 -33h286q99 0 134 59q22 39 22 113z" />
    <glyph glyph-name="R" unicode="R" horiz-adv-x="1098" vert-adv-y="2457" 
d="M291 412v-361q0 -51 -58 -51h-43q-57 0 -57 51v1002q0 51 57 51h463q202 0 289 -96q74 -82 74 -247q0 -158 -70 -242q-40 -48 -118 -80l182 -376q4 -8 4 -18q0 -23 -20 -37q-12 -8 -27 -8h-84q-29 0 -39 23l-174 389h-379zM291 555h408q82 0 120 41q35 40 35 131v62
q0 98 -44 138q-38 34 -111 34h-408v-406z" />
    <glyph glyph-name="S" unicode="S" horiz-adv-x="1081" vert-adv-y="2457" 
d="M606 -20h-172q-195 0 -284 98q-68 75 -68 194q0 70 57 70h64q54 0 55 -63q1 -53 15 -82q33 -74 141 -74h237q156 0 156 207q0 193 -166 193h-168q-366 0 -366 296q0 140 89 219q96 84 277 84h141q126 0 221 -49q75 -39 108 -127q16 -42 16 -73q0 -20 -15 -34
q-14 -14 -33 -14h-79q-39 0 -50 47q-23 107 -151 107h-199q-72 0 -116 -44q-43 -43 -43 -115q0 -69 42 -111q43 -43 117 -43h172q220 0 307 -94q70 -76 70 -232q0 -191 -98 -279q-90 -81 -277 -81z" />
    <glyph glyph-name="T" unicode="T" horiz-adv-x="918" vert-adv-y="2457" 
d="M380 961h-303q-57 0 -57 51v41q0 51 57 51h762q57 0 57 -51v-41q0 -51 -57 -51h-303v-910q0 -51 -55 -51h-46q-55 0 -55 51v910z" />
    <glyph glyph-name="U" unicode="U" horiz-adv-x="1137" vert-adv-y="2457" 
d="M651 -20h-155q-207 0 -295 97q-78 87 -78 267v709q0 51 57 51h43q58 0 58 -51v-758q0 -98 44 -138q38 -34 111 -34h266q82 0 120 42q36 40 36 130v758q0 51 57 51h44q57 0 57 -51v-709q0 -201 -95 -288q-85 -76 -270 -76z" />
    <glyph glyph-name="V" unicode="V" horiz-adv-x="1028" vert-adv-y="2457" 
d="M522 121q38 116 80 213q42 96 169 358q34 70 36 76q3 11 3 25v254q0 57 64 57h32q62 0 62 -57v-260q0 -50 -23 -97l-319 -657q-16 -33 -43 -33h-141q-27 0 -43 33l-315 647q-23 46 -23 96v271q0 57 62 57h32q64 0 64 -57v-256q0 -25 41 -107q170 -337 245 -563h17z" />
    <glyph glyph-name="W" unicode="W" horiz-adv-x="1446" vert-adv-y="2457" 
d="M991 121q85 269 149 400q38 78 38 102v424q0 57 62 57h32q64 0 64 -57v-430q0 -44 -23 -95l-219 -489q-15 -33 -43 -33h-183q-29 0 -43 33l-92 229h-16l-93 -231q-12 -31 -42 -31h-182q-29 0 -43 33l-215 479q-23 50 -23 96v439q0 57 62 57h32q62 0 62 -57v-424
q0 -17 8 -33q79 -153 182 -469h55q47 143 131 313v465q0 51 55 51h46q55 0 55 -51v-465q74 -159 127 -313h57z" />
    <glyph glyph-name="X" unicode="X" horiz-adv-x="1044" vert-adv-y="2457" 
d="M653 582l234 -174q56 -42 73 -88q15 -39 15 -121v-148q0 -51 -57 -51h-45q-58 0 -58 49v139q0 39 -1 47q-3 30 -29 52l-254 202h-15l-258 -202q-23 -18 -28 -43q-2 -9 -2 -56v-139q0 -49 -58 -49h-41q-57 0 -57 51v148q0 73 10 108q16 54 78 101l233 174v12l-229 166
q-49 35 -66 88q-12 38 -12 117v86q0 51 58 51h45q57 0 57 -49v-96q0 -35 2 -45q4 -22 27 -39l241 -187h15l245 187q21 15 26 35q3 11 3 49v96q0 49 57 49h41q58 0 58 -51v-86q0 -69 -9 -104q-15 -62 -69 -101l-230 -166v-12z" />
    <glyph glyph-name="Y" unicode="Y" horiz-adv-x="1114" vert-adv-y="2457" 
d="M835 583v470q0 51 55 51h46q57 0 57 -51v-771q0 -137 -90 -217q-97 -85 -279 -85h-188q-231 0 -311 139q-33 58 -33 113q0 17 13 30q14 14 34 14h80q39 0 49 -47q23 -106 150 -106h257q72 0 116 44t44 115v158h-381q-201 0 -285 94q-77 85 -77 269v250q0 51 57 51h43
q58 0 58 -51v-300q0 -97 44 -136q37 -34 111 -34h430z" />
    <glyph glyph-name="Z" unicode="Z" horiz-adv-x="1006" vert-adv-y="2457" 
d="M219 143h664q63 0 63 -53v-33q0 -57 -63 -57h-761q-61 0 -61 57v72q0 83 11 131q17 70 75 115l609 467q33 25 32 119h-637q-63 0 -63 55v31q0 57 63 57h732q63 0 63 -57v-98q0 -80 -12 -122q-15 -53 -76 -100l-609 -465q-24 -19 -29 -64q-1 -8 -1 -55z" />
    <glyph glyph-name="bracketleft" unicode="[" horiz-adv-x="512" vert-adv-y="2457" 
d="M308 0h96q58 0 58 -51v-41q0 -51 -58 -51h-193q-57 0 -57 51v1288q0 51 57 51h193q58 0 58 -51v-41q0 -51 -58 -51h-96v-1104z" />
    <glyph glyph-name="backslash" unicode="\" horiz-adv-x="575" vert-adv-y="2457" 
d="M496 0h-51q-34 0 -43 25l-367 1009q-4 9 -4 18q0 22 15 37t36 15h51q34 0 43 -25l367 -1009q4 -11 4 -19q0 -21 -15 -36q-16 -15 -36 -15z" />
    <glyph glyph-name="bracketright" unicode="]" horiz-adv-x="512" vert-adv-y="2457" 
d="M204 1104h-97q-57 0 -57 51v41q0 51 57 51h193q58 0 58 -51v-1288q0 -51 -58 -51h-193q-57 0 -57 51v41q0 51 57 51h97v1104z" />
    <glyph glyph-name="asciicircum" unicode="^" horiz-adv-x="782" vert-adv-y="2457" 
d="M389 1022q-70 -225 -150 -403q-23 -52 -35 -60t-26 -8h-55q-22 0 -37 19q-11 14 -11 29q0 9 3 16l232 493q15 33 43 33h86q27 0 43 -33l231 -493q2 -5 2 -13q0 -16 -9 -30q-15 -21 -38 -21h-55q-21 0 -34 15q-15 17 -101 228q-24 61 -76 228h-13z" />
    <glyph glyph-name="underscore" unicode="_" horiz-adv-x="799" vert-adv-y="2457" 
d="M799 -195h-799q-61 0 -61 55v29q0 55 61 55h799q62 0 62 -55v-29q0 -55 -62 -55z" />
    <glyph glyph-name="grave" unicode="`" horiz-adv-x="852" vert-adv-y="2457" 
d="M412 944l-215 117q-31 17 -31 47q0 14 13 33l32 49q18 27 45 27q18 0 37 -17l183 -164q28 -25 28 -51q0 -13 -7 -25q-18 -28 -44 -28q-19 0 -41 12z" />
    <glyph glyph-name="a" unicode="a" vert-adv-y="2457" 
d="M586 492q-1 1 -1 4q0 1 -1 7q-2 11 -2 26v73q0 49 -22 68q-20 18 -66 18h-146q-28 0 -41 -10q-9 -6 -18 -27q-10 -21 -16 -26q-14 -13 -47 -13h-43q-60 0 -60 55q0 50 43 92q67 68 211 68h84q151 0 215 -71q58 -64 58 -201v-508q0 -61 -62 -61q-24 0 -59 19
q-53 30 -96 30q-38 0 -92 -21q-61 -24 -110 -24q-112 0 -177 74q-66 75 -66 206q0 129 78 198q75 67 212 67q112 0 201 -35q13 -5 23 -8zM582 240v43q0 61 -23 82q-20 18 -65 18h-182q-49 0 -69 -22q-19 -21 -19 -76v-45q0 -61 23 -82q20 -18 65 -18h182q57 0 75 31
q13 21 13 69z" />
    <glyph glyph-name="b" unicode="b" horiz-adv-x="897" vert-adv-y="2457" 
d="M512 0h-116q-151 0 -215 71q-58 64 -58 201v886q0 57 62 57h30q60 0 60 -57v-263q0 -25 -5 -62q-3 -18 -3 -26q0 -23 22 -23q7 0 22 8q76 42 191 42q283 0 283 -281v-281q0 -150 -72 -214q-64 -58 -201 -58zM633 239v345q0 59 -23 80q-20 18 -65 18h-182q-48 0 -69 -22
q-19 -22 -19 -76v-345q0 -61 24 -82q20 -18 64 -18h182q57 0 75 31q13 21 13 69z" />
    <glyph glyph-name="c" unicode="c" horiz-adv-x="870" vert-adv-y="2457" 
d="M515 0h-129q-151 0 -215 71q-58 64 -58 201v283q0 150 71 214q64 58 202 58h129q148 0 218 -76q48 -52 48 -121q0 -71 -65 -71h-29q-66 0 -68 59q-1 31 -8 44q-16 26 -63 26h-195q-48 0 -68 -22t-20 -78v-349q0 -61 24 -82q20 -18 64 -18h195q47 0 63 26q7 13 8 44
q2 59 68 59h29q65 0 65 -71q0 -80 -63 -135q-70 -62 -203 -62z" />
    <glyph glyph-name="d" unicode="d" horiz-adv-x="907" vert-adv-y="2457" 
d="M113 265v288q0 281 283 281q108 0 190 -42q17 -8 23 -8q24 0 24 23q0 7 -4 26q-6 34 -6 62v263q0 57 62 57h28q62 0 62 -57v-1111q0 -61 -62 -61q-24 0 -59 19q-53 30 -96 30q-38 0 -92 -21q-60 -24 -109 -24q-112 0 -179 75q-65 73 -65 200zM623 240v344q0 59 -23 80
q-20 18 -65 18h-182q-48 0 -69 -22q-19 -22 -19 -76v-344q0 -61 24 -82q20 -18 64 -18h182q57 0 75 31q13 21 13 69z" />
    <glyph glyph-name="e" unicode="e" vert-adv-y="2457" 
d="M265 299v-74q0 -48 22 -68q20 -18 66 -18h170q29 0 42 10q9 6 18 27q11 27 25 33t38 6h41q59 0 59 -55q0 -49 -42 -92q-68 -68 -212 -68h-106q-151 0 -215 71q-58 64 -58 201v291q0 143 71 206q64 58 202 58h117q272 0 272 -272q0 -256 -238 -256h-272zM265 438h268
q58 0 76 31q12 21 12 67v52q0 61 -23 82q-20 18 -65 18h-180q-48 0 -68 -22t-20 -78v-150z" />
    <glyph glyph-name="f" unicode="f" horiz-adv-x="494" vert-adv-y="2457" 
d="M152 821v119q0 152 71 217q64 57 201 57h56q59 0 59 -57v-29q0 -55 -59 -55h-88q-51 0 -70 -21q-18 -21 -18 -77v-154h110q62 0 62 -55v-29q0 -55 -62 -55h-110v-627q0 -55 -62 -55h-29q-61 0 -61 55v627h-50q-61 0 -61 55v29q0 55 61 55h50z" />
    <glyph glyph-name="g" unicode="g" horiz-adv-x="907" vert-adv-y="2457" 
d="M502 -387h-96q-146 0 -215 74q-49 53 -49 123q0 73 65 73h29q64 0 66 -61q1 -30 8 -43q15 -25 61 -25h164q50 0 69 22q19 21 19 77v73q0 30 9 77q1 6 1 11q0 23 -24 23q-7 0 -23 -8q-76 -41 -189 -41q-284 0 -284 281v290q0 141 81 215q66 60 164 60q45 0 108 -25
q54 -21 92 -21q46 0 96 29q35 21 58 21q63 0 63 -62v-889q0 -152 -72 -217q-64 -57 -201 -57zM623 240v346q0 59 -23 80q-20 18 -65 18h-182q-48 0 -69 -22q-19 -22 -19 -76v-346q0 -61 24 -82q20 -18 64 -18h182q57 0 75 31q13 21 13 69z" />
    <glyph glyph-name="h" unicode="h" horiz-adv-x="918" vert-adv-y="2457" 
d="M733 0h-28q-62 0 -62 55v529q0 59 -23 80q-20 18 -65 18h-182q-48 0 -69 -22q-19 -22 -19 -76v-529q0 -55 -60 -55h-30q-62 0 -62 55v1103q0 57 62 57h30q60 0 60 -57v-263q0 -25 -5 -62q-3 -18 -3 -26q0 -23 22 -23q7 0 22 8q76 42 191 42q283 0 283 -281v-498
q0 -55 -62 -55z" />
    <glyph glyph-name="i" unicode="i" horiz-adv-x="453" vert-adv-y="2457" 
d="M260 957h-35q-69 0 -69 63v35q0 63 69 63h35q72 0 72 -63v-35q0 -63 -72 -63zM170 678h-68q-61 0 -61 55v33q0 55 61 55h160q60 0 60 -55v-711q0 -55 -60 -55h-30q-62 0 -62 55v623z" />
    <glyph glyph-name="j" unicode="j" horiz-adv-x="453" vert-adv-y="2457" 
d="M260 957h-35q-70 0 -70 63v35q0 63 70 63h35q72 0 72 -63v-35q0 -63 -72 -63zM169 678h-68q-61 0 -61 55v33q0 55 61 55h160q60 0 60 -55v-879q0 -152 -72 -217q-64 -57 -201 -57h-70q-61 0 -61 57v29q0 55 61 55h105q48 0 67 21t19 77v826z" />
    <glyph glyph-name="k" unicode="k" horiz-adv-x="846" vert-adv-y="2457" 
d="M596 502q51 -41 119 -117l8 -8q72 -72 72 -213v-109q0 -55 -62 -55h-28q-62 0 -62 55v150q0 41 -16 57l-142 144q-16 16 -39 16h-161v-367q0 -55 -60 -55h-30q-62 0 -62 55v1102q0 57 62 57h30q60 0 60 -57v-596h124q54 0 71 18q15 17 15 66v121q0 55 62 55h31
q61 0 61 -55v-84q0 -112 -53 -180z" />
    <glyph glyph-name="l" unicode="l" horiz-adv-x="430" vert-adv-y="2457" 
d="M117 209v948q0 57 62 57h30q60 0 60 -57v-940q0 -51 21 -63q11 -6 42 -7q64 0 64 -67v-23q0 -63 -98 -63q-181 0 -181 215z" />
    <glyph glyph-name="m" unicode="m" horiz-adv-x="1280" vert-adv-y="2457" 
d="M1097 0h-30q-62 0 -62 55v531q0 60 -23 80q-19 18 -63 18h-110q-49 0 -69 -22q-19 -21 -19 -76v-531q0 -55 -60 -55h-30q-62 0 -62 55v531q0 60 -23 80q-19 18 -63 18h-110q-48 0 -69 -22q-19 -22 -19 -76v-531q0 -55 -60 -55h-30q-62 0 -62 55v721q0 62 55 62
q21 0 53 -21q45 -29 86 -29q33 0 81 21q56 25 97 25q42 0 97 -23q53 -23 96 -23q37 0 92 20q71 26 124 26q113 0 180 -75q63 -70 63 -196v-508q0 -55 -60 -55z" />
    <glyph glyph-name="n" unicode="n" horiz-adv-x="918" vert-adv-y="2457" 
d="M733 0h-28q-62 0 -62 55v531q0 59 -23 80q-20 18 -65 18h-182q-48 0 -69 -22q-19 -22 -19 -76v-531q0 -55 -60 -55h-30q-62 0 -62 55v721q0 62 62 62q24 0 59 -21q50 -29 97 -29q37 0 91 21q63 25 110 25q110 0 178 -75q65 -72 65 -200v-504q0 -55 -62 -55z" />
    <glyph glyph-name="o" unicode="o" horiz-adv-x="887" vert-adv-y="2457" 
d="M502 0h-116q-151 0 -215 71q-58 64 -58 201v283q0 150 71 214q64 58 202 58h116q151 0 215 -71q58 -64 58 -201v-283q0 -150 -72 -214q-64 -58 -201 -58zM623 239v349q0 61 -23 82q-20 18 -65 18h-182q-48 0 -68 -22t-20 -78v-349q0 -61 24 -82q20 -18 64 -18h182
q57 0 75 31q13 21 13 69z" />
    <glyph glyph-name="p" unicode="p" horiz-adv-x="907" vert-adv-y="2457" 
d="M285 -73v-256q0 -58 -60 -58h-30q-62 0 -62 58v1109q0 62 62 62q24 0 59 -20q50 -30 97 -30q38 0 91 21q62 25 110 25q110 0 178 -75q65 -72 65 -200v-294q0 -281 -283 -281q-109 0 -191 41q-17 8 -22 8q-22 0 -22 -23q0 -8 3 -23q5 -33 5 -64zM643 240v348q0 61 -23 82
q-20 18 -65 18h-182q-48 0 -68 -22t-20 -78v-348q0 -61 24 -82q20 -18 64 -18h182q57 0 75 31q13 21 13 69z" />
    <glyph glyph-name="q" unicode="q" horiz-adv-x="897" vert-adv-y="2457" 
d="M713 -387h-28q-62 0 -62 58v256q0 29 9 76q1 6 1 11q0 23 -24 23q-7 0 -23 -8q-76 -41 -189 -41q-284 0 -284 281v286q0 150 71 214q64 58 202 58h116q151 0 215 -71q58 -64 58 -201v-884q0 -58 -62 -58zM623 240v348q0 61 -23 82q-20 18 -65 18h-182q-48 0 -68 -22
t-20 -78v-348q0 -61 24 -82q20 -18 64 -18h182q57 0 75 31q13 21 13 69z" />
    <glyph glyph-name="r" unicode="r" horiz-adv-x="612" vert-adv-y="2457" 
d="M531 678h-172q-38 0 -55 -19q-19 -21 -19 -81v-523q0 -55 -51 -55h-50q-51 0 -51 55v715q0 61 53 61q21 0 56 -20q45 -27 78 -27q25 0 62 18q51 25 100 25h49q61 0 61 -55v-39q0 -55 -61 -55z" />
    <glyph glyph-name="s" unicode="s" horiz-adv-x="850" vert-adv-y="2457" 
d="M493 0h-135q-148 0 -217 75q-49 52 -49 122q0 71 66 71h28q64 0 66 -59q1 -31 8 -44q16 -26 63 -26h203q46 0 65 22q21 23 21 84q0 62 -23 83q-20 18 -63 18h-149q-158 0 -221 69q-52 57 -52 171q0 125 66 183t207 58h110q148 0 218 -76q49 -52 49 -121q0 -71 -68 -71
h-25q-65 0 -67 59q-1 31 -9 44q-15 26 -61 26h-180q-47 0 -67 -22q-19 -21 -19 -79q0 -63 24 -84q20 -18 62 -18h149q158 0 221 -69q52 -57 52 -173q0 -124 -66 -184q-66 -59 -207 -59z" />
    <glyph glyph-name="t" unicode="t" horiz-adv-x="532" vert-adv-y="2457" 
d="M287 821h166q59 0 59 -55v-29q0 -55 -59 -55h-166v-442q0 -62 23 -83q19 -18 63 -18h45q61 0 61 -55v-29q0 -55 -61 -55h-13q-151 0 -215 70q-57 64 -57 202v410h-52q-61 0 -61 55v29q0 55 61 55h52v125q0 55 61 55h31q62 0 62 -55v-125z" />
    <glyph glyph-name="u" unicode="u" horiz-adv-x="918" vert-adv-y="2457" 
d="M123 265v501q0 55 62 55h30q60 0 60 -55v-526q0 -61 24 -82q20 -18 64 -18h182q49 0 69 22q19 21 19 78v526q0 55 62 55h28q62 0 62 -55v-719q0 -61 -62 -61q-24 0 -59 19q-53 30 -96 30q-38 0 -92 -21q-60 -24 -109 -24q-112 0 -179 75q-65 73 -65 200z" />
    <glyph glyph-name="v" unicode="v" horiz-adv-x="840" vert-adv-y="2457" 
d="M610 530v236q0 55 62 55h28q62 0 62 -55v-232q0 -48 -14 -77l-210 -424q-16 -33 -42 -33h-148q-26 0 -42 33l-208 424q-16 33 -16 77v232q0 55 62 55h30q60 0 60 -55v-236q34 -74 52 -111q92 -196 112 -260q7 -20 14 -42h22q26 84 32 102q15 37 81 177q15 31 63 134z" />
    <glyph glyph-name="w" unicode="w" horiz-adv-x="1171" vert-adv-y="2457" 
d="M933 446v320q0 55 62 55h28q62 0 62 -55v-318q0 -51 -14 -79l-167 -336q-16 -33 -42 -33h-147q-33 0 -49 39q-33 82 -72 203h-8q-43 -128 -76 -206q-15 -36 -47 -36h-145q-27 0 -43 33l-167 336q-14 28 -14 79v318q0 55 60 55h30q62 0 62 -55v-320q94 -205 135 -329h25
q35 114 95 239l13 27v256q0 55 60 55h30q62 0 62 -55v-256q50 -106 60 -130q17 -41 48 -136h25q38 121 134 329z" />
    <glyph glyph-name="x" unicode="x" horiz-adv-x="844" vert-adv-y="2457" 
d="M551 442q140 -97 175 -141q24 -30 34 -58q19 -50 19 -143v-45q0 -55 -62 -55h-39q-61 0 -61 55v82q0 58 -27 80l-162 137l-162 -137q-26 -22 -26 -80v-82q0 -55 -62 -55h-37q-63 0 -63 55v45q0 127 40 187q35 51 183 155q-142 108 -168 138q-19 22 -26 40q-13 30 -13 97
v49q0 55 60 55h39q59 0 59 -55v-37q0 -26 2 -36q3 -17 21 -32l151 -129l156 129q20 17 20 68v37q0 55 62 55h39q59 0 59 -55v-60q0 -66 -14 -94q-20 -39 -140 -127q-10 -7 -57 -43z" />
    <glyph glyph-name="y" unicode="y" horiz-adv-x="901" vert-adv-y="2457" 
d="M496 -393h-72q-147 0 -217 76q-49 52 -49 121q0 73 68 73h29q63 0 66 -74q1 -55 69 -55h140q48 0 67 21t19 78v73q0 30 7 63q3 19 3 24q0 24 -22 24q-7 0 -22 -8q-76 -41 -189 -41q-284 0 -284 281v503q0 55 60 55h30q62 0 62 -55v-532q0 -62 23 -83q19 -17 63 -17h183
q47 0 67 21q19 22 19 79v532q0 55 62 55h30q60 0 60 -55v-885q0 -152 -72 -217q-64 -57 -200 -57z" />
    <glyph glyph-name="z" unicode="z" horiz-adv-x="756" vert-adv-y="2457" 
d="M213 139h440q61 0 61 -55v-29q0 -55 -61 -55h-531q-61 0 -61 55v76q0 76 9 113q14 54 67 96l379 299q15 12 22 43h-409q-62 0 -62 55v29q0 55 62 55h505q62 0 62 -55v-17q0 -71 -10 -113q-15 -61 -66 -101l-385 -306q-23 -18 -23 -60v-19q0 -5 1 -11z" />
    <glyph glyph-name="braceleft" unicode="{" horiz-adv-x="543" vert-adv-y="2457" 
d="M199 549q54 -17 72 -28q53 -35 53 -113v-240q0 -99 44 -139q34 -31 112 -33q61 -2 61 -55v-29q0 -56 -76 -56q-295 0 -295 365v164q0 75 -68 104q-32 15 -32 43v39q0 27 41 48q59 30 59 100v164q0 365 291 365q80 0 80 -56v-29q0 -53 -61 -55q-85 -2 -120 -42
q-36 -40 -36 -128v-231q0 -87 -57 -123q-20 -13 -68 -27v-8z" />
    <glyph glyph-name="bar" unicode="|" horiz-adv-x="410" vert-adv-y="2457" 
d="M221 -121h-30q-62 0 -62 55v1223q0 57 62 57h30q60 0 60 -57v-1223q0 -55 -60 -55z" />
    <glyph glyph-name="braceright" unicode="}" horiz-adv-x="543" vert-adv-y="2457" 
d="M344 559q-50 14 -72 30q-53 36 -53 120v229q0 97 -44 136q-35 32 -112 34q-61 2 -61 55v29q0 56 76 56q295 0 295 -365v-158q0 -71 68 -104q32 -17 32 -43v-39q0 -27 -41 -48q-59 -29 -59 -100v-170q0 -364 -292 -364q-79 0 -79 55v29q0 53 61 55q85 2 120 42
q36 40 36 130v242q0 81 57 115q18 11 68 26v8z" />
    <glyph glyph-name="asciitilde" unicode="~" horiz-adv-x="918" vert-adv-y="2457" 
d="M197 987l-25 21q-18 15 -18 34q0 17 18 39q87 110 186 110q67 0 158 -71q36 -28 59 -28q26 0 74 53q23 25 46 25q14 0 28 -11l27 -20q16 -13 16 -34q0 -18 -17 -40q-47 -61 -111 -93q-38 -19 -76 -19q-69 0 -159 71q-38 30 -60 30q-25 0 -73 -54q-19 -23 -44 -23
q-17 0 -29 10z" />
    <glyph glyph-name="uni00A0" unicode="&#xa0;" horiz-adv-x="348" vert-adv-y="2457" 
 />
    <glyph glyph-name="exclamdown" unicode="&#xa1;" horiz-adv-x="442" vert-adv-y="2457" 
d="M237 669h-34q-70 0 -70 64v33q0 65 70 65h34q72 0 72 -65v-33q0 -64 -72 -64zM239 -287h-30q-62 0 -62 56v725q0 55 62 55h30q60 0 60 -55v-725q0 -56 -60 -56z" />
    <glyph glyph-name="cent" unicode="&#xa2;" horiz-adv-x="870" vert-adv-y="2457" 
d="M520 139h27q47 0 63 26q7 13 8 44q2 59 68 59h29q65 0 65 -72q0 -79 -63 -134q-43 -39 -104 -52q-31 -7 -93 -10v-92q0 -51 -57 -51h-29q-57 0 -57 51v92q-82 3 -124 18q-140 49 -140 254v283q0 150 70 214q58 53 194 58v91q0 51 57 51h29q57 0 57 -51v-91q87 -4 130 -21
q83 -33 114 -105q16 -36 16 -70q0 -72 -65 -72h-29q-66 0 -68 59q-1 31 -8 44q-16 26 -63 26h-27v-549zM377 139v549h-24q-48 0 -68 -22t-20 -78v-348q0 -61 24 -83q20 -18 64 -18h24z" />
    <glyph glyph-name="sterling" unicode="&#xa3;" horiz-adv-x="1096" vert-adv-y="2457" 
d="M396 143h397q47 0 63 26q8 13 9 44q2 59 67 59h37q66 0 66 -71q0 -82 -65 -139q-70 -62 -202 -62h-629q-57 0 -57 51v41q0 51 57 51h97v701q0 152 71 217q64 57 201 57h101q145 0 215 -76q51 -56 51 -127t-66 -71h-37q-65 0 -67 59q-1 31 -9 44q-15 26 -63 26h-149
q-50 0 -70 -22q-18 -20 -18 -76v-320h231q61 0 61 -55v-33q0 -55 -61 -55h-231v-269z" />
    <glyph glyph-name="currency" unicode="&#xa4;" horiz-adv-x="799" vert-adv-y="2457" 
d="M511 729q66 -20 87 -80h30q59 0 59 -55v-97q0 -55 -59 -55h-30q-23 -64 -87 -80v-39q0 -55 -62 -55h-98q-62 0 -62 55v44q-51 20 -71 75h-48q-61 0 -61 55v97q0 55 61 55h48q20 54 71 74v53q0 58 62 58h98q62 0 62 -58v-47zM474 512v61q0 25 -8 33q-8 7 -33 7h-50
q-26 0 -33 -8q-6 -8 -6 -32v-61q0 -25 7 -32t32 -7h50q27 0 35 9q6 7 6 30z" />
    <glyph glyph-name="yen" unicode="&#xa5;" horiz-adv-x="1075" vert-adv-y="2457" 
d="M648 350h288q57 0 57 -51v-39q0 -51 -57 -51h-315v-158q0 -51 -55 -51h-46q-55 0 -55 51v158h-318q-55 0 -55 51v39q0 51 55 51h291l-78 121h-213q-55 0 -55 51v39q0 51 55 51h123l-155 248q-23 36 -23 96v91q0 57 61 57h33q64 0 64 -57v-66q0 -16 5 -30q18 -50 117 -201
q98 -149 132 -215q16 -31 33 -85h16q14 45 28 74q31 63 132 220q91 140 116 198q1 3 4 11q2 7 2 22v72q0 57 64 57h32q62 0 62 -57v-91q0 -60 -23 -96l-153 -248h119q57 0 57 -51v-39q0 -51 -57 -51h-207z" />
    <glyph glyph-name="brokenbar" unicode="&#xa6;" horiz-adv-x="410" vert-adv-y="2457" 
d="M221 621h-30q-62 0 -62 55v481q0 57 62 57h30q60 0 60 -57v-481q0 -55 -60 -55zM221 -121h-30q-62 0 -62 55v482q0 57 62 57h30q60 0 60 -57v-482q0 -55 -60 -55z" />
    <glyph glyph-name="section" unicode="&#xa7;" horiz-adv-x="1124" vert-adv-y="2457" 
d="M212 725q-86 55 -86 161q0 99 58 156q60 60 164 60h565q57 0 57 -51v-41q0 -51 -57 -51h-549q-84 0 -84 -73t84 -73h360q136 0 215 -87q78 -87 78 -246q0 -168 -104 -245q84 -58 84 -163q0 -102 -65 -161q-59 -52 -154 -52h-568q-57 0 -57 51v41q0 51 57 51h549
q84 0 84 72q0 73 -84 73h-360q-136 0 -214 87q-79 88 -79 246q0 174 106 245zM851 471v20q0 104 -45 146q-36 33 -104 33h-283q-76 0 -112 -41q-37 -42 -37 -138v-20q0 -183 149 -183h283q149 0 149 183z" />
    <glyph glyph-name="dieresis" unicode="&#xa8;" horiz-adv-x="907" vert-adv-y="2457" 
d="M668 957h-35q-70 0 -70 63v35q0 63 70 63h35q71 0 71 -63v-35q0 -63 -71 -63zM274 957h-34q-70 0 -70 63v35q0 63 70 63h34q72 0 72 -63v-35q0 -63 -72 -63z" />
    <glyph glyph-name="copyright" unicode="&#xa9;" horiz-adv-x="1352" vert-adv-y="2457" 
d="M846 -20h-341q-200 0 -285 94q-77 85 -77 270v416q0 200 93 285q84 77 269 77h341q202 0 286 -94q76 -85 76 -268v-416q0 -202 -95 -288q-84 -76 -267 -76zM1104 295v512q0 223 -207 223h-443q-207 0 -207 -223v-512q0 -223 207 -223h443q207 0 207 223zM747 176h-129
q-130 0 -185 61q-50 56 -50 177v270q0 132 61 187q55 49 174 49h129q126 0 184 -64q45 -49 45 -127q0 -47 -36 -47h-37q-36 0 -37 41q-1 103 -100 103h-179q-53 0 -77 -27q-23 -25 -23 -84v-334q0 -64 28 -89q24 -22 72 -22h177q98 0 100 103q1 41 37 41h39q36 0 36 -45
q0 -90 -57 -141q-59 -52 -172 -52z" />
    <glyph glyph-name="ordfeminine" unicode="&#xaa;" horiz-adv-x="733" vert-adv-y="2457" 
d="M484 902q-1 0 -2 3v3q-3 7 -3 16v35q0 51 -61 51h-102q-29 0 -42 -22q-12 -23 -44 -23h-29q-43 0 -43 36q0 39 42 69q49 34 136 34h60q110 0 154 -48q36 -38 36 -116v-305q0 -37 -42 -37q-18 0 -42 12q-36 17 -68 17q-26 0 -64 -13q-42 -14 -78 -14q-83 0 -129 50
q-40 44 -40 116q0 162 205 162q73 0 140 -22q7 -2 16 -4zM479 760v6q0 35 -14 48q-13 12 -47 12h-127q-36 0 -50 -15q-11 -13 -11 -43v-8q0 -35 14 -48q14 -12 47 -12h127q37 0 50 14q11 13 11 46zM549 440h-369q-43 0 -43 35v26q0 33 43 33h369q41 0 41 -33v-26
q0 -35 -41 -35z" />
    <glyph glyph-name="guillemotleft" unicode="&#xab;" horiz-adv-x="702" vert-adv-y="2457" 
d="M494 430l127 -246q2 -3 2 -14v-2v-2q0 -18 -13 -30.5t-32 -12.5h-74q-26 0 -37 20l-102 203q-25 50 -25 82q0 27 25 78l102 211q11 22 37 22h72q18 0 32 -13q13 -14 13 -31v-6q0 -8 -2 -11zM220 430l127 -246q2 -4 2 -14v-3q0 -17 -13 -31q-14 -13 -32 -13h-74
q-26 0 -37 20l-104 203q-23 44 -23 82q0 32 23 78l104 211q11 22 37 22h72q18 0 31 -13q14 -14 14 -32q0 -7 -5 -16z" />
    <glyph glyph-name="logicalnot" unicode="&#xac;" horiz-adv-x="989" vert-adv-y="2457" 
d="M877 530v-307q0 -55 -51 -55h-43q-51 0 -51 55v252h-557q-61 0 -61 55v29q0 55 61 55h641q61 0 61 -55v-29z" />
    <glyph glyph-name="uni00AD" unicode="&#xad;" horiz-adv-x="645" vert-adv-y="2457" 
d="M473 475h-299q-61 0 -61 55v29q0 55 61 55h299q60 0 60 -55v-29q0 -55 -60 -55z" />
    <glyph glyph-name="registered" unicode="&#xae;" horiz-adv-x="1352" vert-adv-y="2457" 
d="M846 -20h-341q-200 0 -285 94q-77 85 -77 270v416q0 200 93 285q84 77 269 77h341q202 0 286 -94q76 -85 76 -268v-416q0 -202 -95 -288q-84 -76 -267 -76zM1104 295v512q0 223 -207 223h-443q-207 0 -207 -223v-512q0 -223 207 -223h443q207 0 207 223zM497 461v-234
q0 -34 -37 -34h-28q-37 0 -37 34v651q0 33 37 33h301q131 0 187 -61q48 -53 48 -162q0 -103 -45 -158q-26 -31 -76 -51l117 -243q3 -7 3 -13q0 -30 -30 -30h-55q-17 0 -25 16l-112 252h-248zM497 555h266q53 0 78 27q23 25 23 83v41q0 111 -101 111h-266v-262z" />
    <glyph glyph-name="macron" unicode="&#xaf;" horiz-adv-x="887" vert-adv-y="2457" 
d="M639 929h-388q-61 0 -61 55v27q0 55 61 55h388q61 0 61 -55v-27q0 -55 -61 -55z" />
    <glyph glyph-name="degree" unicode="&#xb0;" horiz-adv-x="772" vert-adv-y="2457" 
d="M428 586h-86q-117 0 -170 59q-49 55 -49 170v74q0 126 60 180q52 47 159 47h86q120 0 172 -59q49 -54 49 -168v-74q0 -127 -61 -182q-53 -47 -160 -47zM497 801v98q0 51 -22 70q-20 18 -66 18h-46q-50 0 -70 -22q-18 -20 -18 -66v-98q0 -49 21 -68q19 -18 67 -18h46
q51 0 71 21q17 19 17 65z" />
    <glyph glyph-name="plusminus" unicode="&#xb1;" horiz-adv-x="799" vert-adv-y="2457" 
d="M476 666h147q62 0 62 -55v-29q0 -55 -62 -55h-147v-152q0 -55 -60 -55h-30q-62 0 -62 55v152h-150q-61 0 -61 55v29q0 55 61 55h150v162q0 57 62 57h30q60 0 60 -57v-162zM623 0h-449q-61 0 -61 55v29q0 55 61 55h449q61 0 61 -55v-29q0 -55 -61 -55z" />
    <glyph glyph-name="uni00B2" unicode="&#xb2;" horiz-adv-x="700" vert-adv-y="2457" 
d="M184 713h400q41 0 41 -34v-18q0 -33 -41 -33h-466q-42 0 -42 33v102q0 160 226 160h111q88 0 88 94q0 102 -86 102h-131q-81 0 -83 -71q-1 -40 -42 -40h-34q-43 0 -43 43q0 69 57 111q57 41 159 41h94q220 0 220 -184q0 -181 -221 -181h-120q-39 0 -64 -20
q-23 -20 -23 -50v-55z" />
    <glyph glyph-name="uni00B3" unicode="&#xb3;" horiz-adv-x="700" vert-adv-y="2457" 
d="M537 944q84 -46 84 -144q0 -93 -61 -138q-46 -35 -119 -35h-169q-115 0 -171 50q-45 40 -45 105q0 43 42 43h32q27 0 36 -15q6 -10 7 -35q2 -63 83 -63h168q87 0 87 79v14q0 80 -87 80h-77q-43 0 -43 33v18q0 33 43 33h51q47 0 68 32q14 20 14 48q0 33 -21 54
q-22 23 -61 23h-116q-80 0 -82 -72q-1 -40 -43 -40h-32q-42 0 -42 44q0 72 56 112q56 41 161 41h95q97 0 151 -48q46 -41 46 -106q0 -66 -55 -113z" />
    <glyph glyph-name="acute" unicode="&#xb4;" vert-adv-y="2457" 
d="M666 1145h-2q13 -19 13 -34q0 -28 -32 -46l-215 -121q-21 -12 -39 -12q-24 0 -40 24q-10 15 -10 30q0 28 26 50l184 162q18 16 36 16q26 0 46 -26z" />
    <glyph glyph-name="uni00B5" unicode="&#xb5;" horiz-adv-x="967" vert-adv-y="2457" 
d="M717 66q-58 -78 -211 -78q-98 0 -182 40q-20 9 -25 9q-24 0 -24 -23q0 -7 3 -23q7 -34 7 -64v-256q0 -58 -62 -58h-28q-62 0 -62 58v1093q0 57 62 57h28q62 0 62 -57v-524q0 -61 23 -82q20 -18 65 -18h182q48 0 68 22t20 78v524q0 57 62 57h28q62 0 62 -57v-522
q0 -60 22 -81q19 -17 64 -17h25q61 0 61 -56v-39q0 -57 -71 -57q-73 0 -115 17q-39 16 -64 57z" />
    <glyph glyph-name="paragraph" unicode="&#xb6;" horiz-adv-x="967" vert-adv-y="2457" 
d="M777 0h-44q-57 0 -57 51v1002q0 51 57 51h44q57 0 57 -51v-1002q0 -51 -57 -51zM403 586h-102q-109 0 -184 76q-76 75 -76 182q0 106 74 181q78 79 186 79h203q57 0 57 -51v-1002q0 -51 -57 -51h-44q-57 0 -57 51v535z" />
    <glyph glyph-name="periodcentered" unicode="&#xb7;" horiz-adv-x="467" vert-adv-y="2457" 
d="M262 481h-59q-70 0 -70 64v59q0 64 70 64h59q72 0 72 -64v-59q0 -64 -72 -64z" />
    <glyph glyph-name="cedilla" unicode="&#xb8;" horiz-adv-x="870" vert-adv-y="2457" 
d="M529 8l6 -57q2 -20 2 -32q0 -195 -236 -195h-37q-61 0 -61 57v29q0 55 61 55h62q40 0 55 16t15 82v45h133z" />
    <glyph glyph-name="uni00B9" unicode="&#xb9;" horiz-adv-x="700" vert-adv-y="2457" 
d="M425 714h111q41 0 41 -33v-19q0 -33 -41 -33h-336q-41 0 -41 33v19q0 33 41 33h116v317h-68q-41 0 -41 34v18q0 33 41 33h32q36 0 36 30v24q0 33 42 33h25q42 0 42 -33v-456z" />
    <glyph glyph-name="ordmasculine" unicode="&#xba;" horiz-adv-x="750" vert-adv-y="2457" 
d="M416 606h-83q-111 0 -155 48q-35 38 -35 116v170q0 86 44 125t146 39h83q111 0 155 -48q35 -38 35 -116v-170q0 -86 -44 -125t-146 -39zM500 762v182q0 36 -15 50q-14 12 -47 12h-127q-62 0 -62 -62v-182q0 -35 14 -48q14 -12 48 -12h127q37 0 50 14q12 13 12 46z
M555 440h-369q-43 0 -43 35v26q0 33 43 33h369q43 0 43 -33v-26q0 -35 -43 -35z" />
    <glyph glyph-name="guillemotright" unicode="&#xbb;" horiz-adv-x="702" vert-adv-y="2457" 
d="M472 430l-125 248q-2 4 -2 9v7q0 18 13 32q13 13 32 13h71q26 0 37 -22l103 -211q22 -47 22 -79q0 -36 -22 -81l-103 -203q-10 -20 -37 -20h-73q-21 0 -35 14q-13 13 -13 32q0 7 5 15zM197 430l-125 248q-4 8 -4 16q0 18 13 31q14 14 34 14h70q25 0 37 -22l104 -211
q23 -47 23 -79q0 -36 -23 -81l-104 -203q-11 -20 -37 -20h-74q-19 0 -32 13q-13 14 -13 32v5v2q0 6 2 9z" />
    <glyph glyph-name="onequarter" unicode="&#xbc;" horiz-adv-x="1342" vert-adv-y="2457" 
d="M1016 182h66q45 0 45 -35v-14q0 -36 -45 -36h-66v-65q0 -34 -42 -34h-24q-42 0 -42 34v65h-309q-46 0 -46 36v67q0 83 54 127l294 238q10 8 31 8h42q42 0 42 -33v-358zM908 182v266l-231 -188q-16 -13 -16 -49v-29h247zM395 714h111q41 0 41 -33v-19q0 -33 -41 -33h-336
q-41 0 -41 33v19q0 33 41 33h116v317h-68q-41 0 -41 34v18q0 33 41 33h32q36 0 36 30v24q0 33 42 33h25q42 0 42 -33v-456zM971 697l-581 -407q-18 -13 -25 -26t-7 -41l1 -32v-147q0 -49 -57 -49h-42q-57 0 -57 51v152q0 91 16.5 130.5t71.5 77.5l573 404q16 11 23 23
q6 13 6 48v7v6v156q0 49 58 49h40q58 0 58 -51v-146q0 -71 -8 -104q-15 -62 -70 -101z" />
    <glyph glyph-name="onehalf" unicode="&#xbd;" horiz-adv-x="1342" vert-adv-y="2457" 
d="M402 714h111q41 0 41 -33v-19q0 -33 -41 -33h-336q-41 0 -41 33v19q0 33 41 33h116v317h-68q-41 0 -41 34v18q0 33 41 33h32q36 0 36 30v24q0 33 42 33h25q42 0 42 -33v-456zM970 697l-580 -407q-32 -23 -32 -64v-14q1 -13 1 -21v-147q0 -49 -58 -49h-40q-58 0 -58 51
v152q0 77 9 110q16 54 79 98l572 404q16 11 23 23q6 13 6 48v7v6v156q0 49 57 49h42q57 0 57 -51v-146q0 -71 -8 -104q-14 -61 -70 -101zM868 85h400q41 0 41 -34v-18q0 -33 -41 -33h-466q-42 0 -42 33v102q0 160 226 160h111q88 0 88 94q0 102 -86 102h-131q-81 0 -83 -71
q-1 -40 -42 -40h-34q-43 0 -43 43q0 69 57 111q57 41 159 41h94q220 0 220 -184q0 -181 -221 -181h-120q-40 0 -64 -20q-23 -20 -23 -50v-55z" />
    <glyph glyph-name="threequarters" unicode="&#xbe;" horiz-adv-x="1342" vert-adv-y="2457" 
d="M1016 182h66q45 0 45 -35v-14q0 -36 -45 -36h-66v-65q0 -34 -42 -34h-24q-42 0 -42 34v65h-309q-46 0 -46 36v67q0 83 54 127l294 238q10 8 31 8h42q42 0 42 -33v-358zM908 182v266l-231 -188q-16 -13 -16 -49v-29h247zM971 697l-581 -407q-19 -13 -25 -26q-7 -13 -7 -41
l1 -32v-147q0 -49 -58 -49h-40q-58 0 -58 51v152q0 77 9 110q16 54 79 98l573 404q16 11 23 23q6 13 6 48v7v6v156q0 49 57 49h42q57 0 57 -51v-146q0 -71 -8 -104q-14 -62 -70 -101zM537 944q84 -46 84 -144q0 -93 -61 -138q-46 -35 -119 -35h-169q-115 0 -171 50
q-45 40 -45 105q0 43 42 43h32q27 0 36 -15q6 -10 7 -35q2 -63 83 -63h168q87 0 87 79v14q0 80 -87 80h-77q-43 0 -43 33v18q0 33 43 33h51q47 0 68 32q14 20 14 48q0 33 -21 54q-22 23 -61 23h-116q-80 0 -82 -72q-1 -40 -43 -40h-32q-42 0 -42 44q0 72 56 112
q56 41 161 41h95q97 0 151 -48q46 -41 46 -106q0 -66 -55 -113z" />
    <glyph glyph-name="questiondown" unicode="&#xbf;" horiz-adv-x="641" vert-adv-y="2457" 
d="M342 669h-35q-69 0 -69 64v33q0 65 69 65h35q72 0 72 -65v-33q0 -64 -72 -64zM375 -287h-144q-151 0 -215 70q-57 64 -57 202q0 142 59 203l205 209q21 21 21 78v18q0 55 59 55h31q39 0 54 -25q8 -13 8 -50q0 -117 -72 -191l-193 -197q-20 -20 -20 -79v-56q0 -60 22 -80
q20 -18 64 -18h211q48 0 63 26q7 12 8 44q2 59 68 59h28q66 0 66 -74q0 -79 -62 -133q-69 -61 -204 -61z" />
    <glyph glyph-name="Agrave" unicode="&#xc0;" horiz-adv-x="1028" vert-adv-y="2457" 
d="M522 1184l-215 116q-37 20 -37 54q0 21 14 41l35 49q22 31 52 31q24 0 44 -19l183 -166q31 -28 31 -56q0 -16 -10 -31q-21 -33 -51 -33q-21 0 -46 14zM219 254v-199q0 -55 -64 -55h-32q-62 0 -62 55v262q0 50 23 96l319 658q16 33 43 33h141q27 0 43 -33l315 -649
q23 -47 23 -94v-273q0 -55 -62 -55h-32q-64 0 -64 55v199h-591zM779 397q-24 52 -62 130q-135 279 -193 454h-17q-36 -108 -75 -199q-38 -87 -155 -329l-27 -56h529z" />
    <glyph glyph-name="Aacute" unicode="&#xc1;" horiz-adv-x="1028" vert-adv-y="2457" 
d="M749 1305l-215 -119q-25 -14 -47 -14q-27 0 -47 28q-13 19 -13 36q0 28 31 56l183 164q21 19 44 19q32 0 54 -31l31 -43q14 -20 14 -41q0 -36 -35 -55zM219 254v-199q0 -55 -64 -55h-32q-62 0 -62 55v262q0 50 23 96l319 658q16 33 43 33h141q27 0 43 -33l315 -649
q23 -47 23 -94v-273q0 -55 -62 -55h-32q-64 0 -64 55v199h-591zM779 397q-24 52 -62 130q-135 279 -193 454h-17q-36 -108 -75 -199q-38 -87 -155 -329l-27 -56h529z" />
    <glyph glyph-name="Acircumflex" unicode="&#xc2;" horiz-adv-x="1028" vert-adv-y="2457" 
d="M518 1292l-152 -88q-26 -15 -45 -15q-25 0 -45 27q-12 17 -12 34q0 29 30 55l183 155q19 17 41 17q21 0 41 -17l184 -157q30 -26 30 -56q0 -24 -19 -43q-18 -18 -40 -18q-19 0 -43 14zM219 254v-199q0 -55 -64 -55h-32q-62 0 -62 55v262q0 50 23 96l319 658q16 33 43 33
h141q27 0 43 -33l315 -649q23 -47 23 -94v-273q0 -55 -62 -55h-32q-64 0 -64 55v199h-591zM779 397q-24 52 -62 130q-135 279 -193 454h-17q-36 -108 -75 -199q-38 -87 -155 -329l-27 -56h529z" />
    <glyph glyph-name="Atilde" unicode="&#xc3;" horiz-adv-x="1028" vert-adv-y="2457" 
d="M264 1260l-27 18q-18 13 -18 38q0 20 18 44q48 62 112 94q40 19 78 19q75 0 163 -72q35 -29 55 -29q26 0 71 52q24 27 48 27q16 0 32 -13l25 -21q20 -17 20 -37q0 -19 -17 -41q-89 -115 -192 -115q-72 0 -163 73q-36 28 -56 28q-23 0 -54 -35q-38 -44 -64 -44
q-12 0 -31 14zM219 254v-199q0 -55 -64 -55h-32q-62 0 -62 55v262q0 50 23 96l319 658q16 33 43 33h141q27 0 43 -33l315 -649q23 -47 23 -94v-273q0 -55 -62 -55h-32q-64 0 -64 55v199h-591zM779 397q-24 52 -62 130q-135 279 -193 454h-17q-36 -108 -75 -199
q-38 -87 -155 -329l-27 -56h529z" />
    <glyph glyph-name="Adieresis" unicode="&#xc4;" horiz-adv-x="1049" vert-adv-y="2457" 
d="M753 1198h-57q-70 0 -70 64v57q0 63 70 63h57q72 0 72 -63v-57q0 -64 -72 -64zM340 1198h-58q-69 0 -69 64v57q0 63 69 63h58q71 0 71 -63v-57q0 -64 -71 -64zM219 254v-199q0 -55 -64 -55h-32q-62 0 -62 55v262q0 50 23 96l319 658q16 33 43 33h141q27 0 43 -33
l315 -649q23 -47 23 -94v-273q0 -55 -62 -55h-32q-64 0 -64 55v199h-591zM779 397q-24 52 -62 130q-135 279 -193 454h-17q-36 -108 -75 -199q-38 -87 -155 -329l-27 -56h529z" />
    <glyph glyph-name="Aring" unicode="&#xc5;" horiz-adv-x="1028" vert-adv-y="2457" 
d="M540 1153h-41q-176 0 -176 164q0 81 41 119q42 37 135 37h41q176 0 176 -157q0 -86 -44 -125q-42 -38 -132 -38zM585 1309v8q0 29 -13 41t-48 12h-8q-39 0 -51 -14q-11 -11 -11 -39v-8q0 -30 13 -42q14 -12 49 -12h8q37 0 51 15q10 12 10 39zM219 254v-199q0 -55 -64 -55
h-32q-62 0 -62 55v262q0 50 23 96l319 658q16 33 43 33h141q27 0 43 -33l315 -649q23 -47 23 -94v-273q0 -55 -62 -55h-32q-64 0 -64 55v199h-591zM779 397q-24 52 -62 130q-135 279 -193 454h-17q-36 -108 -75 -199q-38 -87 -155 -329l-27 -56h529z" />
    <glyph glyph-name="AE" unicode="&#xc6;" horiz-adv-x="1382" vert-adv-y="2457" 
d="M815 143h448q58 0 58 -51v-41q0 -51 -58 -51h-549q-57 0 -57 51v203h-438v-199q0 -55 -64 -55h-32q-62 0 -62 55v264q0 56 23 96l368 656q19 33 43 33h768q58 0 58 -51v-41q0 -51 -58 -51h-448v-316h248q55 0 55 -49v-43q0 -51 -55 -51h-248v-359zM659 397v564h-92
l-317 -564h409z" />
    <glyph glyph-name="Ccedilla" unicode="&#xc7;" horiz-adv-x="1106" vert-adv-y="2457" 
d="M515 -20h-41q-200 0 -285 94q-78 85 -78 270v416q0 200 94 286q84 76 269 76h198q194 0 284 -98q69 -75 69 -196q0 -44 -16 -58q-13 -12 -40 -12h-59q-54 0 -55 63q-4 158 -156 158h-272q-83 0 -121 -41q-35 -40 -35 -131v-512q0 -99 44 -138q37 -34 112 -34h270
q152 0 156 160q1 63 55 63h61q56 0 56 -69q0 -139 -89 -217q-90 -80 -264 -80h-16l4 -47q2 -22 2 -36q0 -192 -235 -192h-43q-62 0 -62 58v36q0 56 62 56h61q40 0 55 16t15 82v27z" />
    <glyph glyph-name="Egrave" unicode="&#xc8;" horiz-adv-x="1036" vert-adv-y="2457" 
d="M536 1184l-215 116q-36 20 -36 54q0 21 14 41l35 49q22 31 52 31q23 0 44 -19l182 -166q32 -29 32 -56q0 -16 -10 -31q-21 -33 -51 -33q-21 0 -47 14zM291 143h629q57 0 57 -51v-41q0 -51 -57 -51h-730q-57 0 -57 51v1002q0 51 57 51h730q57 0 57 -51v-41q0 -51 -57 -51
h-629v-316h393q55 0 55 -49v-43q0 -51 -55 -51h-393v-359z" />
    <glyph glyph-name="Eacute" unicode="&#xc9;" horiz-adv-x="1036" vert-adv-y="2457" 
d="M801 1305l-215 -119q-25 -14 -47 -14q-28 0 -48 28q-13 19 -13 36q0 28 32 56l182 164q21 19 45 19q31 0 53 -31l31 -43q15 -21 15 -41q0 -36 -35 -55zM291 143h629q57 0 57 -51v-41q0 -51 -57 -51h-730q-57 0 -57 51v1002q0 51 57 51h730q57 0 57 -51v-41q0 -51 -57 -51
h-629v-316h393q55 0 55 -49v-43q0 -51 -55 -51h-393v-359z" />
    <glyph glyph-name="Ecircumflex" unicode="&#xca;" horiz-adv-x="1036" vert-adv-y="2457" 
d="M559 1292l-152 -88q-26 -15 -45 -15q-25 0 -45 27q-12 17 -12 34q0 28 31 55l182 155q20 17 41 17t41 -17l184 -157q31 -27 31 -56q0 -24 -20 -43q-17 -18 -39 -18q-20 0 -43 14zM291 143h629q57 0 57 -51v-41q0 -51 -57 -51h-730q-57 0 -57 51v1002q0 51 57 51h730
q57 0 57 -51v-41q0 -51 -57 -51h-629v-316h393q55 0 55 -49v-43q0 -51 -55 -51h-393v-359z" />
    <glyph glyph-name="Edieresis" unicode="&#xcb;" horiz-adv-x="1036" vert-adv-y="2457" 
d="M815 1198h-57q-70 0 -70 64v57q0 63 70 63h57q72 0 72 -63v-57q0 -64 -72 -64zM354 1198h-57q-70 0 -70 64v57q0 63 70 63h57q72 0 72 -63v-57q0 -64 -72 -64zM291 143h629q57 0 57 -51v-41q0 -51 -57 -51h-730q-57 0 -57 51v1002q0 51 57 51h730q57 0 57 -51v-41
q0 -51 -57 -51h-629v-316h393q55 0 55 -49v-43q0 -51 -55 -51h-393v-359z" />
    <glyph glyph-name="Igrave" unicode="&#xcc;" horiz-adv-x="547" vert-adv-y="2457" 
d="M273 1184l-217 116q-35 19 -35 54q0 20 14 41l33 49q21 31 53 31q24 0 45 -19l182 -166q30 -27 30 -57q0 -18 -12 -35q-19 -28 -48 -28q-20 0 -45 14zM353 145h76q57 0 57 -51v-43q0 -51 -57 -51h-310q-57 0 -57 51v43q0 51 57 51h76v814h-76q-57 0 -57 51v43q0 51 57 51
h310q57 0 57 -51v-43q0 -51 -57 -51h-76v-814z" />
    <glyph glyph-name="Iacute" unicode="&#xcd;" horiz-adv-x="547" vert-adv-y="2457" 
d="M497 1305l-215 -119q-25 -14 -45 -14q-27 0 -47 28q-13 19 -13 36q0 28 31 56l183 164q21 19 44 19q32 0 54 -31l31 -43q14 -20 14 -40q0 -36 -37 -56zM352 145h76q57 0 57 -51v-43q0 -51 -57 -51h-310q-57 0 -57 51v43q0 51 57 51h76v814h-76q-57 0 -57 51v43
q0 51 57 51h310q57 0 57 -51v-43q0 -51 -57 -51h-76v-814z" />
    <glyph glyph-name="Icircumflex" unicode="&#xce;" horiz-adv-x="547" vert-adv-y="2457" 
d="M269 1292l-154 -88q-27 -15 -43 -15q-24 0 -42 21q-17 20 -17 40q0 29 30 55l185 155q20 17 39 17q23 0 43 -17l184 -157q28 -25 28 -55q0 -23 -19 -44q-16 -18 -39 -18q-18 0 -42 14zM353 145h76q57 0 57 -51v-43q0 -51 -57 -51h-310q-57 0 -57 51v43q0 51 57 51h76v814
h-76q-57 0 -57 51v43q0 51 57 51h310q57 0 57 -51v-43q0 -51 -57 -51h-76v-814z" />
    <glyph glyph-name="Idieresis" unicode="&#xcf;" horiz-adv-x="547" vert-adv-y="2457" 
d="M445 1198h-58q-69 0 -69 64v57q0 63 69 63h58q71 0 71 -63v-57q0 -64 -71 -64zM156 1198h-57q-70 0 -70 64v57q0 63 70 63h57q72 0 72 -63v-57q0 -64 -72 -64zM353 145h76q57 0 57 -51v-43q0 -51 -57 -51h-310q-57 0 -57 51v43q0 51 57 51h76v814h-76q-57 0 -57 51v43
q0 51 57 51h310q57 0 57 -51v-43q0 -51 -57 -51h-76v-814z" />
    <glyph glyph-name="Eth" unicode="&#xd0;" horiz-adv-x="1143" vert-adv-y="2457" 
d="M133 645v408q0 51 57 51h479q203 0 288 -95q77 -85 77 -267v-379q0 -201 -94 -287q-85 -76 -271 -76h-479q-57 0 -57 51v451h-33q-61 0 -61 55v33q0 55 61 55h33zM291 502v-359h428q82 0 119 42q36 39 36 130v474q0 98 -44 138q-37 34 -111 34h-428v-316h174q62 0 62 -55
v-33q0 -55 -62 -55h-174z" />
    <glyph glyph-name="Ntilde" unicode="&#xd1;" horiz-adv-x="1147" vert-adv-y="2457" 
d="M319 1260l-26 18q-19 13 -19 38q0 20 18 44q48 62 112 94q40 19 78 19q75 0 163 -72q35 -29 56 -29q26 0 71 52q24 27 47 27q17 0 33 -13l24 -21q20 -16 20 -37q0 -19 -17 -41q-89 -115 -192 -115q-71 0 -163 73q-36 28 -55 28q-23 0 -54 -35q-38 -44 -64 -44
q-12 0 -32 14zM958 0h-43q-57 0 -57 51v86q0 35 -16 51l-451 459q-12 13 -46 58q-19 26 -34 26q-30 0 -30 -32q0 -7 3 -24q7 -32 7 -58v-566q0 -51 -58 -51h-43q-57 0 -57 51v1002q0 51 57 51h43q58 0 58 -51v-55q0 -33 16 -50l451 -459q13 -13 37 -47q19 -26 24 -31
q7 -7 18 -7q31 0 31 32q0 7 -3 24q-7 32 -7 60v533q0 51 57 51h43q58 0 58 -51v-1002q0 -51 -58 -51z" />
    <glyph glyph-name="Ograve" unicode="&#xd2;" horiz-adv-x="1139" vert-adv-y="2457" 
d="M549 1184l-215 116q-36 20 -36 54q0 21 14 41l35 49q22 31 52 31q23 0 44 -19l182 -166q31 -28 31 -56q0 -16 -10 -31q-21 -33 -51 -33q-20 0 -46 14zM666 -20h-192q-201 0 -285 94q-78 86 -78 270v416q0 200 94 286q84 76 269 76h192q202 0 286 -94q77 -86 77 -268v-416
q0 -202 -96 -288q-84 -76 -267 -76zM869 295v512q0 99 -43 138q-37 34 -113 34h-286q-83 0 -121 -41q-35 -40 -35 -131v-512q0 -99 44 -138q37 -34 112 -34h286q98 0 134 60q22 39 22 112z" />
    <glyph glyph-name="Oacute" unicode="&#xd3;" horiz-adv-x="1139" vert-adv-y="2457" 
d="M799 1305l-215 -119q-25 -14 -46 -14q-29 0 -48 28q-12 18 -12 35q0 30 30 57l185 164q21 19 43 19q29 0 53 -31l33 -43q13 -18 13 -40q0 -37 -36 -56zM666 -20h-192q-201 0 -285 94q-78 86 -78 270v416q0 200 94 286q84 76 269 76h192q202 0 286 -94q77 -86 77 -268
v-416q0 -202 -96 -288q-84 -76 -267 -76zM869 295v512q0 99 -43 138q-37 34 -113 34h-286q-83 0 -121 -41q-35 -40 -35 -131v-512q0 -99 44 -138q37 -34 112 -34h286q98 0 134 60q22 39 22 112z" />
    <glyph glyph-name="Ocircumflex" unicode="&#xd4;" horiz-adv-x="1139" vert-adv-y="2457" 
d="M570 1292l-152 -88q-26 -15 -45 -15q-26 0 -45 27q-12 17 -12 34q0 28 31 55l182 155q19 17 41 17q21 0 41 -17l184 -157q30 -26 30 -56q0 -24 -20 -43q-17 -18 -39 -18q-19 0 -43 14zM666 -20h-192q-201 0 -285 94q-78 86 -78 270v416q0 200 94 286q84 76 269 76h192
q202 0 286 -94q77 -86 77 -268v-416q0 -202 -96 -288q-84 -76 -267 -76zM869 295v512q0 99 -43 138q-37 34 -113 34h-286q-83 0 -121 -41q-35 -40 -35 -131v-512q0 -99 44 -138q37 -34 112 -34h286q98 0 134 60q22 39 22 112z" />
    <glyph glyph-name="Otilde" unicode="&#xd5;" horiz-adv-x="1139" vert-adv-y="2457" 
d="M314 1260l-27 18q-18 13 -18 38q0 20 18 44q48 62 112 94q40 19 78 19q75 0 163 -72q35 -29 55 -29q26 0 71 52q24 27 48 27q16 0 32 -13l25 -21q20 -17 20 -37q0 -19 -17 -41q-89 -115 -192 -115q-72 0 -163 73q-36 28 -56 28q-23 0 -54 -35q-38 -44 -64 -44
q-12 0 -31 14zM666 -20h-192q-201 0 -285 94q-78 86 -78 270v416q0 200 94 286q84 76 269 76h192q202 0 286 -94q77 -86 77 -268v-416q0 -202 -96 -288q-84 -76 -267 -76zM869 295v512q0 99 -43 138q-37 34 -113 34h-286q-83 0 -121 -41q-35 -40 -35 -131v-512
q0 -99 44 -138q37 -34 112 -34h286q98 0 134 60q22 39 22 112z" />
    <glyph glyph-name="Odieresis" unicode="&#xd6;" horiz-adv-x="1139" vert-adv-y="2457" 
d="M830 1198h-57q-70 0 -70 64v57q0 63 70 63h57q72 0 72 -63v-57q0 -64 -72 -64zM369 1198h-57q-70 0 -70 64v57q0 63 70 63h57q72 0 72 -63v-57q0 -64 -72 -64zM666 -20h-192q-201 0 -285 94q-78 86 -78 270v416q0 200 94 286q84 76 269 76h192q202 0 286 -94
q77 -86 77 -268v-416q0 -202 -96 -288q-84 -76 -267 -76zM869 295v512q0 99 -43 138q-37 34 -113 34h-286q-83 0 -121 -41q-35 -40 -35 -131v-512q0 -99 44 -138q37 -34 112 -34h286q98 0 134 60q22 39 22 112z" />
    <glyph glyph-name="multiply" unicode="&#xd7;" horiz-adv-x="799" vert-adv-y="2457" 
d="M400 643l141 141q22 22 44 22q20 0 38 -18l20 -20q18 -18 18 -39t-22 -43l-141 -142l139 -139q21 -21 21 -44q0 -22 -17 -38l-24 -22q-20 -18 -37 -18q-23 0 -45 22l-137 137l-138 -137q-21 -21 -45 -21q-20 0 -37 17l-22 22q-17 17 -17 37q0 24 21 45l137 137l-135 134
q-21 20 -21 45q0 23 17 39l25 22q19 18 37 18q22 0 44 -22z" />
    <glyph glyph-name="Oslash" unicode="&#xd8;" horiz-adv-x="1139" vert-adv-y="2457" 
d="M920 1059q49 -42 73 -94q36 -78 36 -205v-416q0 -202 -96 -288q-85 -76 -267 -76h-192q-69 0 -117 10l-33 -63q-12 -25 -47 -25h-59q-44 0 -44 43q0 14 7 27l39 73q-109 88 -109 299v416q0 200 94 285q84 77 269 77h192q63 0 117 -8l37 65q14 25 47 25h57q44 0 44 -43
q0 -14 -7 -27zM427 123h286q98 0 134 60q22 39 22 112v512q0 70 -22 113zM713 979h-286q-83 0 -121 -41q-35 -40 -35 -131v-512q0 -72 23 -111z" />
    <glyph glyph-name="Ugrave" unicode="&#xd9;" horiz-adv-x="1137" vert-adv-y="2457" 
d="M547 1184l-215 116q-37 20 -37 54q0 20 14 41l35 49q22 31 52 31q24 0 44 -19l183 -166q31 -28 31 -56q0 -16 -10 -31q-21 -33 -51 -33q-21 0 -46 14zM651 -20h-155q-207 0 -295 97q-78 87 -78 267v709q0 51 57 51h43q58 0 58 -51v-758q0 -98 44 -138q38 -34 111 -34h266
q82 0 120 42q36 40 36 130v758q0 51 57 51h44q57 0 57 -51v-709q0 -201 -95 -288q-85 -76 -270 -76z" />
    <glyph glyph-name="Uacute" unicode="&#xda;" horiz-adv-x="1137" vert-adv-y="2457" 
d="M811 1305l-215 -119q-25 -14 -45 -14q-27 0 -47 28q-13 19 -13 36q0 28 31 56l183 164q21 19 43 19q29 0 53 -31l33 -43q14 -19 14 -40q0 -36 -37 -56zM651 -20h-155q-207 0 -295 97q-78 87 -78 267v709q0 51 57 51h43q58 0 58 -51v-758q0 -98 44 -138q38 -34 111 -34
h266q82 0 120 42q36 40 36 130v758q0 51 57 51h44q57 0 57 -51v-709q0 -201 -95 -288q-85 -76 -270 -76z" />
    <glyph glyph-name="Ucircumflex" unicode="&#xdb;" horiz-adv-x="1137" vert-adv-y="2457" 
d="M567 1292l-151 -88q-26 -15 -45 -15q-26 0 -45 27q-12 17 -12 34q0 29 30 55l182 155q20 17 41 17q22 0 41 -17l185 -157q30 -26 30 -56q0 -24 -20 -43q-17 -18 -39 -18q-20 0 -43 14zM651 -20h-155q-207 0 -295 97q-78 87 -78 267v709q0 51 57 51h43q58 0 58 -51v-758
q0 -98 44 -138q38 -34 111 -34h266q82 0 120 42q36 40 36 130v758q0 51 57 51h44q57 0 57 -51v-709q0 -201 -95 -288q-85 -76 -270 -76z" />
    <glyph glyph-name="Udieresis" unicode="&#xdc;" horiz-adv-x="1137" vert-adv-y="2457" 
d="M815 1198h-57q-70 0 -70 64v57q0 63 70 63h57q72 0 72 -63v-57q0 -64 -72 -64zM381 1198h-57q-70 0 -70 64v57q0 63 70 63h57q72 0 72 -63v-57q0 -64 -72 -64zM651 -20h-155q-207 0 -295 97q-78 87 -78 267v709q0 51 57 51h43q58 0 58 -51v-758q0 -98 44 -138
q38 -34 111 -34h266q82 0 120 42q36 40 36 130v758q0 51 57 51h44q57 0 57 -51v-709q0 -201 -95 -288q-85 -76 -270 -76z" />
    <glyph glyph-name="Yacute" unicode="&#xdd;" horiz-adv-x="1114" vert-adv-y="2457" 
d="M835 583v470q0 51 55 51h46q57 0 57 -51v-771q0 -137 -90 -217q-97 -85 -279 -85h-188q-231 0 -311 139q-33 58 -33 113q0 17 13 30q14 14 34 14h80q39 0 49 -47q23 -106 150 -106h257q72 0 116 44t44 115v158h-381q-201 0 -285 94q-77 85 -77 269v250q0 51 57 51h43
q58 0 58 -51v-300q0 -97 44 -136q37 -34 111 -34h430zM794 1404h-2q13 -18 13 -34q0 -28 -31 -46l-215 -121q-20 -11 -39 -11q-25 0 -41 24q-10 15 -10 30q0 26 26 49l185 162q18 16 36 16q26 0 46 -26z" />
    <glyph glyph-name="Thorn" unicode="&#xde;" horiz-adv-x="1098" vert-adv-y="2457" 
d="M291 901h381q200 0 287 -95q75 -82 75 -248q0 -185 -94 -269q-87 -78 -268 -78h-381v-160q0 -51 -58 -51h-43q-57 0 -57 51v1002q0 51 57 51h43q58 0 58 -51v-152zM291 354h424q83 0 120 41q36 40 36 131v60q0 98 -44 138q-37 34 -112 34h-424v-404z" />
    <glyph glyph-name="germandbls" unicode="&#xdf;" horiz-adv-x="928" vert-adv-y="2457" 
d="M715 756q80 -49 80 -171v-313q0 -150 -72 -214q-64 -58 -201 -58h-43q-61 0 -61 55v29q0 55 61 55h76q49 0 69 22q19 21 19 78v349q0 61 -23 82q-18 17 -65 18q-61 2 -61 55v29q0 53 61 55q51 2 69 22q19 22 19 77v49q0 60 -23 80q-19 18 -65 18h-182q-50 0 -69 -22
q-19 -21 -19 -76v-920q0 -55 -60 -55h-30q-62 0 -62 55v901q0 144 66 203q62 55 207 55h116q158 0 219 -67q54 -60 54 -190q0 -154 -80 -201z" />
    <glyph glyph-name="agrave" unicode="&#xe0;" vert-adv-y="2457" 
d="M412 944l-215 117q-31 17 -31 47q0 14 12 33l33 49q18 27 45 27q18 0 37 -17l182 -164q29 -25 29 -51q0 -13 -7 -25q-17 -28 -44 -28q-19 0 -41 12zM586 492q-1 1 -1 4q0 1 -1 7q-2 11 -2 26v73q0 49 -22 68q-20 18 -66 18h-146q-28 0 -41 -10q-9 -6 -18 -27
q-10 -21 -16 -26q-14 -13 -47 -13h-43q-60 0 -60 55q0 50 43 92q67 68 211 68h84q151 0 215 -71q58 -64 58 -201v-508q0 -61 -62 -61q-24 0 -59 19q-53 30 -96 30q-38 0 -92 -21q-61 -24 -110 -24q-112 0 -177 74q-66 75 -66 206q0 129 78 198q75 67 212 67q112 0 201 -35
q13 -5 23 -8zM582 240v43q0 61 -23 82q-20 18 -65 18h-182q-49 0 -69 -22q-19 -21 -19 -76v-45q0 -61 23 -82q20 -18 65 -18h182q57 0 75 31q13 21 13 69z" />
    <glyph glyph-name="aacute" unicode="&#xe1;" vert-adv-y="2457" 
d="M666 1145h-2q13 -19 13 -34q0 -28 -32 -46l-215 -121q-21 -12 -39 -12q-24 0 -40 24q-10 15 -10 30q0 28 26 50l184 162q18 16 36 16q26 0 46 -26zM586 492q-1 1 -1 4q0 1 -1 7q-2 11 -2 26v73q0 49 -22 68q-20 18 -66 18h-146q-28 0 -41 -10q-9 -6 -18 -27
q-10 -21 -16 -26q-14 -13 -47 -13h-43q-60 0 -60 55q0 50 43 92q67 68 211 68h84q151 0 215 -71q58 -64 58 -201v-508q0 -61 -62 -61q-24 0 -59 19q-53 30 -96 30q-38 0 -92 -21q-61 -24 -110 -24q-112 0 -177 74q-66 75 -66 206q0 129 78 198q75 67 212 67q112 0 201 -35
q13 -5 23 -8zM582 240v43q0 61 -23 82q-20 18 -65 18h-182q-49 0 -69 -22q-19 -21 -19 -76v-45q0 -61 23 -82q20 -18 65 -18h182q57 0 75 31q13 21 13 69z" />
    <glyph glyph-name="acircumflex" unicode="&#xe2;" vert-adv-y="2457" 
d="M437 1034l-158 -92q-21 -12 -38 -12q-23 0 -38 19q-16 20 -16 36q0 26 28 49l185 154q18 15 35 15q19 0 36 -15l185 -158q27 -23 27 -48q0 -19 -18 -40q-14 -16 -33 -16q-17 0 -40 14zM586 492q-1 1 -1 4q0 1 -1 7q-2 11 -2 26v73q0 49 -22 68q-20 18 -66 18h-146
q-28 0 -41 -10q-9 -6 -18 -27q-10 -21 -16 -26q-14 -13 -47 -13h-43q-60 0 -60 55q0 50 43 92q67 68 211 68h84q151 0 215 -71q58 -64 58 -201v-508q0 -61 -62 -61q-24 0 -59 19q-53 30 -96 30q-38 0 -92 -21q-61 -24 -110 -24q-112 0 -177 74q-66 75 -66 206q0 129 78 198
q75 67 212 67q112 0 201 -35q13 -5 23 -8zM582 240v43q0 61 -23 82q-20 18 -65 18h-182q-49 0 -69 -22q-19 -21 -19 -76v-45q0 -61 23 -82q20 -18 65 -18h182q57 0 75 31q13 21 13 69z" />
    <glyph glyph-name="atilde" unicode="&#xe3;" vert-adv-y="2457" 
d="M176 987l-24 21q-18 15 -18 34q0 17 18 39q86 110 186 110q67 0 158 -71q36 -28 59 -28q26 0 74 53q23 25 45 25q15 0 29 -11l26 -20q17 -13 17 -34q0 -18 -17 -40q-47 -61 -111 -93q-37 -19 -76 -19q-69 0 -159 71q-38 30 -60 30q-25 0 -57 -36q-36 -41 -60 -41
q-17 0 -30 10zM586 492q-1 1 -1 4q0 1 -1 7q-2 11 -2 26v73q0 49 -22 68q-20 18 -66 18h-146q-28 0 -41 -10q-9 -6 -18 -27q-10 -21 -16 -26q-14 -13 -47 -13h-43q-60 0 -60 55q0 50 43 92q67 68 211 68h84q151 0 215 -71q58 -64 58 -201v-508q0 -61 -62 -61q-24 0 -59 19
q-53 30 -96 30q-38 0 -92 -21q-61 -24 -110 -24q-112 0 -177 74q-66 75 -66 206q0 129 78 198q75 67 212 67q112 0 201 -35q13 -5 23 -8zM582 240v43q0 61 -23 82q-20 18 -65 18h-182q-49 0 -69 -22q-19 -21 -19 -76v-45q0 -61 23 -82q20 -18 65 -18h182q57 0 75 31
q13 21 13 69z" />
    <glyph glyph-name="adieresis" unicode="&#xe4;" vert-adv-y="2457" 
d="M604 957h-34q-70 0 -70 63v35q0 63 70 63h34q72 0 72 -63v-35q0 -63 -72 -63zM275 957h-35q-70 0 -70 63v35q0 63 70 63h35q71 0 71 -63v-35q0 -63 -71 -63zM586 492q-1 1 -1 4q0 1 -1 7q-2 11 -2 26v73q0 49 -22 68q-20 18 -66 18h-146q-28 0 -41 -10q-9 -6 -18 -27
q-10 -21 -16 -26q-14 -13 -47 -13h-43q-60 0 -60 55q0 50 43 92q67 68 211 68h84q151 0 215 -71q58 -64 58 -201v-508q0 -61 -62 -61q-24 0 -59 19q-53 30 -96 30q-38 0 -92 -21q-61 -24 -110 -24q-112 0 -177 74q-66 75 -66 206q0 129 78 198q75 67 212 67q112 0 201 -35
q13 -5 23 -8zM582 240v43q0 61 -23 82q-20 18 -65 18h-182q-49 0 -69 -22q-19 -21 -19 -76v-45q0 -61 23 -82q20 -18 65 -18h182q57 0 75 31q13 21 13 69z" />
    <glyph glyph-name="aring" unicode="&#xe5;" vert-adv-y="2457" 
d="M453 893h-41q-176 0 -176 164q0 81 41 118q42 37 135 37h41q176 0 176 -156q0 -86 -44 -126q-42 -37 -132 -37zM498 1049v8q0 29 -13 41q-14 12 -48 12h-9q-38 0 -51 -14q-10 -12 -10 -39v-8q0 -30 13 -42t48 -12h9q37 0 50 15q11 12 11 39zM586 492q-1 1 -1 4q0 1 -1 7
q-2 11 -2 26v73q0 49 -22 68q-20 18 -66 18h-146q-28 0 -41 -10q-9 -6 -18 -27q-10 -21 -16 -26q-14 -13 -47 -13h-43q-60 0 -60 55q0 50 43 92q67 68 211 68h84q151 0 215 -71q58 -64 58 -201v-508q0 -61 -62 -61q-24 0 -59 19q-53 30 -96 30q-38 0 -92 -21
q-61 -24 -110 -24q-112 0 -177 74q-66 75 -66 206q0 129 78 198q75 67 212 67q112 0 201 -35q13 -5 23 -8zM582 240v43q0 61 -23 82q-20 18 -65 18h-182q-49 0 -69 -22q-19 -21 -19 -76v-45q0 -61 23 -82q20 -18 65 -18h182q57 0 75 31q13 21 13 69z" />
    <glyph glyph-name="ae" unicode="&#xe6;" horiz-adv-x="1325" vert-adv-y="2457" 
d="M658 774q70 53 197 53h117q272 0 272 -271q0 -257 -240 -257h-270v-94q0 -66 88 -66h170q29 0 42 10q9 6 18 27q10 24 22.5 31.5t40.5 7.5h41q59 0 59 -55q0 -49 -43 -92q-67 -68 -211 -68h-114q-114 0 -189 59q-76 -59 -191 -59h-151q-117 0 -181 71q-63 71 -63 198
q0 129 78 199q75 67 212 67q112 0 201 -35q13 -5 23 -8q-1 1 -1 4q0 1 -1 6q-2 12 -2 27v73q0 49 -22 68q-20 18 -66 18h-146q-28 0 -41 -10q-9 -6 -18 -27q-10 -21 -16 -26q-14 -13 -47 -13h-43q-60 0 -60 55q0 50 43 92q67 68 211 68h84q126 0 197 -53zM734 438h268
q58 0 76 31q12 22 12 68v51q0 61 -23 82q-20 18 -65 18h-180q-48 0 -68 -22t-20 -78v-150zM582 239v44q0 61 -23 82q-20 18 -65 18h-182q-49 0 -69 -22q-19 -22 -19 -76v-46q0 -61 23 -82q20 -18 65 -18h182q57 0 75 31q13 21 13 69z" />
    <glyph glyph-name="ccedilla" unicode="&#xe7;" horiz-adv-x="870" vert-adv-y="2457" 
d="M396 0h-10q-151 0 -215 71q-58 64 -58 201v283q0 150 71 214q64 58 202 58h129q148 0 218 -76q48 -52 48 -121q0 -71 -65 -71h-29q-66 0 -68 59q-1 31 -8 44q-16 26 -63 26h-195q-48 0 -68 -22t-20 -78v-349q0 -61 24 -82q20 -18 64 -18h195q47 0 63 26q7 13 8 44
q2 59 68 59h29q65 0 65 -73q0 -77 -61 -132q-41 -38 -99 -52q-30 -7 -90 -11l4 -49q2 -20 2 -31q0 -197 -235 -197h-37q-62 0 -62 58v28q0 56 62 56h61q41 0 56 16q14 16 14 82v37z" />
    <glyph glyph-name="egrave" unicode="&#xe8;" vert-adv-y="2457" 
d="M447 944l-215 117q-31 17 -31 47q0 14 12 33l33 49q18 27 45 27q18 0 37 -17l182 -164q29 -25 29 -51q0 -13 -7 -25q-17 -28 -45 -28q-18 0 -40 12zM263 336v-4q2 -12 2 -33v-74q0 -48 22 -68q20 -18 66 -18h170q29 0 42 10q9 6 18 27q11 27 25 33t38 6h41q59 0 59 -55
q0 -49 -42 -92q-68 -68 -212 -68h-106q-151 0 -215 71q-58 64 -58 202v290q0 143 71 206q64 58 202 58h117q272 0 272 -268q0 -129 -77 -198q-76 -68 -216 -68q-109 0 -199 36q-10 4 -20 7zM621 543v45q0 61 -23 82q-20 18 -65 18h-180q-48 0 -68 -22t-20 -78v-43
q0 -61 24 -82q20 -18 64 -18h180q58 0 76 31q12 21 12 67z" />
    <glyph glyph-name="eacute" unicode="&#xe9;" vert-adv-y="2457" 
d="M707 1145h-2q13 -19 13 -34q0 -28 -32 -46l-215 -121q-21 -12 -39 -12q-24 0 -40 24q-10 15 -10 30q0 28 26 50l184 162q18 16 36 16q26 0 46 -26zM263 336v-4q2 -12 2 -33v-74q0 -48 22 -68q20 -18 66 -18h170q29 0 42 10q9 6 18 27q11 27 25 33t38 6h41q59 0 59 -55
q0 -49 -42 -92q-68 -68 -212 -68h-106q-151 0 -215 71q-58 64 -58 202v290q0 143 71 206q64 58 202 58h117q272 0 272 -268q0 -129 -77 -198q-76 -68 -216 -68q-109 0 -199 36q-10 4 -20 7zM621 543v45q0 61 -23 82q-20 18 -65 18h-180q-48 0 -68 -22t-20 -78v-43
q0 -61 24 -82q20 -18 64 -18h180q58 0 76 31q12 21 12 67z" />
    <glyph glyph-name="ecircumflex" unicode="&#xea;" vert-adv-y="2457" 
d="M447 1034l-158 -92q-20 -12 -38 -12q-22 0 -37 19q-16 20 -16 36q0 26 28 49l184 154q18 15 36 15t36 -15l184 -158q28 -24 28 -48q0 -19 -18 -40q-14 -16 -33 -16q-17 0 -41 14zM263 336v-4q2 -12 2 -33v-74q0 -48 22 -68q20 -18 66 -18h170q29 0 42 10q9 6 18 27
q11 27 25 33t38 6h41q59 0 59 -55q0 -49 -42 -92q-68 -68 -212 -68h-106q-151 0 -215 71q-58 64 -58 202v290q0 143 71 206q64 58 202 58h117q272 0 272 -268q0 -129 -77 -198q-76 -68 -216 -68q-109 0 -199 36q-10 4 -20 7zM621 543v45q0 61 -23 82q-20 18 -65 18h-180
q-48 0 -68 -22t-20 -78v-43q0 -61 24 -82q20 -18 64 -18h180q58 0 76 31q12 21 12 67z" />
    <glyph glyph-name="edieresis" unicode="&#xeb;" vert-adv-y="2457" 
d="M627 957h-35q-69 0 -69 63v35q0 63 69 63h35q72 0 72 -63v-35q0 -63 -72 -63zM297 957h-34q-70 0 -70 63v35q0 63 70 63h34q72 0 72 -63v-35q0 -63 -72 -63zM263 336v-4q2 -12 2 -33v-74q0 -48 22 -68q20 -18 66 -18h170q29 0 42 10q9 6 18 27q11 27 25 33t38 6h41
q59 0 59 -55q0 -49 -42 -92q-68 -68 -212 -68h-106q-151 0 -215 71q-58 64 -58 202v290q0 143 71 206q64 58 202 58h117q272 0 272 -268q0 -129 -77 -198q-76 -68 -216 -68q-109 0 -199 36q-10 4 -20 7zM621 543v45q0 61 -23 82q-20 18 -65 18h-180q-48 0 -68 -22t-20 -78
v-43q0 -61 24 -82q20 -18 64 -18h180q58 0 76 31q12 21 12 67z" />
    <glyph glyph-name="igrave" unicode="&#xec;" horiz-adv-x="444" vert-adv-y="2457" 
d="M254 944l-217 117q-30 16 -30 46q0 16 12 34l33 49q18 27 44 27q21 0 39 -17l183 -164q26 -23 26 -50q0 -14 -7 -26q-17 -28 -43 -28q-17 0 -40 12zM160 682h-68q-61 0 -61 55v29q0 55 61 55h158q62 0 62 -55v-711q0 -55 -62 -55h-28q-62 0 -62 55v627z" />
    <glyph glyph-name="iacute" unicode="&#xed;" horiz-adv-x="444" vert-adv-y="2457" 
d="M449 1065l-215 -121q-22 -12 -41 -12t-34 15q-17 18 -17 39q0 25 28 50l183 162q18 16 36 16q25 0 45 -26l33 -43q11 -14 11 -33q0 -31 -29 -47zM160 682h-68q-61 0 -61 55v29q0 55 61 55h158q62 0 62 -55v-711q0 -55 -62 -55h-28q-62 0 -62 55v627z" />
    <glyph glyph-name="icircumflex" unicode="&#xee;" horiz-adv-x="444" vert-adv-y="2457" 
d="M219 1034l-155 -92q-23 -13 -40 -13q-20 0 -36 19t-16 37q0 26 28 49l182 154q18 15 37 15t37 -15l184 -158q28 -23 28 -49q0 -15 -11 -30q-17 -25 -41 -25q-16 0 -39 14zM160 682h-68q-61 0 -61 55v29q0 55 61 55h158q62 0 62 -55v-711q0 -55 -62 -55h-28q-62 0 -62 55
v627z" />
    <glyph glyph-name="idieresis" unicode="&#xef;" horiz-adv-x="444" vert-adv-y="2457" 
d="M365 957h-35q-70 0 -70 63v35q0 63 70 63h35q71 0 71 -63v-35q0 -63 -71 -63zM102 957h-34q-70 0 -70 63v35q0 63 70 63h34q72 0 72 -63v-35q0 -63 -72 -63zM160 682h-68q-61 0 -61 55v29q0 55 61 55h158q62 0 62 -55v-711q0 -55 -62 -55h-28q-62 0 -62 55v627z" />
    <glyph glyph-name="eth" unicode="&#xf0;" horiz-adv-x="920" vert-adv-y="2457" 
d="M518 0h-116q-151 0 -215 71q-58 64 -58 201v287q0 281 283 281q108 0 190 -42q17 -8 23 -8q24 0 24 23q0 7 -3 25q-7 35 -7 63v74q0 60 -23 80q-19 18 -65 18h-76q-61 0 -61 55v29q0 57 61 57h43q150 0 214 -70q59 -65 59 -204v-668q0 -150 -72 -214q-64 -58 -201 -58z
M639 239v349q0 61 -23 82q-20 18 -65 18h-182q-48 0 -68 -22t-20 -78v-349q0 -61 24 -82q20 -18 64 -18h182q57 0 75 31q13 21 13 69z" />
    <glyph glyph-name="ntilde" unicode="&#xf1;" horiz-adv-x="918" vert-adv-y="2457" 
d="M196 987l-24 21q-18 15 -18 34q0 17 18 39q87 110 186 110q67 0 158 -71q36 -28 59 -28q26 0 74 53q23 25 45 25q15 0 29 -11l26 -20q17 -13 17 -34q0 -18 -17 -40q-47 -61 -111 -93q-37 -19 -76 -19q-69 0 -159 71q-38 30 -60 30q-25 0 -57 -36q-36 -41 -60 -41
q-17 0 -30 10zM733 0h-28q-62 0 -62 55v531q0 59 -23 80q-20 18 -65 18h-182q-48 0 -69 -22q-19 -22 -19 -76v-531q0 -55 -60 -55h-30q-62 0 -62 55v721q0 62 62 62q24 0 59 -21q50 -29 97 -29q37 0 91 21q63 25 110 25q110 0 178 -75q65 -72 65 -200v-504q0 -55 -62 -55z
" />
    <glyph glyph-name="ograve" unicode="&#xf2;" horiz-adv-x="887" vert-adv-y="2457" 
d="M447 944l-215 117q-31 17 -31 47q0 14 12 33l33 49q18 27 45 27q18 0 37 -17l182 -164q29 -25 29 -51q0 -13 -7 -25q-17 -28 -45 -28q-18 0 -40 12zM502 0h-116q-151 0 -215 71q-58 64 -58 201v283q0 150 71 214q64 58 202 58h116q151 0 215 -71q58 -64 58 -201v-283
q0 -150 -72 -214q-64 -58 -201 -58zM623 239v349q0 61 -23 82q-20 18 -65 18h-182q-48 0 -68 -22t-20 -78v-349q0 -61 24 -82q20 -18 64 -18h182q57 0 75 31q13 21 13 69z" />
    <glyph glyph-name="oacute" unicode="&#xf3;" horiz-adv-x="887" vert-adv-y="2457" 
d="M699 1065l-215 -121q-22 -12 -38 -12q-22 0 -38 18q-14 17 -14 36q0 27 26 50l185 162q18 16 35 16q26 0 46 -26l33 -43q11 -14 11 -33q0 -29 -31 -47zM502 0h-116q-151 0 -215 71q-58 64 -58 201v283q0 150 71 214q64 58 202 58h116q151 0 215 -71q58 -64 58 -201v-283
q0 -150 -72 -214q-64 -58 -201 -58zM623 239v349q0 61 -23 82q-20 18 -65 18h-182q-48 0 -68 -22t-20 -78v-349q0 -61 24 -82q20 -18 64 -18h182q57 0 75 31q13 21 13 69z" />
    <glyph glyph-name="ocircumflex" unicode="&#xf4;" horiz-adv-x="887" vert-adv-y="2457" 
d="M449 1034l-158 -92q-20 -12 -38 -12q-22 0 -37 19q-16 20 -16 36q0 26 28 49l184 154q18 15 36 15t36 -15l184 -158q28 -24 28 -48q0 -20 -18 -40q-14 -16 -33 -16q-17 0 -40 14zM502 0h-116q-151 0 -215 71q-58 64 -58 201v283q0 150 71 214q64 58 202 58h116
q151 0 215 -71q58 -64 58 -201v-283q0 -150 -72 -214q-64 -58 -201 -58zM623 239v349q0 61 -23 82q-20 18 -65 18h-182q-48 0 -68 -22t-20 -78v-349q0 -61 24 -82q20 -18 64 -18h182q57 0 75 31q13 21 13 69z" />
    <glyph glyph-name="otilde" unicode="&#xf5;" horiz-adv-x="887" vert-adv-y="2457" 
d="M191 987l-25 21q-17 14 -17 34q0 17 18 39q86 110 185 110q68 0 158 -71q37 -28 60 -28q25 0 73 53q23 25 46 25q14 0 28 -11l27 -20q17 -13 17 -34q0 -18 -17 -40q-47 -61 -111 -93q-38 -19 -76 -19q-69 0 -159 71q-39 30 -60 30q-26 0 -73 -54q-20 -23 -44 -23
q-18 0 -30 10zM502 0h-116q-151 0 -215 71q-58 64 -58 201v283q0 150 71 214q64 58 202 58h116q151 0 215 -71q58 -64 58 -201v-283q0 -150 -72 -214q-64 -58 -201 -58zM623 239v349q0 61 -23 82q-20 18 -65 18h-182q-48 0 -68 -22t-20 -78v-349q0 -61 24 -82q20 -18 64 -18
h182q57 0 75 31q13 21 13 69z" />
    <glyph glyph-name="odieresis" unicode="&#xf6;" horiz-adv-x="887" vert-adv-y="2457" 
d="M668 957h-35q-69 0 -69 63v35q0 63 69 63h35q72 0 72 -63v-35q0 -63 -72 -63zM275 957h-35q-70 0 -70 63v35q0 63 70 63h35q71 0 71 -63v-35q0 -63 -71 -63zM502 0h-116q-151 0 -215 71q-58 64 -58 201v283q0 150 71 214q64 58 202 58h116q151 0 215 -71q58 -64 58 -201
v-283q0 -150 -72 -214q-64 -58 -201 -58zM623 239v349q0 61 -23 82q-20 18 -65 18h-182q-48 0 -68 -22t-20 -78v-349q0 -61 24 -82q20 -18 64 -18h182q57 0 75 31q13 21 13 69z" />
    <glyph glyph-name="divide" unicode="&#xf7;" horiz-adv-x="799" vert-adv-y="2457" 
d="M432 733h-63q-61 0 -61 55v60q0 55 61 55h63q62 0 62 -55v-60q0 -55 -62 -55zM623 475h-449q-61 0 -61 55v29q0 55 61 55h449q61 0 61 -55v-29q0 -55 -61 -55zM432 190h-63q-61 0 -61 56v61q0 55 61 55h63q62 0 62 -55v-61q0 -56 -62 -56z" />
    <glyph glyph-name="oslash" unicode="&#xf8;" horiz-adv-x="887" vert-adv-y="2457" 
d="M709 764q66 -69 66 -209v-283q0 -150 -71 -214q-64 -58 -202 -58h-116q-34 0 -74 4l-41 -78q-13 -24 -43 -24h-47q-20 0 -34 11q-19 15 -19 38q0 10 5 20l48 90q-68 70 -68 211v283q0 150 71 214q64 58 202 58h116q40 0 78 -6l37 74q13 24 43 24h47q18 0 33 -11
q19 -15 19 -38q0 -12 -4 -20zM630 625l-249 -486h154q48 0 68 21q19 22 20 79zM509 688h-156q-48 0 -69 -22q-18 -21 -19 -78l-6 -388z" />
    <glyph glyph-name="ugrave" unicode="&#xf9;" horiz-adv-x="918" vert-adv-y="2457" 
d="M455 944l-215 117q-31 17 -31 47q0 14 12 33l33 49q18 27 45 27q18 0 37 -17l182 -164q29 -25 29 -51q0 -13 -8 -25q-16 -28 -44 -28q-18 0 -40 12zM123 265v501q0 55 62 55h30q60 0 60 -55v-526q0 -61 24 -82q20 -18 64 -18h182q49 0 69 22q19 21 19 78v526q0 55 62 55
h28q62 0 62 -55v-719q0 -61 -62 -61q-24 0 -59 19q-53 30 -96 30q-38 0 -92 -21q-60 -24 -109 -24q-112 0 -179 75q-65 73 -65 200z" />
    <glyph glyph-name="uacute" unicode="&#xfa;" horiz-adv-x="918" vert-adv-y="2457" 
d="M703 1065l-215 -121q-22 -12 -41 -12q-22 0 -39 24q-12 17 -12 31q0 24 28 49l182 162q18 16 38 16q28 0 46 -26l31 -43q13 -18 13 -34q0 -28 -31 -46zM123 265v501q0 55 62 55h30q60 0 60 -55v-526q0 -61 24 -82q20 -18 64 -18h182q49 0 69 22q19 21 19 78v526
q0 55 62 55h28q62 0 62 -55v-719q0 -61 -62 -61q-24 0 -59 19q-53 30 -96 30q-38 0 -92 -21q-60 -24 -109 -24q-112 0 -179 75q-65 73 -65 200z" />
    <glyph glyph-name="ucircumflex" unicode="&#xfb;" horiz-adv-x="918" vert-adv-y="2457" 
d="M459 1034l-158 -92q-20 -12 -38 -12q-22 0 -37 19q-16 20 -16 36q0 26 28 49l184 154q18 15 36 15t36 -15l184 -158q28 -24 28 -48q0 -20 -18 -40q-14 -16 -33 -16q-17 0 -40 14zM123 265v501q0 55 62 55h30q60 0 60 -55v-526q0 -61 24 -82q20 -18 64 -18h182q49 0 69 22
q19 21 19 78v526q0 55 62 55h28q62 0 62 -55v-719q0 -61 -62 -61q-24 0 -59 19q-53 30 -96 30q-38 0 -92 -21q-60 -24 -109 -24q-112 0 -179 75q-65 73 -65 200z" />
    <glyph glyph-name="udieresis" unicode="&#xfc;" horiz-adv-x="918" vert-adv-y="2457" 
d="M658 957h-35q-70 0 -70 63v35q0 63 70 63h35q71 0 71 -63v-35q0 -63 -71 -63zM301 957h-35q-69 0 -69 63v35q0 63 69 63h35q72 0 72 -63v-35q0 -63 -72 -63zM123 265v501q0 55 62 55h30q60 0 60 -55v-526q0 -61 24 -82q20 -18 64 -18h182q49 0 69 22q19 21 19 78v526
q0 55 62 55h28q62 0 62 -55v-719q0 -61 -62 -61q-24 0 -59 19q-53 30 -96 30q-38 0 -92 -21q-60 -24 -109 -24q-112 0 -179 75q-65 73 -65 200z" />
    <glyph glyph-name="yacute" unicode="&#xfd;" horiz-adv-x="901" vert-adv-y="2457" 
d="M496 -393h-72q-147 0 -217 76q-49 52 -49 121q0 73 68 73h29q63 0 66 -74q1 -55 69 -55h140q48 0 67 21t19 78v73q0 30 7 63q3 19 3 24q0 24 -22 24q-7 0 -22 -8q-76 -41 -189 -41q-284 0 -284 281v503q0 55 60 55h30q62 0 62 -55v-532q0 -62 23 -83q19 -17 63 -17h183
q47 0 67 21q19 22 19 79v532q0 55 62 55h30q60 0 60 -55v-885q0 -152 -72 -217q-64 -57 -200 -57zM689 1145h-2q12 -19 12 -34q0 -29 -31 -46l-215 -121q-22 -12 -39 -12q-25 0 -41 24q-10 15 -10 30q0 27 27 50l184 162q18 16 36 16q26 0 46 -26z" />
    <glyph glyph-name="thorn" unicode="&#xfe;" horiz-adv-x="897" vert-adv-y="2457" 
d="M275 -73v-256q0 -58 -60 -58h-30q-62 0 -62 58v1486q0 58 62 58h30q60 0 60 -58v-256q0 -27 -5 -63q-3 -17 -3 -25q0 -23 22 -23q7 0 22 8q76 42 190 42q284 0 284 -281v-290q0 -281 -283 -281q-109 0 -191 41q-17 8 -22 8q-22 0 -22 -23q0 -8 3 -23q5 -33 5 -64z
M633 240v348q0 61 -23 82q-20 18 -65 18h-182q-48 0 -68 -22t-20 -78v-348q0 -61 24 -82q20 -18 64 -18h182q57 0 75 31q13 21 13 69z" />
    <glyph glyph-name="ydieresis" unicode="&#xff;" horiz-adv-x="901" vert-adv-y="2457" 
d="M658 957h-35q-70 0 -70 63v35q0 63 70 63h35q72 0 72 -63v-35q0 -63 -72 -63zM265 957h-35q-70 0 -70 63v35q0 63 70 63h35q71 0 71 -63v-35q0 -63 -71 -63zM496 -393h-72q-147 0 -217 76q-49 52 -49 121q0 73 68 73h29q63 0 66 -74q1 -55 69 -55h140q48 0 67 21t19 78
v73q0 30 7 63q3 19 3 24q0 24 -22 24q-7 0 -22 -8q-76 -41 -189 -41q-284 0 -284 281v503q0 55 60 55h30q62 0 62 -55v-532q0 -62 23 -83q19 -17 63 -17h183q47 0 67 21q19 22 19 79v532q0 55 62 55h30q60 0 60 -55v-885q0 -152 -72 -217q-64 -57 -200 -57z" />
    <glyph glyph-name="Amacron" unicode="&#x100;" horiz-adv-x="1028" vert-adv-y="2457" 
d="M219 254v-199q0 -55 -64 -55h-32q-62 0 -62 55v262q0 50 23 96l319 658q16 33 43 33h141q27 0 43 -33l315 -649q23 -47 23 -94v-273q0 -55 -62 -55h-32q-64 0 -64 55v199h-591zM779 397q-24 52 -62 130q-135 279 -193 454h-17q-36 -108 -75 -199q-38 -87 -155 -329
l-27 -56h529zM709 1197h-387q-61 0 -61 55v27q0 55 61 55h387q62 0 62 -55v-27q0 -55 -62 -55z" />
    <glyph glyph-name="amacron" unicode="&#x101;" vert-adv-y="2457" 
d="M586 492q-1 1 -1 4q0 1 -1 7q-2 11 -2 26v73q0 49 -22 68q-20 18 -66 18h-146q-28 0 -41 -10q-9 -6 -18 -27q-10 -21 -16 -26q-14 -13 -47 -13h-43q-60 0 -60 55q0 50 43 92q67 68 211 68h84q151 0 215 -71q58 -64 58 -201v-508q0 -61 -62 -61q-24 0 -59 19
q-53 30 -96 30q-38 0 -92 -21q-61 -24 -110 -24q-112 0 -177 74q-66 75 -66 206q0 129 78 198q75 67 212 67q112 0 201 -35q13 -5 23 -8zM582 240v43q0 61 -23 82q-20 18 -65 18h-182q-49 0 -69 -22q-19 -21 -19 -76v-45q0 -61 23 -82q20 -18 65 -18h182q57 0 75 31
q13 21 13 69zM624 929h-387q-62 0 -62 55v27q0 55 62 55h387q61 0 61 -55v-27q0 -55 -61 -55z" />
    <glyph glyph-name="Abreve" unicode="&#x102;" horiz-adv-x="1028" vert-adv-y="2457" 
d="M219 254v-199q0 -55 -64 -55h-32q-62 0 -62 55v262q0 50 23 96l319 658q16 33 43 33h141q27 0 43 -33l315 -649q23 -47 23 -94v-273q0 -55 -62 -55h-32q-64 0 -64 55v199h-591zM779 397q-24 52 -62 130q-135 279 -193 454h-17q-36 -108 -75 -199q-38 -87 -155 -329
l-27 -56h529zM324 1416q22 0 62 -31q55 -41 128 -41t149 57q21 15 42 15q22 0 37 -14q18 -17 18 -41q0 -35 -41 -78q-84 -89 -206 -89q-121 0 -201 85q-43 46 -43 81q0 19 10 33q16 23 45 23z" />
    <glyph glyph-name="abreve" unicode="&#x103;" vert-adv-y="2457" 
d="M586 492q-1 1 -1 4q0 1 -1 7q-2 11 -2 26v73q0 49 -22 68q-20 18 -66 18h-146q-28 0 -41 -10q-9 -6 -18 -27q-10 -21 -16 -26q-14 -13 -47 -13h-43q-60 0 -60 55q0 50 43 92q67 68 211 68h84q151 0 215 -71q58 -64 58 -201v-508q0 -61 -62 -61q-24 0 -59 19
q-53 30 -96 30q-38 0 -92 -21q-61 -24 -110 -24q-112 0 -177 74q-66 75 -66 206q0 129 78 198q75 67 212 67q112 0 201 -35q13 -5 23 -8zM582 240v43q0 61 -23 82q-20 18 -65 18h-182q-49 0 -69 -22q-19 -21 -19 -76v-45q0 -61 23 -82q20 -18 65 -18h182q57 0 75 31
q13 21 13 69zM239 1183q22 0 62 -31q55 -41 127 -41q74 0 150 57q21 15 42 15q22 0 37 -14q18 -17 18 -41q0 -35 -41 -78q-84 -89 -206 -89q-121 0 -201 85q-43 46 -43 81q0 19 10 33q16 23 45 23z" />
    <glyph glyph-name="Aogonek" unicode="&#x104;" horiz-adv-x="1028" vert-adv-y="2457" 
d="M817 24q-7 13 -7 31v199h-591v-199q0 -55 -64 -55h-32q-62 0 -62 55v262q0 50 23 96l319 658q16 33 43 33h141q27 0 43 -33l315 -649q23 -47 23 -94v-273q0 -23 -15 -40v-29q0 -61 10 -78q13 -22 60 -22h61q62 0 62 -56v-28q0 -58 -62 -58h-36q-238 0 -238 194q0 17 2 34
zM779 397q-24 52 -62 130q-135 279 -193 454h-17q-36 -108 -75 -199q-38 -87 -155 -329l-27 -56h529z" />
    <glyph glyph-name="aogonek" unicode="&#x105;" vert-adv-y="2457" 
d="M595 15q-39 20 -78 20q-38 0 -92 -21q-61 -24 -110 -24q-112 0 -177 74q-66 75 -66 206q0 129 78 198q75 67 212 67q112 0 201 -35q13 -5 23 -8q-1 1 -1 4q0 1 -1 7q-2 11 -2 26v73q0 49 -22 68q-20 18 -66 18h-146q-28 0 -41 -10q-9 -6 -18 -27q-10 -21 -16 -26
q-14 -13 -47 -13h-43q-60 0 -60 55q0 50 43 92q67 68 211 68h84q151 0 214 -71q58 -64 58 -201v-558q0 -61 10 -78q13 -22 59 -22h62q61 0 61 -56v-28q0 -58 -61 -58h-37q-237 0 -237 194q0 19 2 34zM582 240v43q0 61 -23 82q-20 18 -65 18h-182q-49 0 -69 -22
q-19 -21 -19 -76v-45q0 -61 23 -82q20 -18 65 -18h182q57 0 75 31q13 21 13 69z" />
    <glyph glyph-name="Cacute" unicode="&#x106;" horiz-adv-x="1106" vert-adv-y="2457" 
d="M672 -20h-198q-201 0 -285 94q-78 86 -78 270v416q0 200 94 286q84 76 269 76h198q194 0 284 -98q69 -75 69 -196q0 -44 -16 -58q-13 -12 -40 -12h-59q-54 0 -55 63q-4 158 -156 158h-272q-83 0 -121 -41q-35 -40 -35 -131v-512q0 -99 44 -138q37 -34 112 -34h270
q152 0 156 160q1 63 55 63h61q56 0 56 -69q0 -138 -89 -217q-90 -80 -264 -80zM791 1404h-2q13 -18 13 -34q0 -28 -32 -46l-215 -121q-20 -11 -39 -11q-24 0 -40 24q-10 15 -10 30q0 27 26 49l184 162q18 16 36 16q26 0 46 -26z" />
    <glyph glyph-name="cacute" unicode="&#x107;" horiz-adv-x="870" vert-adv-y="2457" 
d="M515 0h-129q-151 0 -215 71q-58 64 -58 201v283q0 150 71 214q64 58 202 58h129q148 0 218 -76q48 -52 48 -121q0 -71 -65 -71h-29q-66 0 -68 59q-1 31 -8 44q-16 26 -63 26h-195q-48 0 -68 -22t-20 -78v-349q0 -61 24 -82q20 -18 64 -18h195q47 0 63 26q7 13 8 44
q2 59 68 59h29q65 0 65 -71q0 -80 -63 -135q-70 -62 -203 -62zM673 1145h-2q13 -18 13 -34q0 -28 -31 -46l-215 -121q-22 -12 -40 -12q-24 0 -40 24q-10 15 -10 30q0 27 26 50l185 162q18 16 35 16q26 0 46 -26z" />
    <glyph glyph-name="Ccaron" unicode="&#x10c;" horiz-adv-x="1106" vert-adv-y="2457" 
d="M672 -20h-198q-201 0 -285 94q-78 86 -78 270v416q0 200 94 286q84 76 269 76h198q194 0 284 -98q69 -75 69 -196q0 -44 -16 -58q-13 -12 -40 -12h-59q-54 0 -55 63q-4 158 -156 158h-272q-83 0 -121 -41q-35 -40 -35 -131v-512q0 -99 44 -138q37 -34 112 -34h270
q152 0 156 160q1 63 55 63h61q56 0 56 -69q0 -138 -89 -217q-90 -80 -264 -80zM553 1367l156 92q22 13 41 13q20 0 38 -19q13 -14 13 -34q0 -26 -28 -50l-183 -154q-19 -16 -38 -16t-35 14l-185 160q-26 23 -26 49q0 19 16 37q15 17 36 17q16 0 38 -13z" />
    <glyph glyph-name="ccaron" unicode="&#x10d;" horiz-adv-x="870" vert-adv-y="2457" 
d="M515 0h-129q-151 0 -215 71q-58 64 -58 201v283q0 150 71 214q64 58 202 58h129q148 0 218 -76q48 -52 48 -121q0 -71 -65 -71h-29q-66 0 -68 59q-1 31 -8 44q-16 26 -63 26h-195q-48 0 -68 -22t-20 -78v-349q0 -61 24 -82q20 -18 64 -18h195q47 0 63 26q7 13 8 44
q2 59 68 59h29q65 0 65 -71q0 -80 -63 -135q-70 -62 -203 -62zM436 1100l155 92q22 13 41 13q20 0 38 -19q13 -15 13 -34q0 -26 -28 -50l-183 -154q-19 -16 -38 -16t-35 14l-185 160q-26 23 -26 48q0 19 16 38q15 16 36 16q18 0 38 -12z" />
    <glyph glyph-name="Dcaron" unicode="&#x10e;" horiz-adv-x="1143" vert-adv-y="2457" 
d="M669 0h-479q-57 0 -57 51v1002q0 51 57 51h479q203 0 288 -95q77 -85 77 -267v-380q0 -200 -94 -286q-85 -76 -271 -76zM291 143h428q82 0 119 42q36 39 36 130v474q0 98 -44 138q-37 34 -111 34h-428v-818zM571 1367l156 92q22 13 41 13q21 0 38 -19q13 -15 13 -34
q0 -26 -29 -50l-182 -154q-19 -16 -38 -16t-36 14l-184 160q-26 23 -26 49q0 19 16 37q15 17 36 17q16 0 38 -13z" />
    <glyph glyph-name="dcaron" unicode="&#x10f;" horiz-adv-x="907" vert-adv-y="2457" 
d="M113 265v288q0 281 283 281q108 0 190 -42q17 -8 23 -8q24 0 24 23q0 7 -4 26q-6 34 -6 62v263q0 57 62 57h28q62 0 62 -57v-1111q0 -61 -62 -61q-24 0 -59 19q-53 30 -96 30q-38 0 -92 -21q-60 -24 -109 -24q-112 0 -179 75q-65 73 -65 200zM623 240v344q0 59 -23 80
q-20 18 -65 18h-182q-48 0 -69 -22q-19 -22 -19 -76v-344q0 -61 24 -82q20 -18 64 -18h182q57 0 75 31q13 21 13 69zM1042 996v-2q0 -27 -21 -47l-94 -92q-23 -22 -46 -22q-18 0 -36 18l-21 20q-18 19 -18 38q0 22 23 44l61 62v145q0 56 62 56h28q62 0 62 -56v-164z" />
    <glyph glyph-name="Dcroat" unicode="&#x110;" horiz-adv-x="1143" vert-adv-y="2457" 
d="M133 645v408q0 51 57 51h479q203 0 288 -95q77 -85 77 -267v-379q0 -201 -94 -287q-85 -76 -271 -76h-479q-57 0 -57 51v451h-33q-61 0 -61 55v33q0 55 61 55h33zM291 502v-359h428q82 0 119 42q36 39 36 130v474q0 98 -44 138q-37 34 -111 34h-428v-316h174q62 0 62 -55
v-33q0 -55 -62 -55h-174z" />
    <glyph glyph-name="dcroat" unicode="&#x111;" horiz-adv-x="907" vert-adv-y="2457" 
d="M775 921v-874q0 -61 -62 -61q-24 0 -59 19q-53 30 -96 30q-38 0 -92 -21q-60 -24 -109 -24q-112 0 -179 75q-65 73 -65 200v288q0 281 283 281q108 0 190 -42q17 -8 23 -8q24 0 24 23q0 7 -4 26q-6 34 -6 63v25h-135q-61 0 -61 55v33q0 55 61 55h135v93q0 58 62 58h28
q62 0 62 -58v-93h35q61 0 61 -55v-33q0 -55 -61 -55h-35zM623 240v344q0 59 -23 80q-20 18 -65 18h-182q-48 0 -69 -22q-19 -22 -19 -76v-344q0 -61 24 -82q20 -18 64 -18h182q57 0 75 31q13 21 13 69z" />
    <glyph glyph-name="Emacron" unicode="&#x112;" horiz-adv-x="1036" vert-adv-y="2457" 
d="M291 143h629q57 0 57 -51v-41q0 -51 -57 -51h-730q-57 0 -57 51v1002q0 51 57 51h730q57 0 57 -51v-41q0 -51 -57 -51h-629v-316h393q55 0 55 -49v-43q0 -51 -55 -51h-393v-359zM763 1197h-387q-61 0 -61 55v27q0 55 61 55h387q62 0 62 -55v-27q0 -55 -62 -55z" />
    <glyph glyph-name="emacron" unicode="&#x113;" vert-adv-y="2457" 
d="M265 299v-74q0 -48 22 -68q20 -18 66 -18h170q29 0 42 10q9 6 18 27q11 27 25 33t38 6h41q59 0 59 -55q0 -49 -42 -92q-68 -68 -212 -68h-106q-151 0 -215 71q-58 64 -58 201v291q0 143 71 206q64 58 202 58h117q272 0 272 -272q0 -256 -238 -256h-272zM265 438h268
q58 0 76 31q12 21 12 67v52q0 61 -23 82q-20 18 -65 18h-180q-48 0 -68 -22t-20 -78v-150zM624 929h-387q-61 0 -61 55v27q0 55 61 55h387q61 0 61 -55v-27q0 -55 -61 -55z" />
    <glyph glyph-name="Edotaccent" unicode="&#x116;" horiz-adv-x="1036" vert-adv-y="2457" 
d="M291 143h629q57 0 57 -51v-41q0 -51 -57 -51h-730q-57 0 -57 51v1002q0 51 57 51h730q57 0 57 -51v-41q0 -51 -57 -51h-629v-316h393q55 0 55 -49v-43q0 -51 -55 -51h-393v-359zM534 1224h-34q-70 0 -70 64v35q0 63 70 63h34q72 0 72 -63v-35q0 -64 -72 -64z" />
    <glyph glyph-name="edotaccent" unicode="&#x117;" vert-adv-y="2457" 
d="M265 299v-74q0 -48 22 -68q20 -18 66 -18h170q29 0 42 10q9 6 18 27q11 27 25 33t38 6h41q59 0 59 -55q0 -49 -42 -92q-68 -68 -212 -68h-106q-151 0 -215 71q-58 64 -58 201v291q0 143 71 206q64 58 202 58h117q272 0 272 -272q0 -256 -238 -256h-272zM265 438h268
q58 0 76 31q12 21 12 67v52q0 61 -23 82q-20 18 -65 18h-180q-48 0 -68 -22t-20 -78v-150zM445 957h-35q-70 0 -70 63v35q0 63 70 63h35q71 0 71 -63v-35q0 -63 -71 -63z" />
    <glyph glyph-name="Eogonek" unicode="&#x118;" horiz-adv-x="1036" vert-adv-y="2457" 
d="M663 0h-473q-57 0 -57 51v1002q0 51 57 51h730q57 0 57 -51v-41q0 -51 -57 -51h-629v-316h393q55 0 55 -49v-43q0 -51 -55 -51h-393v-359h629q57 0 57 -51v-41q0 -51 -57 -51h-121v-35q0 -60 10 -78q13 -22 60 -22h61q62 0 62 -55v-29q0 -57 -62 -57h-36q-238 0 -238 194
q0 14 2 33z" />
    <glyph glyph-name="eogonek" unicode="&#x119;" vert-adv-y="2457" 
d="M369 0q-101 4 -154 35q-102 60 -102 237v291q0 143 71 206q64 58 202 58h117q272 0 272 -272q0 -256 -238 -256h-272v-74q0 -48 22 -68q20 -18 66 -18h170q29 0 42 10q9 6 18 27q11 27 25 33t38 6h41q59 0 59 -55q0 -65 -65 -112q-62 -44 -176 -48v-35q0 -61 9 -78
q13 -22 60 -22h62q61 0 61 -56v-28q0 -58 -61 -58h-37q-237 0 -237 194q0 22 1 34zM265 438h268q58 0 76 31q12 21 12 67v52q0 61 -23 82q-20 18 -65 18h-180q-48 0 -68 -22t-20 -78v-150z" />
    <glyph glyph-name="Ecaron" unicode="&#x11a;" horiz-adv-x="1036" vert-adv-y="2457" 
d="M291 143h629q57 0 57 -51v-41q0 -51 -57 -51h-730q-57 0 -57 51v1002q0 51 57 51h730q57 0 57 -51v-41q0 -51 -57 -51h-629v-316h393q55 0 55 -49v-43q0 -51 -55 -51h-393v-359zM518 1367l156 92q22 13 40 13q21 0 38 -19q13 -15 13 -34q0 -27 -28 -50l-182 -154
q-19 -16 -39 -16q-18 0 -35 14l-184 160q-27 23 -27 49q0 19 16 37q15 17 36 17q17 0 38 -13z" />
    <glyph glyph-name="ecaron" unicode="&#x11b;" vert-adv-y="2457" 
d="M265 299v-74q0 -48 22 -68q20 -18 66 -18h170q29 0 42 10q9 6 18 27q11 27 25 33t38 6h41q59 0 59 -55q0 -49 -42 -92q-68 -68 -212 -68h-106q-151 0 -215 71q-58 64 -58 201v291q0 143 71 206q64 58 202 58h117q272 0 272 -272q0 -256 -238 -256h-272zM265 438h268
q58 0 76 31q12 21 12 67v52q0 61 -23 82q-20 18 -65 18h-180q-48 0 -68 -22t-20 -78v-150zM428 1100l156 92q22 13 41 13q20 0 38 -19q13 -15 13 -34q0 -26 -28 -50l-183 -154q-19 -16 -38 -16t-35 14l-185 160q-26 23 -26 48q0 19 16 38q15 16 36 16q18 0 38 -12z" />
    <glyph glyph-name="Gbreve" unicode="&#x11e;" horiz-adv-x="1116" vert-adv-y="2457" 
d="M868 412h-178q-57 0 -57 51v41q0 51 57 51h279q55 0 55 -51v-221q0 -78 -26 -136q-73 -167 -326 -167h-199q-200 0 -284 94q-78 86 -78 270v416q0 200 94 286q84 76 268 76h197q232 0 312 -141q32 -57 32 -108q0 -20 -14 -34q-15 -14 -33 -14h-80q-38 0 -48 47
q-22 107 -151 107h-262q-83 0 -120 -41q-35 -40 -35 -131v-512q0 -99 44 -138q36 -34 111 -34h285q157 0 157 160v129zM369 1416q22 0 62 -31q55 -41 128 -41t149 57q21 15 42 15q22 0 37 -14q18 -17 18 -41q0 -35 -41 -78q-84 -89 -206 -89q-121 0 -201 85q-43 46 -43 81
q0 19 10 33q16 23 45 23z" />
    <glyph glyph-name="gbreve" unicode="&#x11f;" horiz-adv-x="907" vert-adv-y="2457" 
d="M502 -387h-96q-146 0 -215 74q-49 53 -49 123q0 73 65 73h29q64 0 66 -61q1 -30 8 -43q15 -25 61 -25h164q50 0 69 22q19 21 19 77v73q0 30 9 77q1 6 1 11q0 23 -24 23q-7 0 -23 -8q-76 -41 -189 -41q-284 0 -284 281v290q0 141 81 215q66 60 164 60q45 0 108 -25
q54 -21 92 -21q46 0 96 29q35 21 58 21q63 0 63 -62v-889q0 -152 -72 -217q-64 -57 -201 -57zM623 240v346q0 59 -23 80q-20 18 -65 18h-182q-48 0 -69 -22q-19 -22 -19 -76v-346q0 -61 24 -82q20 -18 64 -18h182q57 0 75 31q13 21 13 69zM265 1183q22 0 62 -31
q55 -41 127 -41q74 0 149 57q21 15 42 15q22 0 37 -14q18 -17 18 -41q0 -35 -40 -78q-85 -89 -206 -89q-122 0 -201 85q-43 46 -43 81q0 19 10 33q16 23 45 23z" />
    <glyph glyph-name="Gcommaaccent" unicode="&#x122;" horiz-adv-x="1116" vert-adv-y="2457" 
d="M868 412h-178q-57 0 -57 51v41q0 51 57 51h279q55 0 55 -51v-221q0 -78 -26 -136q-73 -167 -326 -167h-199q-200 0 -284 94q-78 86 -78 270v416q0 200 94 286q84 76 268 76h197q232 0 312 -141q32 -57 32 -108q0 -20 -14 -34q-15 -14 -33 -14h-80q-38 0 -48 47
q-22 107 -151 107h-262q-83 0 -120 -41q-35 -40 -35 -131v-512q0 -99 44 -138q36 -34 111 -34h285q157 0 157 160v129zM455 -383v123q0 55 62 55h30q60 0 60 -55v-166q0 -27 -21 -47l-94 -92q-23 -22 -44 -22q-20 0 -38 18l-31 31q-18 18 -18 37q0 22 22 45z" />
    <glyph glyph-name="gcommaaccent" unicode="&#x123;" horiz-adv-x="907" vert-adv-y="2457" 
d="M502 -387h-96q-146 0 -215 74q-49 53 -49 123q0 73 65 73h29q64 0 66 -61q1 -30 8 -43q15 -25 61 -25h164q50 0 69 22q19 21 19 77v73q0 30 9 77q1 6 1 11q0 23 -24 23q-7 0 -23 -8q-76 -41 -189 -41q-284 0 -284 281v290q0 141 81 215q66 60 164 60q45 0 108 -25
q54 -21 92 -21q46 0 96 29q35 21 58 21q63 0 63 -62v-889q0 -152 -72 -217q-64 -57 -201 -57zM623 240v346q0 59 -23 80q-20 18 -65 18h-182q-48 0 -69 -22q-19 -22 -19 -76v-346q0 -61 24 -82q20 -18 64 -18h182q57 0 75 31q13 21 13 69zM364 1138v2q0 27 21 47l94 92
q23 23 46 23q18 0 36 -18l21 -21q18 -18 18 -37q0 -22 -23 -45l-61 -61v-146q0 -55 -62 -55h-28q-62 0 -62 55v164z" />
    <glyph glyph-name="Imacron" unicode="&#x12a;" horiz-adv-x="547" vert-adv-y="2457" 
d="M352 145h76q57 0 57 -51v-43q0 -51 -57 -51h-310q-57 0 -57 51v43q0 51 57 51h76v814h-76q-57 0 -57 51v43q0 51 57 51h310q57 0 57 -51v-43q0 -51 -57 -51h-76v-814zM469 1197h-388q-61 0 -61 55v27q0 55 61 55h388q61 0 61 -55v-27q0 -55 -61 -55z" />
    <glyph glyph-name="imacron" unicode="&#x12b;" horiz-adv-x="444" vert-adv-y="2457" 
d="M159 682h-68q-61 0 -61 55v29q0 55 61 55h158q62 0 62 -55v-711q0 -55 -62 -55h-28q-62 0 -62 55v627zM418 929h-388q-61 0 -61 55v27q0 55 61 55h388q61 0 61 -55v-27q0 -55 -61 -55z" />
    <glyph glyph-name="Iogonek" unicode="&#x12e;" horiz-adv-x="547" vert-adv-y="2457" 
d="M209 0h-91q-57 0 -57 51v43q0 51 57 51h76v814h-76q-57 0 -57 51v43q0 51 57 51h310q57 0 57 -51v-43q0 -51 -57 -51h-76v-814h76q57 0 57 -51v-43q0 -51 -57 -51h-83v-35q0 -60 10 -78q13 -22 60 -22h61q62 0 62 -55v-29q0 -57 -62 -57h-37q-237 0 -237 194q0 18 2 33z
" />
    <glyph glyph-name="iogonek" unicode="&#x12f;" horiz-adv-x="453" vert-adv-y="2457" 
d="M180 22q-10 13 -10 33v623h-68q-61 0 -61 55v33q0 55 61 55h160q60 0 60 -55v-711l-3 -103q3 -49 68 -49h62q61 0 61 -56v-28q0 -58 -61 -58h-37q-238 0 -238 194q0 15 2 34zM260 957h-35q-69 0 -69 63v35q0 63 69 63h35q72 0 72 -63v-35q0 -63 -72 -63z" />
    <glyph glyph-name="Idotaccent" unicode="&#x130;" horiz-adv-x="547" vert-adv-y="2457" 
d="M352 145h76q57 0 57 -51v-43q0 -51 -57 -51h-310q-57 0 -57 51v43q0 51 57 51h76v814h-76q-57 0 -57 51v43q0 51 57 51h310q57 0 57 -51v-43q0 -51 -57 -51h-76v-814zM289 1224h-34q-70 0 -70 64v35q0 63 70 63h34q72 0 72 -63v-35q0 -64 -72 -64z" />
    <glyph glyph-name="dotlessi" unicode="&#x131;" horiz-adv-x="444" vert-adv-y="2457" 
d="M160 682h-68q-61 0 -61 55v29q0 55 61 55h158q62 0 62 -55v-711q0 -55 -62 -55h-28q-62 0 -62 55v627z" />
    <glyph glyph-name="Kcommaaccent" unicode="&#x136;" horiz-adv-x="1075" vert-adv-y="2457" 
d="M776 582l256 -519q4 -7 4 -17q0 -16 -11 -29q-14 -17 -36 -17h-82q-28 0 -38 23l-226 479h-352v-451q0 -51 -58 -51h-43q-57 0 -57 51v1002q0 51 57 51h43q58 0 58 -51v-408h350l207 436q11 23 39 23h70q23 0 38 -19q10 -14 10 -29q0 -9 -3 -15zM483 -383v123q0 55 62 55
h30q60 0 60 -55v-166q0 -27 -21 -47l-94 -92q-23 -22 -45 -22q-19 0 -37 18l-31 31q-18 18 -18 37q0 22 22 45z" />
    <glyph glyph-name="kcommaaccent" unicode="&#x137;" horiz-adv-x="846" vert-adv-y="2457" 
d="M596 502q51 -41 119 -117l8 -8q72 -72 72 -213v-109q0 -55 -62 -55h-28q-62 0 -62 55v150q0 41 -16 57l-142 144q-16 16 -39 16h-161v-367q0 -55 -60 -55h-30q-62 0 -62 55v1102q0 57 62 57h30q60 0 60 -57v-596h124q54 0 71 18q15 17 15 66v121q0 55 62 55h31
q61 0 61 -55v-84q0 -112 -53 -180zM369 -385v123q0 55 62 55h30q60 0 60 -55v-166q0 -27 -21 -47l-94 -92q-22 -22 -44 -22q-20 0 -38 18l-31 30q-18 19 -18 38q0 21 22 44z" />
    <glyph glyph-name="Lacute" unicode="&#x139;" horiz-adv-x="895" vert-adv-y="2457" 
d="M291 143h528q58 0 58 -51v-41q0 -51 -58 -51h-629q-57 0 -57 51v1002q0 51 57 51h43q58 0 58 -51v-910zM685 1404h-2q13 -19 13 -34q0 -28 -31 -46l-216 -121q-20 -11 -39 -11q-24 0 -40 24q-10 15 -10 30q0 27 26 49l184 162q18 16 36 16q26 0 46 -26z" />
    <glyph glyph-name="lacute" unicode="&#x13a;" horiz-adv-x="430" vert-adv-y="2457" 
d="M117 209v948q0 57 62 57h30q60 0 60 -57v-940q0 -51 21 -63q11 -6 42 -7q64 0 64 -67v-23q0 -63 -98 -63q-181 0 -181 215zM492 1496h-3q13 -19 13 -34q0 -28 -31 -46l-215 -120q-21 -12 -39 -12q-25 0 -41 24q-10 15 -10 30q0 26 27 50l184 162q19 16 36 16q25 0 46 -27
z" />
    <glyph glyph-name="Lcommaaccent" unicode="&#x13b;" horiz-adv-x="895" vert-adv-y="2457" 
d="M291 143h528q58 0 58 -51v-41q0 -51 -58 -51h-629q-57 0 -57 51v1002q0 51 57 51h43q58 0 58 -51v-910zM393 -383v123q0 55 62 55h30q60 0 60 -55v-166q0 -27 -21 -47l-94 -92q-23 -22 -45 -22q-19 0 -37 18l-31 31q-18 18 -18 37q0 22 22 45z" />
    <glyph glyph-name="lcommaaccent" unicode="&#x13c;" horiz-adv-x="430" vert-adv-y="2457" 
d="M116 209v948q0 57 62 57h30q60 0 60 -57v-940q0 -51 21 -63q11 -6 42 -7q64 0 64 -67v-23q0 -63 -98 -63q-181 0 -181 215zM160 -385v123q0 55 62 55h30q60 0 60 -55v-166q0 -27 -21 -47l-94 -92q-22 -22 -45 -22q-19 0 -37 18l-31 30q-18 19 -18 38q0 21 22 44z" />
    <glyph glyph-name="Lcaron" unicode="&#x13d;" horiz-adv-x="895" vert-adv-y="2457" 
d="M291 143h528q58 0 58 -51v-41q0 -51 -58 -51h-629q-57 0 -57 51v1002q0 51 57 51h43q58 0 58 -51v-910zM540 883v-2q0 -27 -20 -47l-95 -92q-23 -23 -46 -23q-18 0 -36 18l-20 21q-19 18 -19 37q0 22 23 45l61 61v146q0 55 62 55h28q62 0 62 -55v-164z" />
    <glyph glyph-name="lcaron" unicode="&#x13e;" horiz-adv-x="430" vert-adv-y="2457" 
d="M117 209v948q0 57 62 57h30q60 0 60 -57v-940q0 -51 21 -63q11 -6 42 -7q64 0 64 -67v-23q0 -63 -98 -63q-181 0 -181 215zM554 1003v-2q0 -27 -21 -47l-94 -92q-23 -23 -46 -23q-18 0 -36 18l-21 21q-18 18 -18 37q0 22 23 45l61 61v146q0 55 62 55h28q62 0 62 -55v-164
z" />
    <glyph glyph-name="Lslash" unicode="&#x141;" horiz-adv-x="905" vert-adv-y="2457" 
d="M301 143h528q56 0 56 -51v-41q0 -51 -56 -51h-629q-57 0 -57 51v481l-68 -31q-3 0 -7 -1t-6 -1h-1q-17 0 -29 12t-12 29v76q0 25 18 33l105 45v359q0 51 57 51h44q57 0 57 -51v-291l115 49q5 2 13 2q19 0 31 -12q11 -11 11 -27v-78q0 -25 -18 -33l-152 -63v-457z" />
    <glyph glyph-name="lslash" unicode="&#x142;" horiz-adv-x="434" vert-adv-y="2457" 
d="M275 858l67 31q9 2 16 2q20 0 33 -13t13 -32v-60q0 -30 -21 -38l-108 -48v-473q0 -48 17 -64q11 -10 46 -11q62 -2 62 -70v-25q0 -63 -92 -63q-79 0 -129 56q-56 64 -56 192v393l-62 -27q-9 -4 -15 -4q-19 0 -33 13q-13 13 -13 32v62q0 28 20 37l103 45v364q0 57 59 57
h31q62 0 62 -57v-299z" />
    <glyph glyph-name="Nacute" unicode="&#x143;" horiz-adv-x="1147" vert-adv-y="2457" 
d="M958 0h-43q-57 0 -57 51v86q0 35 -16 51l-451 459q-12 13 -46 58q-19 26 -34 26q-30 0 -30 -32q0 -7 3 -24q7 -32 7 -58v-566q0 -51 -58 -51h-43q-57 0 -57 51v1002q0 51 57 51h43q58 0 58 -51v-55q0 -33 16 -50l451 -459q13 -13 37 -47q19 -26 24 -31q7 -7 18 -7
q31 0 31 32q0 7 -3 24q-7 32 -7 60v533q0 51 57 51h43q58 0 58 -51v-1002q0 -51 -58 -51zM811 1404h-2q13 -18 13 -34q0 -28 -32 -46l-215 -121q-20 -11 -39 -11q-24 0 -40 24q-10 15 -10 30q0 27 26 49l184 162q18 16 36 16q26 0 46 -26z" />
    <glyph glyph-name="nacute" unicode="&#x144;" horiz-adv-x="918" vert-adv-y="2457" 
d="M733 0h-28q-62 0 -62 55v531q0 59 -23 80q-20 18 -65 18h-182q-48 0 -69 -22q-19 -22 -19 -76v-531q0 -55 -60 -55h-30q-62 0 -62 55v721q0 62 62 62q24 0 59 -21q50 -29 97 -29q37 0 91 21q63 25 110 25q110 0 178 -75q65 -72 65 -200v-504q0 -55 -62 -55zM696 1145h-2
q13 -18 13 -34q0 -28 -31 -46l-215 -121q-22 -12 -40 -12q-24 0 -40 24q-10 15 -10 30q0 27 26 50l185 162q18 16 35 16q26 0 46 -26z" />
    <glyph glyph-name="Ncommaaccent" unicode="&#x145;" horiz-adv-x="1147" vert-adv-y="2457" 
d="M958 0h-43q-57 0 -57 51v86q0 35 -16 51l-451 459q-12 13 -46 58q-19 26 -34 26q-30 0 -30 -32q0 -7 3 -24q7 -32 7 -58v-566q0 -51 -58 -51h-43q-57 0 -57 51v1002q0 51 57 51h43q58 0 58 -51v-55q0 -33 16 -50l451 -459q13 -13 37 -47q19 -26 24 -31q7 -7 18 -7
q31 0 31 32q0 7 -3 24q-7 32 -7 60v533q0 51 57 51h43q58 0 58 -51v-1002q0 -51 -58 -51zM486 -383v123q0 55 62 55h30q60 0 60 -55v-166q0 -27 -21 -47l-94 -92q-23 -22 -45 -22q-19 0 -37 18l-31 31q-18 18 -18 37q0 22 22 45z" />
    <glyph glyph-name="ncommaaccent" unicode="&#x146;" horiz-adv-x="918" vert-adv-y="2457" 
d="M733 0h-28q-62 0 -62 55v531q0 59 -23 80q-20 18 -65 18h-182q-48 0 -69 -22q-19 -22 -19 -76v-531q0 -55 -60 -55h-30q-62 0 -62 55v721q0 62 62 62q24 0 59 -21q50 -29 97 -29q37 0 91 21q63 25 110 25q110 0 178 -75q65 -72 65 -200v-504q0 -55 -62 -55zM404 -385v123
q0 55 62 55h30q60 0 60 -55v-166q0 -27 -20 -47l-95 -92q-22 -22 -44 -22q-20 0 -38 18l-31 30q-18 19 -18 38q0 21 22 44z" />
    <glyph glyph-name="Ncaron" unicode="&#x147;" horiz-adv-x="1147" vert-adv-y="2457" 
d="M958 0h-43q-57 0 -57 51v86q0 35 -16 51l-451 459q-12 13 -46 58q-19 26 -34 26q-30 0 -30 -32q0 -7 3 -24q7 -32 7 -58v-566q0 -51 -58 -51h-43q-57 0 -57 51v1002q0 51 57 51h43q58 0 58 -51v-55q0 -33 16 -50l451 -459q13 -13 37 -47q19 -26 24 -31q7 -7 18 -7
q31 0 31 32q0 7 -3 24q-7 32 -7 60v533q0 51 57 51h43q58 0 58 -51v-1002q0 -51 -58 -51zM573 1367l156 92q22 13 41 13q21 0 38 -19q13 -15 13 -34q0 -26 -29 -50l-182 -154q-19 -16 -38 -16t-36 14l-184 160q-26 23 -26 49q0 19 16 37q15 17 36 17q16 0 38 -13z" />
    <glyph glyph-name="ncaron" unicode="&#x148;" horiz-adv-x="918" vert-adv-y="2457" 
d="M733 0h-28q-62 0 -62 55v531q0 59 -23 80q-20 18 -65 18h-182q-48 0 -69 -22q-19 -22 -19 -76v-531q0 -55 -60 -55h-30q-62 0 -62 55v721q0 62 62 62q24 0 59 -21q50 -29 97 -29q37 0 91 21q63 25 110 25q110 0 178 -75q65 -72 65 -200v-504q0 -55 -62 -55zM459 1100
l155 92q22 13 41 13q20 0 38 -19q13 -15 13 -34q0 -26 -28 -50l-183 -154q-19 -16 -38 -16t-35 14l-185 160q-26 23 -26 48q0 19 16 38q15 16 36 16q18 0 38 -12z" />
    <glyph glyph-name="Omacron" unicode="&#x14c;" horiz-adv-x="1139" vert-adv-y="2457" 
d="M666 -20h-192q-201 0 -285 94q-78 86 -78 270v416q0 200 94 286q84 76 269 76h192q202 0 286 -94q77 -86 77 -268v-416q0 -202 -96 -288q-84 -76 -267 -76zM869 295v512q0 99 -43 138q-37 34 -113 34h-286q-83 0 -121 -41q-35 -40 -35 -131v-512q0 -99 44 -138
q37 -34 112 -34h286q98 0 134 60q22 39 22 112zM765 1197h-387q-61 0 -61 55v27q0 55 61 55h387q62 0 62 -55v-27q0 -55 -62 -55z" />
    <glyph glyph-name="omacron" unicode="&#x14d;" horiz-adv-x="887" vert-adv-y="2457" 
d="M502 0h-116q-151 0 -215 71q-58 64 -58 201v283q0 150 71 214q64 58 202 58h116q151 0 215 -71q58 -64 58 -201v-283q0 -150 -72 -214q-64 -58 -201 -58zM623 239v349q0 61 -23 82q-20 18 -65 18h-182q-48 0 -68 -22t-20 -78v-349q0 -61 24 -82q20 -18 64 -18h182
q57 0 75 31q13 21 13 69zM639 929h-387q-61 0 -61 55v27q0 55 61 55h387q62 0 62 -55v-27q0 -55 -62 -55z" />
    <glyph glyph-name="Ohungarumlaut" unicode="&#x150;" horiz-adv-x="1139" vert-adv-y="2457" 
d="M666 -20h-192q-201 0 -285 94q-78 86 -78 270v416q0 200 94 286q84 76 269 76h192q202 0 286 -94q77 -86 77 -268v-416q0 -202 -96 -288q-84 -76 -267 -76zM869 295v512q0 99 -43 138q-37 34 -113 34h-286q-83 0 -121 -41q-35 -40 -35 -131v-512q0 -99 44 -138
q37 -34 112 -34h286q98 0 134 60q22 39 22 112zM911 1407l-162 -187q-24 -27 -47 -27t-42 21q-12 12 -12 30q0 20 11 40l117 215q16 31 45 31q19 0 35 -11l45 -30q26 -18 26 -44q0 -19 -16 -38zM630 1407l-162 -187q-23 -27 -47 -27q-23 0 -42 21q-12 12 -12 30q0 19 11 40
l117 215q17 31 45 31q20 0 35 -11l45 -30q26 -18 26 -44q0 -20 -16 -38z" />
    <glyph glyph-name="ohungarumlaut" unicode="&#x151;" horiz-adv-x="887" vert-adv-y="2457" 
d="M502 0h-116q-151 0 -215 71q-58 64 -58 201v283q0 150 71 214q64 58 202 58h116q151 0 215 -71q58 -64 58 -201v-283q0 -150 -72 -214q-64 -58 -201 -58zM623 239v349q0 61 -23 82q-20 18 -65 18h-182q-48 0 -68 -22t-20 -78v-349q0 -61 24 -82q20 -18 64 -18h182
q57 0 75 31q13 21 13 69zM785 1147l-162 -186q-24 -28 -47 -28t-42 21q-12 12 -12 30q0 20 11 40l117 215q16 31 45 31q19 0 34 -10l46 -31q26 -18 26 -44q0 -19 -16 -38zM504 1147l-162 -186q-24 -28 -47 -28t-42 21q-12 12 -12 30q0 19 11 40l117 215q17 31 45 31
q19 0 35 -10l45 -31q26 -18 26 -44q0 -20 -16 -38z" />
    <glyph glyph-name="OE" unicode="&#x152;" horiz-adv-x="1456" vert-adv-y="2457" 
d="M887 143h450q58 0 58 -51v-41q0 -51 -58 -51h-647q-72 -20 -163 -20h-54q-199 0 -284 94q-78 86 -78 270v416q0 200 94 286q84 76 268 76h54q84 0 157 -18h653q58 0 58 -51v-41q0 -51 -58 -51h-450l2 -316h245q56 0 56 -49v-43q0 -51 -56 -51h-245zM729 295v512
q0 100 -43 139q-36 33 -112 33h-148q-83 0 -120 -41q-35 -40 -35 -131v-512q0 -99 43 -139q36 -33 112 -33h148q98 0 133 60q22 39 22 112z" />
    <glyph glyph-name="oe" unicode="&#x153;" horiz-adv-x="1366" vert-adv-y="2457" 
d="M699 768q77 59 191 59h123q272 0 272 -272q0 -256 -240 -256h-270v-10v-18v-18v-20v-8q0 -48 20 -67q21 -19 68 -19h170q29 0 42 10q9 6 18 27q10 24 22.5 31.5t40.5 7.5h41q59 0 59 -55q0 -49 -43 -92q-67 -68 -211 -68h-112q-116 0 -191 59q-76 -59 -191 -59h-122
q-151 0 -215 71q-58 64 -58 201v283q0 150 71 214q64 58 202 58h122q113 0 191 -59zM775 438h268q58 0 76 31q12 21 12 67v52q0 61 -23 82q-20 18 -65 18h-180q-48 0 -68 -22t-20 -78v-150zM623 239v349q0 61 -23 82q-20 18 -65 18h-182q-48 0 -68 -22t-20 -78v-349
q0 -61 24 -82q20 -18 64 -18h182q57 0 75 31q13 22 13 69z" />
    <glyph glyph-name="Racute" unicode="&#x154;" horiz-adv-x="1098" vert-adv-y="2457" 
d="M291 412v-361q0 -51 -58 -51h-43q-57 0 -57 51v1002q0 51 57 51h463q202 0 289 -96q74 -82 74 -247q0 -158 -70 -242q-40 -48 -118 -80l182 -376q4 -8 4 -18q0 -23 -20 -37q-12 -8 -27 -8h-84q-29 0 -39 23l-174 389h-379zM291 555h408q82 0 120 41q35 40 35 131v62
q0 98 -44 138q-38 34 -111 34h-408v-406zM709 1404h-2q12 -19 12 -34q0 -29 -31 -46l-215 -121q-20 -11 -39 -11q-25 0 -41 24q-10 15 -10 30q0 26 27 49l184 162q18 16 36 16q26 0 46 -26z" />
    <glyph glyph-name="racute" unicode="&#x155;" horiz-adv-x="612" vert-adv-y="2457" 
d="M531 678h-172q-38 0 -55 -19q-19 -21 -19 -81v-523q0 -55 -51 -55h-50q-51 0 -51 55v715q0 61 53 61q21 0 56 -20q45 -27 78 -27q25 0 62 18q51 25 100 25h49q61 0 61 -55v-39q0 -55 -61 -55zM544 1145h-2q12 -18 12 -34q0 -29 -31 -46l-215 -121q-21 -12 -39 -12
q-25 0 -41 24q-10 15 -10 30q0 27 27 50l184 162q18 16 36 16q26 0 46 -26z" />
    <glyph glyph-name="Rcommaaccent" unicode="&#x156;" horiz-adv-x="1098" vert-adv-y="2457" 
d="M291 412v-361q0 -51 -58 -51h-43q-57 0 -57 51v1002q0 51 57 51h463q202 0 289 -96q74 -82 74 -247q0 -158 -70 -242q-40 -48 -118 -80l182 -376q4 -8 4 -18q0 -23 -20 -37q-12 -8 -27 -8h-84q-29 0 -39 23l-174 389h-379zM291 555h408q82 0 120 41q35 40 35 131v62
q0 98 -44 138q-38 34 -111 34h-408v-406zM456 -383v123q0 55 62 55h30q60 0 60 -55v-166q0 -27 -20 -47l-95 -92q-22 -22 -44 -22q-20 0 -38 18l-31 31q-18 18 -18 37q0 22 22 45z" />
    <glyph glyph-name="rcommaaccent" unicode="&#x157;" horiz-adv-x="612" vert-adv-y="2457" 
d="M532 678h-172q-38 0 -55 -19q-19 -21 -19 -81v-523q0 -55 -51 -55h-50q-51 0 -51 55v715q0 61 53 61q21 0 56 -20q45 -27 78 -27q25 0 62 18q51 25 100 25h49q61 0 61 -55v-39q0 -55 -61 -55zM142 -385v123q0 55 62 55h30q60 0 60 -55v-166q0 -27 -21 -47l-94 -92
q-22 -22 -45 -22q-19 0 -37 18l-31 30q-18 19 -18 38q0 21 22 44z" />
    <glyph glyph-name="Rcaron" unicode="&#x158;" horiz-adv-x="1098" vert-adv-y="2457" 
d="M291 412v-361q0 -51 -58 -51h-43q-57 0 -57 51v1002q0 51 57 51h463q202 0 289 -96q74 -82 74 -247q0 -158 -70 -242q-40 -48 -118 -80l182 -376q4 -8 4 -18q0 -23 -20 -37q-12 -8 -27 -8h-84q-29 0 -39 23l-174 389h-379zM291 555h408q82 0 120 41q35 40 35 131v62
q0 98 -44 138q-38 34 -111 34h-408v-406zM476 1367l156 92q22 13 41 13q21 0 38 -19q13 -15 13 -34q0 -26 -28 -50l-183 -154q-19 -16 -38 -16t-35 14l-185 160q-26 23 -26 49q0 19 16 37q15 17 36 17q16 0 38 -13z" />
    <glyph glyph-name="rcaron" unicode="&#x159;" horiz-adv-x="612" vert-adv-y="2457" 
d="M531 678h-172q-38 0 -55 -19q-19 -21 -19 -81v-523q0 -55 -51 -55h-50q-51 0 -51 55v715q0 61 53 61q21 0 56 -20q45 -27 78 -27q25 0 62 18q51 25 100 25h49q61 0 61 -55v-39q0 -55 -61 -55zM306 1100l156 92q22 13 41 13q20 0 38 -19q13 -15 13 -34q0 -26 -29 -50
l-182 -154q-19 -16 -38 -16t-36 14l-184 160q-26 23 -26 48q0 19 16 38q15 16 36 16q18 0 38 -12z" />
    <glyph glyph-name="Sacute" unicode="&#x15a;" horiz-adv-x="1081" vert-adv-y="2457" 
d="M606 -20h-172q-195 0 -284 98q-68 75 -68 194q0 70 57 70h64q54 0 55 -63q1 -53 15 -82q33 -74 141 -74h237q156 0 156 207q0 193 -166 193h-168q-366 0 -366 296q0 140 89 219q96 84 277 84h141q126 0 221 -49q75 -39 108 -127q16 -42 16 -73q0 -20 -15 -34
q-14 -14 -33 -14h-79q-39 0 -50 47q-23 107 -151 107h-199q-72 0 -116 -44q-43 -43 -43 -115q0 -69 42 -111q43 -43 117 -43h172q220 0 307 -94q70 -76 70 -232q0 -191 -98 -279q-90 -81 -277 -81zM778 1404h-2q13 -19 13 -34q0 -28 -31 -46l-215 -121q-20 -11 -40 -11
q-24 0 -40 24q-10 15 -10 30q0 26 26 49l185 162q18 16 36 16q26 0 46 -26z" />
    <glyph glyph-name="sacute" unicode="&#x15b;" horiz-adv-x="850" vert-adv-y="2457" 
d="M493 0h-135q-148 0 -217 75q-49 52 -49 122q0 71 66 71h28q64 0 66 -59q1 -31 8 -44q16 -26 63 -26h203q46 0 65 22q21 23 21 84q0 62 -23 83q-20 18 -63 18h-149q-158 0 -221 69q-52 57 -52 171q0 125 66 183t207 58h110q148 0 218 -76q49 -52 49 -121q0 -71 -68 -71
h-25q-65 0 -67 59q-1 31 -9 44q-15 26 -61 26h-180q-47 0 -67 -22q-19 -21 -19 -79q0 -63 24 -84q20 -18 62 -18h149q158 0 221 -69q52 -57 52 -173q0 -124 -66 -184q-66 -59 -207 -59zM662 1145h-2q13 -18 13 -34q0 -29 -31 -46l-215 -121q-22 -12 -39 -12q-25 0 -41 24
q-10 15 -10 30q0 27 26 50l185 162q18 16 36 16q26 0 46 -26z" />
    <glyph glyph-name="Scedilla" unicode="&#x15e;" horiz-adv-x="1081" vert-adv-y="2457" 
d="M501 -20h-67q-194 0 -284 98q-68 75 -68 194q0 70 57 70h64q54 0 55 -63q1 -53 15 -82q33 -74 141 -74h237q156 0 156 207q0 193 -166 193h-168q-366 0 -366 296q0 140 89 219q96 84 277 84h141q126 0 221 -49q75 -39 108 -127q16 -42 16 -73q0 -20 -15 -34
q-14 -14 -33 -14h-79q-39 0 -50 47q-23 107 -151 107h-199q-72 0 -116 -44q-43 -43 -43 -115q0 -69 42 -111q43 -43 117 -43h172q220 0 307 -94q70 -76 70 -232q0 -227 -141 -310q-76 -45 -203 -50l3 -29q2 -18 2 -32q0 -195 -235 -195h-37q-62 0 -62 57v29q0 55 62 55h61
q41 0 55 16q15 16 15 82v17z" />
    <glyph glyph-name="scedilla" unicode="&#x15f;" horiz-adv-x="850" vert-adv-y="2457" 
d="M385 0h-27q-148 0 -217 75q-49 52 -49 122q0 71 66 71h28q64 0 66 -59q1 -31 8 -44q16 -26 63 -26h203q46 0 65 22q21 23 21 84q0 62 -23 83q-20 18 -63 18h-149q-158 0 -221 69q-52 57 -52 171q0 125 66 183t207 58h110q148 0 218 -76q49 -52 49 -121q0 -71 -68 -71h-25
q-65 0 -67 59q-1 31 -9 44q-15 26 -61 26h-180q-47 0 -67 -22q-19 -21 -19 -79q0 -63 24 -84q20 -18 62 -18h149q158 0 221 -69q52 -57 52 -173q0 -149 -97 -206q-53 -31 -150 -37l5 -49q2 -18 2 -32q0 -196 -235 -196h-37q-62 0 -62 58v28q0 56 62 56h61q41 0 55 16
q15 16 15 82v37z" />
    <glyph glyph-name="Scaron" unicode="&#x160;" horiz-adv-x="1081" vert-adv-y="2457" 
d="M606 -20h-172q-195 0 -284 98q-68 75 -68 194q0 70 57 70h64q54 0 55 -63q1 -53 15 -82q33 -74 141 -74h237q156 0 156 207q0 193 -166 193h-168q-366 0 -366 296q0 140 89 219q96 84 277 84h141q126 0 221 -49q75 -39 108 -127q16 -42 16 -73q0 -20 -15 -34
q-14 -14 -33 -14h-79q-39 0 -50 47q-23 107 -151 107h-199q-72 0 -116 -44q-43 -43 -43 -115q0 -69 42 -111q43 -43 117 -43h172q220 0 307 -94q70 -76 70 -232q0 -191 -98 -279q-90 -81 -277 -81zM541 1367l155 92q22 13 41 13q21 0 38 -19q13 -15 13 -34q0 -26 -28 -50
l-182 -154q-20 -16 -39 -16t-35 14l-184 160q-27 23 -27 49q0 19 16 37q15 17 36 17q17 0 38 -13z" />
    <glyph glyph-name="scaron" unicode="&#x161;" horiz-adv-x="850" vert-adv-y="2457" 
d="M493 0h-135q-148 0 -217 75q-49 52 -49 122q0 71 66 71h28q64 0 66 -59q1 -31 8 -44q16 -26 63 -26h203q46 0 65 22q21 23 21 84q0 62 -23 83q-20 18 -63 18h-149q-158 0 -221 69q-52 57 -52 171q0 125 66 183t207 58h110q148 0 218 -76q49 -52 49 -121q0 -71 -68 -71
h-25q-65 0 -67 59q-1 31 -9 44q-15 26 -61 26h-180q-47 0 -67 -22q-19 -21 -19 -79q0 -63 24 -84q20 -18 62 -18h149q158 0 221 -69q52 -57 52 -173q0 -124 -66 -184q-66 -59 -207 -59zM425 1100l156 92q22 13 40 13q20 0 38 -19q13 -14 13 -34q0 -27 -28 -50l-182 -154
q-20 -16 -39 -16t-35 14l-184 160q-27 23 -27 48q0 19 16 38q15 16 36 16q18 0 38 -12z" />
    <glyph glyph-name="Tcommaaccent" unicode="&#x162;" horiz-adv-x="918" vert-adv-y="2457" 
d="M380 961h-303q-57 0 -57 51v41q0 51 57 51h762q57 0 57 -51v-41q0 -51 -57 -51h-303v-910q0 -51 -55 -51h-46q-55 0 -55 51v910zM404 -383v123q0 55 62 55h30q60 0 60 -55v-166q0 -27 -21 -47l-94 -92q-23 -22 -44 -22q-20 0 -38 18l-31 31q-18 18 -18 37q0 22 22 45z
" />
    <glyph glyph-name="tcommaaccent" unicode="&#x163;" horiz-adv-x="532" vert-adv-y="2457" 
d="M287 821h166q59 0 59 -55v-29q0 -55 -59 -55h-166v-442q0 -62 23 -83q19 -18 63 -18h45q61 0 61 -55v-29q0 -55 -61 -55h-13q-151 0 -215 70q-57 64 -57 202v410h-52q-61 0 -61 55v29q0 55 61 55h52v125q0 55 61 55h31q62 0 62 -55v-125zM212 -385v123q0 55 61 55h31
q60 0 60 -55v-166q0 -27 -21 -47l-94 -92q-23 -22 -45 -22q-20 0 -37 18l-31 30q-18 19 -18 38q0 21 22 44z" />
    <glyph glyph-name="Tcaron" unicode="&#x164;" horiz-adv-x="918" vert-adv-y="2457" 
d="M380 961h-303q-57 0 -57 51v41q0 51 57 51h762q57 0 57 -51v-41q0 -51 -57 -51h-303v-910q0 -51 -55 -51h-46q-55 0 -55 51v910zM458 1367l156 92q22 13 41 13q21 0 38 -19q13 -15 13 -34q0 -26 -29 -50l-182 -154q-19 -16 -38 -16t-36 14l-184 160q-26 23 -26 49
q0 19 16 37q15 17 36 17q16 0 38 -13z" />
    <glyph glyph-name="tcaron" unicode="&#x165;" horiz-adv-x="532" vert-adv-y="2457" 
d="M287 821h166q59 0 59 -55v-29q0 -55 -59 -55h-166v-442q0 -62 23 -83q19 -18 63 -18h45q61 0 61 -55v-29q0 -55 -61 -55h-13q-151 0 -215 70q-57 64 -57 202v410h-52q-61 0 -61 55v29q0 55 61 55h52v125q0 55 61 55h31q62 0 62 -55v-125zM587 1073v-2q0 -27 -21 -47
l-94 -92q-24 -23 -46 -23q-18 0 -36 18l-21 21q-18 19 -18 37q0 22 22 45l62 61v146q0 55 61 55h29q62 0 62 -55v-164z" />
    <glyph glyph-name="Umacron" unicode="&#x16a;" horiz-adv-x="1137" vert-adv-y="2457" 
d="M651 -20h-155q-207 0 -295 97q-78 87 -78 267v709q0 51 57 51h43q58 0 58 -51v-758q0 -98 44 -138q38 -34 111 -34h266q82 0 120 42q36 40 36 130v758q0 51 57 51h44q57 0 57 -51v-709q0 -201 -95 -288q-85 -76 -270 -76zM764 1197h-387q-61 0 -61 55v27q0 55 61 55h387
q61 0 61 -55v-27q0 -55 -61 -55z" />
    <glyph glyph-name="umacron" unicode="&#x16b;" horiz-adv-x="918" vert-adv-y="2457" 
d="M123 265v501q0 55 62 55h30q60 0 60 -55v-526q0 -61 24 -82q20 -18 64 -18h182q49 0 69 22q19 21 19 78v526q0 55 62 55h28q62 0 62 -55v-719q0 -61 -62 -61q-24 0 -59 19q-53 30 -96 30q-38 0 -92 -21q-60 -24 -109 -24q-112 0 -179 75q-65 73 -65 200zM655 929h-388
q-61 0 -61 55v27q0 55 61 55h388q61 0 61 -55v-27q0 -55 -61 -55z" />
    <glyph glyph-name="Uring" unicode="&#x16e;" horiz-adv-x="1137" vert-adv-y="2457" 
d="M651 -20h-155q-207 0 -295 97q-78 87 -78 267v709q0 51 57 51h43q58 0 58 -51v-758q0 -98 44 -138q38 -34 111 -34h266q82 0 120 42q36 40 36 130v758q0 51 57 51h44q57 0 57 -51v-709q0 -201 -95 -288q-85 -76 -270 -76zM588 1200h-39q-178 0 -178 164q0 81 41 118
q42 37 137 37h39q178 0 178 -156q0 -85 -44 -125q-42 -38 -134 -38zM635 1356v8q0 29 -13 41q-14 12 -50 12h-7q-39 0 -51 -13q-10 -12 -10 -40v-8q0 -31 13 -42q13 -12 48 -12h7q39 0 52 15q11 11 11 39z" />
    <glyph glyph-name="uring" unicode="&#x16f;" horiz-adv-x="918" vert-adv-y="2457" 
d="M123 265v501q0 55 62 55h30q60 0 60 -55v-526q0 -61 24 -82q20 -18 64 -18h182q49 0 69 22q19 21 19 78v526q0 55 62 55h28q62 0 62 -55v-719q0 -61 -62 -61q-24 0 -59 19q-53 30 -96 30q-38 0 -92 -21q-60 -24 -109 -24q-112 0 -179 75q-65 73 -65 200zM478 893h-39
q-178 0 -178 164q0 81 41 118q42 37 137 37h39q179 0 179 -156q0 -85 -44 -125q-43 -38 -135 -38zM526 1049v8q0 29 -14 41t-50 12h-6q-39 0 -52 -13q-10 -12 -10 -40v-8q0 -31 13 -42q13 -12 49 -12h6q39 0 53 15q11 11 11 39z" />
    <glyph glyph-name="Uhungarumlaut" unicode="&#x170;" horiz-adv-x="1137" vert-adv-y="2457" 
d="M651 -20h-155q-207 0 -295 97q-78 87 -78 267v709q0 51 57 51h43q58 0 58 -51v-758q0 -98 44 -138q38 -34 111 -34h266q82 0 120 42q36 40 36 130v758q0 51 57 51h44q57 0 57 -51v-709q0 -201 -95 -288q-85 -76 -270 -76zM909 1407l-161 -187q-24 -27 -48 -27
q-23 0 -42 21q-12 12 -12 30q0 19 12 40l116 215q17 31 45 31q20 0 35 -11l45 -30q26 -18 26 -44q0 -20 -16 -38zM629 1407l-162 -187q-24 -27 -47 -27t-42 21q-12 12 -12 30q0 20 11 40l117 215q17 31 45 31q19 0 35 -11l45 -30q26 -18 26 -44q0 -20 -16 -38z" />
    <glyph glyph-name="uhungarumlaut" unicode="&#x171;" horiz-adv-x="918" vert-adv-y="2457" 
d="M123 265v501q0 55 62 55h30q60 0 60 -55v-526q0 -61 24 -82q20 -18 64 -18h182q49 0 69 22q19 21 19 78v526q0 55 62 55h28q62 0 62 -55v-719q0 -61 -62 -61q-24 0 -59 19q-53 30 -96 30q-38 0 -92 -21q-60 -24 -109 -24q-112 0 -179 75q-65 73 -65 200zM800 1147
l-162 -186q-24 -28 -47 -28t-42 21q-12 12 -12 30q0 20 11 40l117 215q17 31 45 31q19 0 35 -10l45 -31q26 -18 26 -44q0 -20 -16 -38zM519 1147l-161 -186q-24 -28 -48 -28q-23 0 -42 21q-12 12 -12 30q0 19 11 40l117 215q17 31 45 31q20 0 35 -10l45 -31q26 -18 26 -44
q0 -20 -16 -38z" />
    <glyph glyph-name="Uogonek" unicode="&#x172;" horiz-adv-x="1137" vert-adv-y="2457" 
d="M575 -20h-79q-207 0 -295 97q-78 87 -78 267v709q0 51 57 51h43q58 0 58 -51v-758q0 -98 44 -138q38 -34 111 -34h266q82 0 120 42q36 40 36 130v758q0 51 57 51h44q57 0 57 -51v-709q0 -238 -136 -317q-63 -36 -169 -45v-35q0 -60 10 -78q13 -22 60 -22h61q61 0 61 -55
v-29q0 -58 -61 -58h-37q-237 0 -237 195q0 16 2 33z" />
    <glyph glyph-name="uogonek" unicode="&#x173;" horiz-adv-x="918" vert-adv-y="2457" 
d="M647 14q-41 21 -79 21t-92 -21q-60 -24 -109 -24q-112 0 -179 75q-65 73 -65 200v501q0 55 62 55h30q60 0 60 -55v-526q0 -61 24 -82q20 -18 64 -18h182q49 0 69 22q19 21 19 78v526q0 55 62 55h28q62 0 62 -55v-775q0 -60 10 -77q13 -23 60 -23h61q62 0 62 -55v-29
q0 -57 -62 -57h-37q-237 0 -237 194q0 19 1 33z" />
    <glyph glyph-name="Ydieresis" unicode="&#x178;" horiz-adv-x="1114" vert-adv-y="2457" 
d="M784 1198h-57q-70 0 -70 64v57q0 63 70 63h57q72 0 72 -63v-57q0 -64 -72 -64zM350 1198h-57q-70 0 -70 64v57q0 63 70 63h57q72 0 72 -63v-57q0 -64 -72 -64zM835 583v470q0 51 55 51h46q57 0 57 -51v-771q0 -137 -90 -217q-97 -85 -279 -85h-188q-231 0 -311 139
q-33 58 -33 113q0 17 13 30q14 14 34 14h80q39 0 49 -47q23 -106 150 -106h257q72 0 116 44t44 115v158h-381q-201 0 -285 94q-77 85 -77 269v250q0 51 57 51h43q58 0 58 -51v-300q0 -97 44 -136q37 -34 111 -34h430z" />
    <glyph glyph-name="Zacute" unicode="&#x179;" horiz-adv-x="1006" vert-adv-y="2457" 
d="M219 143h664q63 0 63 -53v-33q0 -57 -63 -57h-761q-61 0 -61 57v72q0 83 11 131q17 70 75 115l609 467q33 25 32 119h-637q-63 0 -63 55v31q0 57 63 57h732q63 0 63 -57v-98q0 -80 -12 -122q-15 -53 -76 -100l-609 -465q-24 -19 -29 -64q-1 -8 -1 -55zM740 1404h-2
q13 -19 13 -34q0 -28 -31 -46l-216 -121q-20 -11 -39 -11q-24 0 -40 24q-10 15 -10 30q0 27 26 49l184 162q18 16 36 16q26 0 46 -26z" />
    <glyph glyph-name="zacute" unicode="&#x17a;" horiz-adv-x="756" vert-adv-y="2457" 
d="M213 139h440q61 0 61 -55v-29q0 -55 -61 -55h-531q-61 0 -61 55v76q0 76 9 113q14 54 67 96l379 299q15 12 22 43h-409q-62 0 -62 55v29q0 55 62 55h505q62 0 62 -55v-17q0 -71 -10 -113q-15 -61 -66 -101l-385 -306q-23 -18 -23 -60v-19q0 -5 1 -11zM615 1145h-2
q13 -19 13 -34q0 -28 -31 -46l-215 -121q-22 -12 -40 -12q-24 0 -40 24q-10 15 -10 30q0 27 26 50l184 162q19 16 36 16q26 0 46 -26z" />
    <glyph glyph-name="Zdotaccent" unicode="&#x17b;" horiz-adv-x="1006" vert-adv-y="2457" 
d="M219 143h664q63 0 63 -53v-33q0 -57 -63 -57h-761q-61 0 -61 57v72q0 83 11 131q17 70 75 115l609 467q33 25 32 119h-637q-63 0 -63 55v31q0 57 63 57h732q63 0 63 -57v-98q0 -80 -12 -122q-15 -53 -76 -100l-609 -465q-24 -19 -29 -64q-1 -8 -1 -55zM519 1224h-35
q-70 0 -70 64v35q0 63 70 63h35q71 0 71 -63v-35q0 -64 -71 -64z" />
    <glyph glyph-name="zdotaccent" unicode="&#x17c;" horiz-adv-x="756" vert-adv-y="2457" 
d="M213 139h440q61 0 61 -55v-29q0 -55 -61 -55h-531q-61 0 -61 55v76q0 76 9 113q14 54 67 96l379 299q15 12 22 43h-409q-62 0 -62 55v29q0 55 62 55h505q62 0 62 -55v-17q0 -71 -10 -113q-15 -61 -66 -101l-385 -306q-23 -18 -23 -60v-19q0 -5 1 -11zM394 957h-35
q-70 0 -70 63v35q0 63 70 63h35q72 0 72 -63v-35q0 -63 -72 -63z" />
    <glyph glyph-name="Zcaron" unicode="&#x17d;" horiz-adv-x="1006" vert-adv-y="2457" 
d="M219 143h664q63 0 63 -53v-33q0 -57 -63 -57h-761q-61 0 -61 57v72q0 83 11 131q17 70 75 115l609 467q33 25 32 119h-637q-63 0 -63 55v31q0 57 63 57h732q63 0 63 -57v-98q0 -80 -12 -122q-15 -53 -76 -100l-609 -465q-24 -19 -29 -64q-1 -8 -1 -55zM502 1367l156 92
q22 13 41 13q21 0 38 -19q13 -15 13 -34q0 -26 -28 -50l-183 -154q-19 -16 -38 -16t-35 14l-185 160q-26 23 -26 49q0 19 16 37q15 17 36 17q16 0 38 -13z" />
    <glyph glyph-name="zcaron" unicode="&#x17e;" horiz-adv-x="756" vert-adv-y="2457" 
d="M213 139h440q61 0 61 -55v-29q0 -55 -61 -55h-531q-61 0 -61 55v76q0 76 9 113q14 54 67 96l379 299q15 12 22 43h-409q-62 0 -62 55v29q0 55 62 55h505q62 0 62 -55v-17q0 -71 -10 -113q-15 -61 -66 -101l-385 -306q-23 -18 -23 -60v-19q0 -5 1 -11zM377 1100l156 92
q22 13 41 13q20 0 38 -19q13 -15 13 -34q0 -26 -28 -50l-183 -154q-19 -16 -38 -16t-35 14l-185 160q-26 23 -26 48q0 19 16 38q15 16 36 16q18 0 38 -12z" />
    <glyph glyph-name="florin" unicode="&#x192;" horiz-adv-x="752" vert-adv-y="2457" 
d="M287 821l20 119q27 151 111 217q75 57 211 57h70q52 0 52 -44q0 -5 -1 -13l-4 -29q-4 -24 -24 -40q-19 -15 -48 -15h-92q-100 0 -119 -109l-24 -143h110q52 0 52 -43q0 -7 -1 -12l-4 -29q-8 -55 -71 -55h-111l-131 -746q-27 -151 -111 -215q-74 -57 -211 -57h-69
q-53 0 -53 37q0 8 2 18l4 29q7 55 71 55h92q97 0 117 111l137 768h-51q-52 0 -52 44q0 7 1 11l6 29q12 55 72 55h49z" />
    <glyph glyph-name="uni01D3" unicode="&#x1d3;" horiz-adv-x="1137" vert-adv-y="2457" 
d="M651 -20h-155q-207 0 -295 97q-78 87 -78 267v709q0 51 57 51h43q58 0 58 -51v-758q0 -98 44 -138q38 -34 111 -34h266q82 0 120 42q36 40 36 130v758q0 51 57 51h44q57 0 57 -51v-709q0 -201 -95 -288q-85 -76 -270 -76zM569 1367l155 92q22 13 41 13q21 0 38 -19
q13 -15 13 -34q0 -26 -28 -50l-183 -154q-19 -16 -38 -16t-35 14l-185 160q-26 23 -26 49q0 19 16 37q15 17 36 17q17 0 38 -13z" />
    <glyph glyph-name="Scommaaccent" unicode="&#x218;" horiz-adv-x="1081" vert-adv-y="2457" 
d="M606 -20h-172q-195 0 -284 98q-68 75 -68 194q0 70 57 70h64q54 0 55 -63q1 -53 15 -82q33 -74 141 -74h237q156 0 156 207q0 193 -166 193h-168q-366 0 -366 296q0 140 89 219q96 84 277 84h141q126 0 221 -49q75 -39 108 -127q16 -42 16 -73q0 -20 -15 -34
q-14 -14 -33 -14h-79q-39 0 -50 47q-23 107 -151 107h-199q-72 0 -116 -44q-43 -43 -43 -115q0 -69 42 -111q43 -43 117 -43h172q220 0 307 -94q70 -76 70 -232q0 -191 -98 -279q-90 -81 -277 -81zM440 -383v123q0 55 62 55h30q60 0 60 -55v-166q0 -27 -21 -47l-94 -92
q-23 -22 -45 -22q-19 0 -37 18l-31 31q-18 18 -18 37q0 22 22 45z" />
    <glyph glyph-name="scommaaccent" unicode="&#x219;" horiz-adv-x="850" vert-adv-y="2457" 
d="M493 0h-135q-148 0 -217 75q-49 52 -49 122q0 71 66 71h28q64 0 66 -59q1 -31 8 -44q16 -26 63 -26h203q46 0 65 22q21 23 21 84q0 62 -23 83q-20 18 -63 18h-149q-158 0 -221 69q-52 57 -52 171q0 125 66 183t207 58h110q148 0 218 -76q49 -52 49 -121q0 -71 -68 -71
h-25q-65 0 -67 59q-1 31 -9 44q-15 26 -61 26h-180q-47 0 -67 -22q-19 -21 -19 -79q0 -63 24 -84q20 -18 62 -18h149q158 0 221 -69q52 -57 52 -173q0 -124 -66 -184q-66 -59 -207 -59zM371 -385v123q0 55 62 55h30q60 0 60 -55v-166q0 -27 -21 -47l-94 -92q-22 -22 -45 -22
q-19 0 -37 18l-31 30q-18 19 -18 38q0 21 22 44z" />
    <glyph glyph-name="uni021A" unicode="&#x21a;" horiz-adv-x="918" vert-adv-y="2457" 
d="M380 961h-303q-57 0 -57 51v41q0 51 57 51h762q57 0 57 -51v-41q0 -51 -57 -51h-303v-910q0 -51 -55 -51h-46q-55 0 -55 51v910zM404 -383v123q0 55 62 55h30q60 0 60 -55v-166q0 -27 -21 -47l-94 -92q-23 -22 -44 -22q-20 0 -38 18l-31 31q-18 18 -18 37q0 22 22 45z
" />
    <glyph glyph-name="uni021B" unicode="&#x21b;" horiz-adv-x="532" vert-adv-y="2457" 
d="M287 821h166q59 0 59 -55v-29q0 -55 -59 -55h-166v-442q0 -62 23 -83q19 -18 63 -18h45q61 0 61 -55v-29q0 -55 -61 -55h-13q-151 0 -215 70q-57 64 -57 202v410h-52q-61 0 -61 55v29q0 55 61 55h52v125q0 55 61 55h31q62 0 62 -55v-125zM212 -385v123q0 55 61 55h31
q60 0 60 -55v-166q0 -27 -21 -47l-94 -92q-23 -22 -45 -22q-20 0 -37 18l-31 30q-18 19 -18 38q0 21 22 44z" />
    <glyph glyph-name="circumflex" unicode="&#x2c6;" vert-adv-y="2457" 
d="M428 1032l-158 -92q-22 -13 -37 -13q-23 0 -38 19q-14 18 -14 36q0 29 26 50l184 154q18 15 37 15q17 0 35 -15l184 -158q28 -24 28 -50q0 -21 -17 -38q-15 -16 -34 -16q-17 0 -40 14z" />
    <glyph glyph-name="caron" unicode="&#x2c7;" vert-adv-y="2457" 
d="M428 1100l156 92q22 13 41 13q20 0 38 -19q13 -15 13 -34q0 -26 -29 -50l-182 -154q-19 -16 -38 -16t-36 14l-184 160q-26 23 -26 48q0 19 16 38q15 16 36 16q18 0 38 -12z" />
    <glyph glyph-name="uni02C9" unicode="&#x2c9;" horiz-adv-x="887" vert-adv-y="2457" 
d="M639 929h-388q-61 0 -61 55v27q0 55 61 55h388q61 0 61 -55v-27q0 -55 -61 -55z" />
    <glyph glyph-name="breve" unicode="&#x2d8;" vert-adv-y="2457" 
d="M239 1183q22 0 62 -31q56 -41 128 -41q73 0 149 57q21 15 42 15q22 0 37 -14q18 -17 18 -41q0 -35 -41 -78q-84 -89 -206 -89q-121 0 -201 85q-43 46 -43 81q0 19 10 33q16 23 45 23z" />
    <glyph glyph-name="dotaccent" unicode="&#x2d9;" horiz-adv-x="459" vert-adv-y="2457" 
d="M245 957h-34q-70 0 -70 63v35q0 63 70 63h34q72 0 72 -63v-35q0 -63 -72 -63z" />
    <glyph glyph-name="ring" unicode="&#x2da;" horiz-adv-x="887" vert-adv-y="2457" 
d="M463 893h-39q-178 0 -178 164q0 81 41 118q42 37 137 37h39q178 0 178 -156q0 -85 -44 -125q-42 -38 -134 -38zM510 1049v8q0 29 -13 41q-14 12 -50 12h-6q-40 0 -52 -13q-10 -12 -10 -40v-8q0 -31 13 -42q13 -12 49 -12h6q39 0 52 15q11 11 11 39z" />
    <glyph glyph-name="ogonek" unicode="&#x2db;" horiz-adv-x="870" vert-adv-y="2457" 
d="M485 8v-43q0 -60 10 -78q13 -22 60 -22h61q62 0 62 -55v-29q0 -57 -62 -57h-36q-238 0 -238 194q0 14 2 33l6 57h135z" />
    <glyph glyph-name="tilde" unicode="&#x2dc;" horiz-adv-x="887" vert-adv-y="2457" 
d="M191 987l-25 21q-18 15 -18 34q0 17 18 39q87 110 186 110q67 0 158 -71q36 -28 59 -28q26 0 74 53q23 25 46 25q14 0 28 -11l27 -20q16 -13 16 -34q0 -18 -17 -40q-47 -61 -111 -93q-38 -19 -76 -19q-69 0 -159 71q-38 30 -60 30q-25 0 -73 -54q-19 -23 -44 -23
q-17 0 -29 10z" />
    <glyph glyph-name="hungarumlaut" unicode="&#x2dd;" horiz-adv-x="887" vert-adv-y="2457" 
d="M785 1147l-162 -186q-24 -28 -47 -28t-42 21q-12 12 -12 30q0 20 11 40l116 215q17 31 46 31q19 0 34 -10l45 -31q27 -18 27 -44q0 -19 -16 -38zM504 1147l-162 -186q-24 -28 -47 -28t-42 21q-12 12 -12 30q0 20 11 40l117 215q17 31 45 31q19 0 35 -10l45 -31
q26 -18 26 -44q0 -20 -16 -38z" />
    <glyph glyph-name="anoteleia" unicode="&#x387;" horiz-adv-x="467" vert-adv-y="2457" 
d="M262 481h-59q-70 0 -70 64v59q0 64 70 64h59q72 0 72 -64v-59q0 -64 -72 -64z" />
    <glyph glyph-name="uni2011" unicode="&#x2011;" horiz-adv-x="645" vert-adv-y="2457" 
d="M473 475h-299q-61 0 -61 55v29q0 55 61 55h299q60 0 60 -55v-29q0 -55 -60 -55z" />
    <glyph glyph-name="figuredash" unicode="&#x2012;" horiz-adv-x="895" vert-adv-y="2457" 
d="M723 475h-549q-61 0 -61 55v29q0 55 61 55h549q62 0 62 -55v-29q0 -55 -62 -55z" />
    <glyph glyph-name="endash" unicode="&#x2013;" horiz-adv-x="895" vert-adv-y="2457" 
d="M723 475h-549q-61 0 -61 55v29q0 55 61 55h549q62 0 62 -55v-29q0 -55 -62 -55z" />
    <glyph glyph-name="emdash" unicode="&#x2014;" horiz-adv-x="1157" vert-adv-y="2457" 
d="M983 475h-809q-61 0 -61 55v29q0 55 61 55h809q62 0 62 -55v-29q0 -55 -62 -55z" />
    <glyph glyph-name="afii00208" unicode="&#x2015;" horiz-adv-x="1157" vert-adv-y="2457" 
d="M983 475h-809q-61 0 -61 55v29q0 55 61 55h809q62 0 62 -55v-29q0 -55 -62 -55z" />
    <glyph glyph-name="quoteleft" unicode="&#x2018;" horiz-adv-x="358" vert-adv-y="2457" 
d="M234 932v-125q0 -55 -60 -55h-30q-62 0 -62 55v168q0 22 23 45l92 94q20 21 44 21q20 0 38 -17l33 -30q18 -17 18 -38q0 -25 -22 -46z" />
    <glyph glyph-name="quoteright" unicode="&#x2019;" horiz-adv-x="348" vert-adv-y="2457" 
d="M266 883v-2q0 -27 -21 -47l-94 -92q-23 -23 -46 -23q-18 0 -36 18l-21 21q-18 18 -18 37q0 22 23 45l61 61v146q0 55 62 55h28q62 0 62 -55v-164z" />
    <glyph glyph-name="quotesinglbase" unicode="&#x201a;" horiz-adv-x="358" vert-adv-y="2457" 
d="M124 33v123q0 55 62 55h30q60 0 60 -55v-166q0 -27 -21 -47l-94 -93q-22 -21 -45 -21q-20 0 -37 17l-31 31q-18 18 -18 38q0 21 22 44z" />
    <glyph glyph-name="quotedblleft" unicode="&#x201c;" horiz-adv-x="623" vert-adv-y="2457" 
d="M498 932v-125q0 -55 -62 -55h-28q-62 0 -62 55v168q0 25 21 45l94 94q21 21 44 21q20 0 38 -17l33 -30q18 -17 18 -38q0 -25 -22 -46zM234 932v-125q0 -55 -60 -55h-30q-62 0 -62 55v168q0 22 23 45l92 94q20 21 44 21q20 0 38 -17l33 -30q18 -17 18 -38q0 -25 -22 -46z
" />
    <glyph glyph-name="quotedblright" unicode="&#x201d;" horiz-adv-x="623" vert-adv-y="2457" 
d="M388 922v125q0 55 62 55h30q60 0 60 -55v-166q0 -27 -21 -47l-94 -92q-23 -23 -45 -23q-19 0 -37 18l-31 31q-19 19 -19 40t21 42zM124 922v125q0 55 62 55h30q60 0 60 -55v-166q0 -27 -21 -47l-94 -92q-23 -23 -45 -23q-19 0 -37 18l-31 31q-18 18 -18 38q0 22 22 44z
" />
    <glyph glyph-name="quotedblbase" unicode="&#x201e;" horiz-adv-x="623" vert-adv-y="2457" 
d="M388 33v123q0 55 62 55h30q60 0 60 -55v-166q0 -27 -21 -47l-94 -93q-22 -21 -45 -21q-20 0 -37 17l-31 31q-19 19 -19 40t21 42zM124 33v123q0 55 62 55h30q60 0 60 -55v-166q0 -27 -21 -47l-94 -93q-22 -21 -45 -21q-20 0 -37 17l-31 31q-18 18 -18 38q0 21 22 44z" />
    <glyph glyph-name="dagger" unicode="&#x2020;" horiz-adv-x="1040" vert-adv-y="2457" 
d="M597 821h260q61 0 61 -55v-29q0 -55 -61 -55h-260v-625q0 -57 -62 -57h-31q-59 0 -59 57v625h-261q-61 0 -61 55v29q0 55 61 55h261v244q0 57 61 57h31q60 0 60 -57v-244z" />
    <glyph glyph-name="daggerdbl" unicode="&#x2021;" horiz-adv-x="1040" vert-adv-y="2457" 
d="M597 430h260q61 0 61 -55v-29q0 -55 -61 -55h-260v-234q0 -57 -62 -57h-31q-59 0 -59 57v234h-261q-61 0 -61 55v29q0 55 61 55h261v252h-261q-61 0 -61 55v29q0 55 61 55h261v244q0 57 61 57h31q60 0 60 -57v-244h260q61 0 61 -55v-29q0 -55 -61 -55h-260v-252z" />
    <glyph glyph-name="bullet" unicode="&#x2022;" horiz-adv-x="784" vert-adv-y="2457" 
d="M392 818q108 0 184 -76q76 -77 76 -183q0 -109 -76 -184q-75 -76 -184 -76q-108 0 -183 76q-76 75 -76 182q0 108 76 185q76 76 183 76z" />
    <glyph glyph-name="ellipsis" unicode="&#x2026;" horiz-adv-x="1130" vert-adv-y="2457" 
d="M947 -8h-60q-69 0 -69 63v60q0 63 69 63h60q71 0 71 -63v-60q0 -63 -71 -63zM592 -8h-59q-70 0 -70 63v60q0 63 70 63h59q72 0 72 -63v-60q0 -63 -72 -63zM242 -8h-59q-70 0 -70 63v60q0 63 70 63h59q72 0 72 -63v-60q0 -63 -72 -63z" />
    <glyph glyph-name="perthousand" unicode="&#x2030;" horiz-adv-x="1724" vert-adv-y="2457" 
d="M1403 -10h-45q-117 0 -170 59q-49 55 -49 172v33q0 125 59 178q52 47 160 47h45q118 0 171 -58q48 -53 48 -167v-33q0 -129 -60 -184q-53 -47 -159 -47zM1483 193v79q0 48 -22 68q-21 18 -68 18h-25q-50 0 -70 -22q-18 -19 -18 -64v-79q0 -49 21 -69q21 -18 67 -18h25
q51 0 72 23q18 20 18 64zM416 627h-45q-117 0 -170 59q-49 54 -49 170v33q0 125 59 180q52 47 160 47h45q120 0 173 -59q48 -54 48 -168v-33q0 -127 -61 -182q-52 -47 -160 -47zM496 830v77q0 50 -22 70q-20 18 -66 18h-27q-50 0 -70 -22q-18 -19 -18 -66v-77q0 -50 21 -69
q19 -17 67 -17h27q51 0 71 21q17 19 17 65zM967 703l-581 -408q-32 -22 -32 -64l1 -34v-148q0 -49 -57 -49h-42q-57 0 -57 51v152q0 77 9 110q16 54 79 99l573 403q16 12 23 23q6 13 6 48v7v6v156q0 49 57 49h42q57 0 57 -51v-146q0 -70 -8 -104q-15 -61 -70 -100zM875 -10
h-45q-117 0 -170 59q-49 55 -49 172v33q0 125 59 178q52 47 160 47h45q118 0 171 -58q48 -53 48 -167v-33q0 -129 -61 -184q-52 -47 -158 -47zM955 193v79q0 48 -22 68q-21 18 -68 18h-25q-50 0 -70 -22q-18 -19 -18 -64v-79q0 -49 22 -69q20 -18 66 -18h25q51 0 72 23
q18 20 18 64z" />
    <glyph glyph-name="guilsinglleft" unicode="&#x2039;" horiz-adv-x="428" vert-adv-y="2457" 
d="M220 430l127 -246q2 -4 2 -14v-3q0 -17 -13 -31q-14 -13 -32 -13h-74q-26 0 -37 20l-104 203q-23 44 -23 82q0 32 23 78l104 211q11 22 37 22h72q18 0 31 -13q14 -14 14 -32q0 -7 -5 -16z" />
    <glyph glyph-name="guilsinglright" unicode="&#x203a;" horiz-adv-x="428" vert-adv-y="2457" 
d="M197 430l-125 248q-4 8 -4 16q0 18 13 31q14 14 34 14h70q25 0 37 -22l104 -211q23 -47 23 -79q0 -36 -23 -81l-104 -203q-11 -20 -37 -20h-74q-19 0 -32 13q-13 14 -13 32v5v2q0 6 2 9z" />
    <glyph glyph-name="fraction" unicode="&#x2044;" horiz-adv-x="575" vert-adv-y="2457" 
d="M542 1034l-366 -1009q-9 -25 -43 -25h-51q-28 0 -42 20q-9 13 -9 29q0 11 3 21l367 1009q9 25 43 25h51q31 0 46 -28q5 -10 5 -23q0 -8 -4 -19z" />
    <glyph glyph-name="Euro" unicode="&#x20ac;" horiz-adv-x="1167" vert-adv-y="2457" 
d="M310 387v-92q0 -98 44 -138q37 -34 111 -34h271q152 0 155 160q2 63 58 63h59q56 0 56 -69q0 -140 -88 -218q-89 -79 -263 -79h-197q-201 0 -285 94q-77 86 -77 270v43h-56q-55 0 -55 51v35q0 51 55 51h56v78h-56q-55 0 -55 51v39q0 51 55 51h56q2 125 22 187
q38 115 140 160q73 32 200 32h197q191 0 281 -97q70 -75 70 -197q0 -44 -17 -59q-13 -12 -39 -12h-57q-56 0 -58 64q-3 158 -155 158h-273q-82 0 -120 -42q-35 -40 -35 -130v-64h422q57 0 57 -51v-39q0 -51 -57 -51h-422v-78h422q57 0 57 -51v-35q0 -51 -57 -51h-422z" />
    <glyph glyph-name="trademark" unicode="&#x2122;" horiz-adv-x="1440" vert-adv-y="2457" 
d="M991 764l196 207q12 13 12 33v67q0 33 37 33h37q39 0 39 -33v-617q0 -34 -39 -34h-37q-37 0 -37 34v297q0 17 4 38q2 11 2 15q0 21 -19 21q-9 0 -34 -31l-11 -14l-4 -4l-5 -6l-115 -123q-2 -3 -5 -7q-9 -12 -15 -12h-29q-7 0 -20 19l-113 119q-3 4 -17 22q-24 33 -35 33
q-19 0 -19 -20q0 -6 2 -16q4 -19 4 -38v-293q0 -34 -37 -34h-39q-37 0 -37 34v617q0 33 37 33h39q37 0 37 -33v-63q0 -20 10 -31l202 -213h9zM253 1000h-197q-36 0 -36 35v36q0 33 36 33h507q36 0 36 -33v-36q0 -35 -36 -35h-197v-545q0 -35 -37 -35h-39q-37 0 -37 35v545z
" />
    <glyph glyph-name="uni2126" unicode="&#x2126;" horiz-adv-x="1149" vert-adv-y="2457" 
d="M354 143q0 49 -2 64q-6 37 -29 55l-108 84q-113 87 -113 303v111q0 200 94 286q84 76 268 76h219q202 0 286 -94q77 -85 77 -268v-111q0 -216 -113 -303l-108 -84q-26 -20 -30 -64q-1 -13 -1 -55h172q64 0 64 -53v-33q0 -57 -64 -57h-268q-62 0 -62 57v66q0 83 12 131
q17 70 74 114l113 86q51 39 51 146v207q0 99 -43 138q-37 34 -113 34h-312q-84 0 -121 -41q-35 -40 -35 -131v-207q0 -107 51 -146l113 -86q50 -38 69 -97q17 -51 17 -148v-66q0 -57 -62 -57h-268q-64 0 -64 57v33q0 53 64 53h172z" />
    <glyph glyph-name="partialdiff" unicode="&#x2202;" horiz-adv-x="897" vert-adv-y="2457" 
d="M502 0h-116q-151 0 -215 71q-58 64 -58 201v287q0 281 283 281q108 0 190 -42q17 -8 23 -8q24 0 24 23q0 7 -3 25q-7 35 -7 63v74q0 60 -23 80q-19 18 -65 18h-76q-61 0 -61 55v29q0 57 61 57h43q150 0 214 -70q59 -65 59 -204v-668q0 -150 -72 -214q-64 -58 -201 -58z
M623 239v349q0 61 -23 82q-20 18 -65 18h-182q-48 0 -68 -22t-20 -78v-349q0 -61 24 -82q20 -18 64 -18h182q57 0 75 31q13 21 13 69z" />
    <glyph glyph-name="uni2206" unicode="&#x2206;" horiz-adv-x="1059" vert-adv-y="2457" 
d="M973 0h-887q-23 0 -36 20q-9 12 -9 27q0 9 2 14l387 1010q13 33 43 33h129q31 0 43 -33l371 -1010q3 -8 3 -16q0 -16 -12 -29q-14 -16 -34 -16zM811 131l-190 551q-53 152 -72 301h-31q-21 -163 -71 -301l-203 -551h567z" />
    <glyph glyph-name="product" unicode="&#x220f;" horiz-adv-x="1161" vert-adv-y="2457" 
d="M242 961h-144q-57 0 -57 51v41q0 51 57 51h964q57 0 57 -51v-41q0 -51 -57 -51h-147v-1057q0 -51 -56 -51h-45q-55 0 -55 51v1057h-361v-1057q0 -51 -56 -51h-45q-55 0 -55 51v1057z" />
    <glyph glyph-name="summation" unicode="&#x2211;" horiz-adv-x="1001" vert-adv-y="2457" 
d="M719 0v100q0 52 57 52h45q58 0 58 -52v-192q0 -51 -58 -51h-736q-18 0 -32 13q-13 13 -13 32v5v2q0 6 2 9l307 576l-274 549q-4 8 -4 16q0 18 13 31q14 14 34 14h697q57 0 57 -51v-192q0 -52 -57 -52h-45q-58 0 -58 52v100h-414l191 -391q22 -46 22 -79q0 -41 -22 -81
l-230 -410h460z" />
    <glyph glyph-name="minus" unicode="&#x2212;" horiz-adv-x="799" vert-adv-y="2457" 
d="M596 475h-396q-61 0 -61 55v29q0 55 61 55h396q61 0 61 -55v-29q0 -55 -61 -55z" />
    <glyph glyph-name="radical" unicode="&#x221a;" horiz-adv-x="1065" vert-adv-y="2457" 
d="M444 121q21 199 54 301l213 659q7 23 39 23h249q58 0 58 -51v-41q0 -51 -58 -51h-163l-293 -928q-11 -33 -43 -33h-156q-33 0 -43 33l-221 724q-2 7 -2 13q0 15 8 28q13 23 39 23h80q32 0 39 -23l114 -376q34 -110 54 -301h32z" />
    <glyph glyph-name="infinity" unicode="&#x221e;" horiz-adv-x="1241" vert-adv-y="2457" 
d="M621 643q50 96 87 129q59 55 169 55q241 0 241 -268v-31q0 -268 -254 -268q-79 0 -124 25q-40 22 -90 106q-11 20 -29 49q-52 -96 -88 -129q-59 -53 -170 -53q-240 0 -240 266v31q0 147 72 212q61 56 181 56q79 0 125 -25q40 -23 89 -107q13 -21 31 -48zM727 540l64 -106
q24 -41 71 -41h15q48 0 68 22q20 21 20 76v97q0 57 -23 78q-21 20 -65 20h-17q-45 0 -69 -41zM514 534l-63 107q-25 41 -72 41h-14q-49 0 -68 -21q-18 -21 -18 -78v-96q0 -58 22 -79q20 -19 64 -19h16q45 0 70 41z" />
    <glyph glyph-name="integral" unicode="&#x222b;" horiz-adv-x="494" vert-adv-y="2457" 
d="M496 1231h-104q-50 0 -69 -22q-19 -20 -19 -76v-1246q0 -152 -72 -217q-64 -57 -201 -57h-72q-59 0 -59 57v29q0 55 59 55h105q50 0 69 21t19 77v1246q0 152 72 217q64 57 201 57h71q60 0 60 -57v-29q0 -55 -60 -55z" />
    <glyph glyph-name="approxequal" unicode="&#x2248;" horiz-adv-x="799" vert-adv-y="2457" 
d="M163 592l-24 20q-19 16 -19 35q0 18 19 41q87 107 164 107q59 0 143 -68q33 -27 50 -27q16 0 61 49q22 26 45 26q13 0 30 -13l25 -19q18 -13 18 -35q0 -18 -15 -39q-84 -110 -168 -110q-33 0 -71 19q-20 10 -71 51q-34 26 -50 26q-18 0 -46 -33q-37 -42 -61 -42
q-16 0 -30 12zM163 305l-24 19q-19 14 -19 35q0 18 18 42q48 63 107 91q29 15 58 15q57 0 143 -69q33 -27 49 -27q18 0 47 35q34 41 61 41q15 0 29 -12l25 -20q19 -16 19 -35q0 -20 -19 -41q-92 -108 -164 -108q-56 0 -143 69q-34 27 -50 27q-18 0 -46 -33q-35 -41 -60 -41
q-14 0 -31 12z" />
    <glyph glyph-name="notequal" unicode="&#x2260;" horiz-adv-x="799" vert-adv-y="2457" 
d="M442 458h154q61 0 61 -55v-29q0 -55 -61 -55h-205l-49 -135q-9 -25 -43 -25h-39q-28 0 -42 20q-9 13 -9 30q0 10 4 20l32 90h-45q-61 0 -61 55v29q0 55 61 55h97l53 148h-150q-61 0 -61 55v29q0 55 61 55h201l53 148q9 24 43 24h39q32 0 45 -27q6 -10 6 -24q0 -9 -4 -19
l-36 -102h49q61 0 61 -55v-29q0 -55 -61 -55h-101z" />
    <glyph glyph-name="lessequal" unicode="&#x2264;" horiz-adv-x="799" vert-adv-y="2457" 
d="M227 612q181 -57 367 -143q59 -28 67 -40t8 -26v-53q0 -22 -19 -37q-14 -11 -29 -11q-9 0 -15 3l-475 232q-33 16 -33 43v88q0 27 33 43l475 233q6 3 15 3q17 0 31 -12q17 -15 17 -36v-63q0 -17 -11 -30q-6 -8 -36 -21q-6 -3 -23 -12q-191 -95 -372 -152v-9zM612 0h-451
q-61 0 -61 55v29q0 55 61 55h451q61 0 61 -55v-29q0 -55 -61 -55z" />
    <glyph glyph-name="greaterequal" unicode="&#x2265;" horiz-adv-x="799" vert-adv-y="2457" 
d="M574 621q-174 55 -372 152q-16 9 -23 12q-30 14 -35 20q-12 13 -12 31v63q0 23 19 38q14 10 29 10q9 0 15 -3l475 -233q33 -16 33 -43v-88q0 -27 -33 -43l-475 -232q-6 -3 -14 -3q-17 0 -32 13q-17 15 -17 35v53q0 23 17 36q6 5 114 55q141 65 311 118v9zM629 0h-449
q-61 0 -61 55v29q0 55 61 55h449q61 0 61 -55v-29q0 -55 -61 -55z" />
    <glyph glyph-name="dotmath" unicode="&#x22c5;" horiz-adv-x="467" vert-adv-y="2457" 
d="M262 481h-59q-70 0 -70 64v59q0 64 70 64h59q72 0 72 -64v-59q0 -64 -72 -64z" />
    <glyph glyph-name="lozenge" unicode="&#x25ca;" horiz-adv-x="1065" vert-adv-y="2457" 
d="M983 522l-344 -489q-23 -33 -45 -33h-137q-23 0 -45 33l-332 493q-9 13 -9 25q0 19 13 37l344 485q23 33 45 33h137q21 0 43 -33l330 -487q12 -18 12 -33q0 -13 -12 -31zM817 549l-276 418h-5l-286 -410l274 -418h8z" />
    <glyph glyph-name="uniFB01" unicode="&#xfb01;" horiz-adv-x="881" vert-adv-y="2457" 
d="M688 955h-35q-70 0 -70 63v35q0 63 70 63h35q71 0 71 -63v-35q0 -63 -71 -63zM304 821h386q60 0 60 -55v-713q0 -55 -60 -55h-31q-61 0 -61 55v629h-294v-627q0 -55 -62 -55h-29q-61 0 -61 55v627h-50q-61 0 -61 55v29q0 55 61 55h50v119q0 152 71 217q64 57 201 57h14
q60 0 60 -57v-29q0 -55 -60 -55h-47q-49 0 -69 -22q-18 -20 -18 -76v-154z" />
    <glyph glyph-name="uniFB02" unicode="&#xfb02;" horiz-adv-x="920" vert-adv-y="2457" 
d="M152 821v119q0 152 71 217q64 57 201 57h280q60 0 60 -57v-940q0 -51 21 -63q11 -6 42 -7q64 0 64 -67v-23q0 -63 -98 -63q-181 0 -181 215v864h-221q-50 0 -69 -21q-18 -21 -18 -77v-154h69q61 0 61 -55v-29q0 -55 -61 -55h-69v-627q0 -55 -62 -55h-29q-61 0 -61 55v627
h-50q-61 0 -61 55v29q0 55 61 55h50z" />
    <glyph glyph-name="glyph155" horiz-adv-x="348" vert-adv-y="2457" 
 />
    <glyph glyph-name="glyph172" horiz-adv-x="1167" vert-adv-y="1167" 
 />
    <glyph glyph-name="glyph210" horiz-adv-x="348" vert-adv-y="2457" 
 />
    <glyph glyph-name="glyph336" horiz-adv-x="870" vert-adv-y="2457" 
d="M485 8v-43q0 -60 10 -78q13 -22 60 -22h61q62 0 62 -55v-29q0 -57 -62 -57h-36q-238 0 -238 194q0 14 2 33l6 57h135z" />
    <glyph glyph-name="glyph337" horiz-adv-x="870" vert-adv-y="2457" 
d="M529 8l6 -57q2 -20 2 -32q0 -195 -236 -195h-37q-61 0 -61 57v29q0 55 61 55h62q40 0 55 16t15 82v45h133z" />
    <glyph glyph-name="glyph338" horiz-adv-x="887" vert-adv-y="2457" 
d="M785 1407l-162 -187q-24 -27 -47 -27t-42 21q-12 12 -12 30q0 20 11 40l116 215q17 31 46 31q19 0 34 -11l45 -30q27 -18 27 -44q0 -19 -16 -38zM504 1407l-162 -187q-24 -27 -47 -27t-42 21q-12 12 -12 30q0 20 11 40l117 215q17 31 45 31q19 0 35 -11l45 -30
q26 -18 26 -44q0 -20 -16 -38z" />
    <glyph glyph-name="glyph339" horiz-adv-x="887" vert-adv-y="2457" 
d="M191 1203l-25 20q-18 15 -18 34q0 18 18 40q86 109 186 109q68 0 158 -70q36 -28 59 -28q26 0 74 52q23 25 46 25q15 0 28 -10l27 -21q16 -12 16 -34q0 -18 -17 -39q-47 -61 -111 -93q-38 -19 -76 -19q-69 0 -159 70q-38 30 -60 30q-25 0 -73 -54q-20 -23 -44 -23
q-16 0 -29 11z" />
    <glyph glyph-name="glyph340" vert-adv-y="2457" 
d="M239 1416q22 0 62 -31q55 -41 128 -41t149 57q21 15 42 15q22 0 37 -14q18 -17 18 -41q0 -35 -41 -78q-84 -89 -206 -89q-121 0 -201 85q-43 46 -43 81q0 19 10 33q16 23 45 23z" />
    <glyph glyph-name="glyph341" horiz-adv-x="348" vert-adv-y="2457" 
d="M85 1138v2q0 27 20 47l95 92q23 23 46 23q18 0 36 -18l20 -21q19 -18 19 -37q0 -22 -23 -45l-61 -61v-146q0 -55 -62 -55h-28q-62 0 -62 55v164z" />
    <glyph glyph-name="glyph342" vert-adv-y="2457" 
d="M428 1367l156 92q22 13 41 13q21 0 38 -19q13 -15 13 -34q0 -26 -29 -50l-182 -154q-19 -16 -38 -16t-36 14l-184 160q-26 23 -26 49q0 19 16 37q15 17 36 17q16 0 38 -13z" />
    <glyph glyph-name="glyph343" horiz-adv-x="348" vert-adv-y="2457" 
d="M266 883v-2q0 -27 -21 -47l-94 -92q-23 -23 -46 -23q-18 0 -36 18l-21 21q-18 18 -18 37q0 22 23 45l61 61v146q0 55 62 55h28q62 0 62 -55v-164z" />
    <glyph glyph-name="glyph344" horiz-adv-x="358" vert-adv-y="2457" 
d="M124 -385v123q0 55 62 55h30q60 0 60 -55v-166q0 -27 -21 -47l-94 -92q-22 -22 -45 -22q-19 0 -37 18l-31 30q-18 19 -18 38q0 21 22 44z" />
    <glyph glyph-name="glyph345" horiz-adv-x="907" vert-adv-y="2457" 
d="M668 1207h-35q-70 0 -70 64v35q0 63 70 63h35q71 0 71 -63v-35q0 -64 -71 -64zM274 1207h-34q-70 0 -70 64v35q0 63 70 63h34q72 0 72 -63v-35q0 -64 -72 -64z" />
    <glyph glyph-name="glyph346" horiz-adv-x="459" vert-adv-y="2457" 
d="M245 1224h-34q-70 0 -70 64v35q0 63 70 63h34q72 0 72 -63v-35q0 -64 -72 -64z" />
    <glyph glyph-name="glyph347" horiz-adv-x="887" vert-adv-y="2457" 
d="M463 1200h-39q-178 0 -178 164q0 81 41 118q42 37 137 37h39q178 0 178 -156q0 -85 -44 -125q-42 -38 -134 -38zM510 1356v8q0 29 -13 41q-14 12 -50 12h-6q-40 0 -52 -13q-10 -12 -10 -40v-8q0 -31 13 -42q13 -12 49 -12h6q39 0 52 15q11 11 11 39z" />
    <glyph glyph-name="glyph348" vert-adv-y="2457" 
d="M666 1404h-2q13 -18 13 -34q0 -28 -32 -46l-215 -121q-20 -11 -39 -11q-24 0 -40 24q-10 15 -10 30q0 27 26 49l184 162q18 16 36 16q26 0 46 -26z" />
    <glyph glyph-name="glyph349" horiz-adv-x="852" vert-adv-y="2457" 
d="M412 1205l-215 117q-31 17 -31 47q0 14 13 33l32 49q18 27 45 27q19 0 37 -17l183 -164q28 -25 28 -50q0 -13 -7 -25q-17 -28 -44 -28q-20 0 -41 11z" />
    <glyph glyph-name="glyph350" horiz-adv-x="348" vert-adv-y="2457" 
d="M266 883v-2q0 -27 -21 -47l-94 -92q-23 -23 -46 -23q-18 0 -36 18l-21 21q-18 18 -18 37q0 22 23 45l61 61v146q0 55 62 55h28q62 0 62 -55v-164z" />
    <glyph glyph-name="glyph351" horiz-adv-x="358" vert-adv-y="2457" 
d="M124 -383v123q0 55 62 55h30q60 0 60 -55v-166q0 -27 -21 -47l-94 -92q-23 -22 -45 -22q-19 0 -37 18l-31 31q-18 18 -18 37q0 22 22 45z" />
    <glyph glyph-name="glyph352" horiz-adv-x="887" vert-adv-y="2457" 
d="M639 1197h-388q-61 0 -61 55v27q0 55 61 55h388q61 0 61 -55v-27q0 -55 -61 -55z" />
    <glyph glyph-name="glyph353" vert-adv-y="2457" 
d="M428 1288l-158 -93q-21 -12 -37 -12q-23 0 -38 19q-14 18 -14 36q0 28 26 50l184 153q18 15 37 15q18 0 35 -15l184 -158q28 -23 28 -50q0 -21 -17 -38q-15 -16 -34 -16q-17 0 -40 14z" />
  </font>
</defs>
</svg>
