<svg width="306" height="306" viewBox="0 0 306 306" fill="none" xmlns="http://www.w3.org/2000/svg">
<g clip-path="url(#clip0_409_4619)">
<g clip-path="url(#clip1_409_4619)">
<g clip-path="url(#clip2_409_4619)">
<path d="M248.487 3.81318L53.7062 2.62308C26.3384 2.45587 4.01679 24.5063 3.84957 51.8742L2.65948 246.655C2.49226 274.023 24.5427 296.345 51.9106 296.512L246.692 297.702C274.059 297.869 296.381 275.819 296.548 248.451L297.738 53.6698C297.906 26.302 275.855 3.98039 248.487 3.81318Z" fill="#F0F0F0"/>
</g>
</g>
<path d="M262.927 173.361L252.661 181.145L242.424 174.016C242.424 173.267 242.424 172.471 242.377 171.675C242.377 170.926 242.377 170.131 242.33 169.335C241.675 150.891 236.994 131.137 227.632 116.673C220.423 105.579 211.201 100.289 200.903 100.289C190.089 100.289 181.289 106.749 171.552 120.792C171.272 121.213 170.944 121.635 170.663 122.103C170.476 122.337 170.335 122.571 170.148 122.852C169.68 123.554 169.212 124.256 168.744 125.005C164.531 131.559 160.131 139.189 155.356 147.615C154.935 148.41 154.466 149.206 154.045 150.002C153.905 150.189 153.764 150.423 153.671 150.611L152.688 152.343L146.883 162.594C133.261 186.702 129.797 192.225 123.01 201.26C111.073 217.129 100.868 223.167 87.4336 223.167C71.5179 223.167 61.4068 216.286 55.181 205.894C50.0786 197.468 47.5977 186.374 47.5977 173.735L70.8626 174.531C70.8626 182.77 72.6414 189.042 75.0287 192.881C78.1182 197.843 82.6589 199.762 87.3867 199.762C93.4253 199.762 99.0426 198.498 109.715 183.706C118.282 171.863 128.393 155.292 135.18 144.853L141.594 135.069L142.951 132.916L144.355 130.81L146.696 127.205C150.254 121.775 154.092 116.017 158.211 110.494C158.679 109.838 159.148 109.183 159.662 108.528C160.131 107.872 160.645 107.217 161.114 106.609C165.327 101.225 169.774 96.2165 174.548 92.0972C183.208 84.5607 192.524 80.3945 201.933 80.3945C217.708 80.3945 232.734 89.5226 244.249 106.655C255.999 124.163 262.131 145.976 262.833 168.68C262.88 169.428 262.88 170.224 262.88 171.02C262.927 171.816 262.927 172.565 262.927 173.361Z" fill="#0081FB"/>
<path d="M65.9375 108.275C76.5963 91.8678 91.9877 80.3945 109.635 80.3945C119.859 80.3945 130.017 83.4138 140.629 92.0644C152.233 101.52 164.605 117.089 180.039 142.751L185.572 151.959C198.931 174.175 206.529 185.602 210.98 190.994C216.701 197.917 220.272 199.762 225.478 199.762C238.678 199.762 242.409 187.872 242.409 174.011L262.926 173.37C262.926 187.858 260.066 198.503 255.198 206.91C250.498 215.041 241.333 223.167 225.913 223.167C216.326 223.167 207.835 221.089 198.445 212.246C191.226 205.459 182.786 193.4 176.294 182.564L156.98 150.362C147.29 134.203 138.4 122.15 133.256 116.696C127.723 110.826 120.889 103.805 109.537 103.805C100.348 103.805 92.2685 110.18 85.7384 120.024L65.9375 108.275Z" fill="url(#paint0_linear_409_4619)"/>
<path d="M109.622 103.8C100.452 103.8 92.3815 110.176 85.8654 120.02C76.6484 133.932 71.003 154.65 71.003 174.55C71.003 182.755 70.989 188.93 73.3435 192.74L55.3682 205.908C50.2846 197.454 47.5977 186.655 47.5977 174.016C47.5977 151.032 53.9405 126.779 65.9381 108.275C76.5828 91.8678 92.1006 80.3945 109.715 80.3945L109.622 103.8Z" fill="url(#paint1_linear_409_4619)"/>
<path opacity="0.05" d="M144.363 130.807L142.959 132.913L141.602 135.066C144.925 139.888 148.717 145.692 152.696 152.34L153.679 150.608C153.772 150.42 153.913 150.186 154.053 149.999C154.475 149.203 154.943 148.407 155.364 147.612C151.479 141.245 147.734 135.581 144.363 130.807ZM159.67 108.525C159.156 109.18 158.687 109.835 158.219 110.491C161.637 114.751 165.101 119.572 168.752 125.002C169.22 124.253 169.688 123.551 170.156 122.849C170.343 122.568 170.484 122.334 170.671 122.1C170.952 121.632 171.28 121.21 171.56 120.789C168.003 115.546 164.539 110.818 161.122 106.605C160.654 107.214 160.139 107.869 159.67 108.525Z" fill="black"/>
<path opacity="0.07" d="M144.361 130.809L142.957 132.916C146.281 137.69 150.025 143.401 154.051 150.002C154.472 149.206 154.941 148.41 155.362 147.614C151.477 141.248 147.732 135.584 144.361 130.809ZM158.217 110.493C161.634 114.753 165.098 119.575 168.75 125.005C169.218 124.256 169.686 123.554 170.154 122.851C166.55 117.515 163.039 112.74 159.668 108.527C159.154 109.183 158.685 109.838 158.217 110.493Z" fill="black"/>
</g>
<defs>
<linearGradient id="paint0_linear_409_4619" x1="240.944" y1="151.781" x2="106.265" y2="151.781" gradientUnits="userSpaceOnUse">
<stop stop-color="#0081FB"/>
<stop offset="0.995" stop-color="#0064E1"/>
</linearGradient>
<linearGradient id="paint1_linear_409_4619" x1="78.6566" y1="189.791" x2="78.6566" y2="96.8345" gradientUnits="userSpaceOnUse">
<stop stop-color="#0081FB"/>
<stop offset="0.995" stop-color="#0064E1"/>
</linearGradient>
<clipPath id="clip0_409_4619">
<rect width="303.333" height="303.333" fill="white" transform="translate(2.65234 0.820312) rotate(0.350068)"/>
</clipPath>
<clipPath id="clip1_409_4619">
<rect width="303.333" height="303.333" fill="white" transform="translate(2.65234 0.820312) rotate(0.350068)"/>
</clipPath>
<clipPath id="clip2_409_4619">
<rect width="303.333" height="303.333" fill="white" transform="translate(2.65234 0.820312) rotate(0.350068)"/>
</clipPath>
</defs>
</svg>
