<svg width="306" height="306" viewBox="0 0 306 306" fill="none" xmlns="http://www.w3.org/2000/svg">
<g clip-path="url(#clip0_409_4605)">
<g clip-path="url(#clip1_409_4605)">
<g clip-path="url(#clip2_409_4605)">
<path d="M248.511 2.99286L53.7297 1.80277C26.3618 1.63555 4.04023 23.686 3.87301 51.0539L2.68292 245.835C2.5157 273.203 24.5662 295.524 51.934 295.692L246.715 296.882C274.083 297.049 296.404 274.998 296.572 247.631L297.762 52.8495C297.929 25.4817 275.879 3.16008 248.511 2.99286Z" fill="#9BCDE9"/>
</g>
<path d="M234.866 210.648C234.866 223.577 224.39 234.054 211.461 234.054H89.753C76.8286 234.054 66.3477 223.577 66.3477 210.648V88.9405C66.3477 76.0114 76.8286 65.5352 89.753 65.5352H211.461C224.39 65.5352 234.866 76.0114 234.866 88.9405V210.648Z" fill="#0288D1"/>
<path d="M94.4336 126.389H117.839V205.967H94.4336V126.389ZM106.066 117.026H105.935C98.9508 117.026 94.4336 111.821 94.4336 105.319C94.4336 98.6766 99.0913 93.6211 106.202 93.6211C113.322 93.6211 117.708 98.6766 117.839 105.319C117.839 111.816 113.322 117.026 106.066 117.026ZM206.779 205.967H183.374V163.374C183.374 153.085 177.64 146.063 168.432 146.063C161.406 146.063 157.605 150.8 155.76 155.378C155.086 157.017 155.288 161.548 155.288 163.837V205.967H131.882V126.389H155.288V138.634C158.663 133.41 163.947 126.389 177.466 126.389C194.215 126.389 206.775 136.921 206.775 160.439L206.779 205.967Z" fill="white"/>
</g>
</g>
<defs>
<clipPath id="clip0_409_4605">
<rect width="303.333" height="303.333" fill="white" transform="translate(2.67969) rotate(0.350068)"/>
</clipPath>
<clipPath id="clip1_409_4605">
<rect width="303.333" height="303.333" fill="white" transform="translate(2.67969) rotate(0.350068)"/>
</clipPath>
<clipPath id="clip2_409_4605">
<rect width="303.333" height="303.333" fill="white" transform="translate(2.67969) rotate(0.350068)"/>
</clipPath>
</defs>
</svg>
