<svg width="306" height="306" viewBox="0 0 306 306" fill="none" xmlns="http://www.w3.org/2000/svg">
<g clip-path="url(#clip0_409_4612)">
<g clip-path="url(#clip1_409_4612)">
<g clip-path="url(#clip2_409_4612)">
<path d="M247.893 3.02411L53.1125 1.83402C25.7446 1.6668 3.42304 23.7173 3.25582 51.0851L2.06573 245.866C1.89852 273.234 23.949 295.556 51.3168 295.723L246.098 296.913C273.466 297.08 295.787 275.03 295.955 247.662L297.145 52.8808C297.312 25.5129 275.261 3.19133 247.893 3.02411Z" fill="black"/>
<path fill-rule="evenodd" clip-rule="evenodd" d="M234.612 70.2461L89.1667 238.765H71.7812L217.231 70.2461H234.612Z" fill="white"/>
<path fill-rule="evenodd" clip-rule="evenodd" d="M188.473 234.086L79.2969 74.9297H121.225L230.402 234.086H188.473Z" fill="black"/>
<path fill-rule="evenodd" clip-rule="evenodd" d="M116.294 84.2893L212.621 224.721H193.401L97.0735 84.2893H116.294ZM123.69 70.2461H70.4102L186.004 238.765H239.284L123.69 70.2461Z" fill="white"/>
</g>
</g>
</g>
<defs>
<clipPath id="clip0_409_4612">
<rect width="303.333" height="303.333" fill="white" transform="translate(2.0625 0.03125) rotate(0.350068)"/>
</clipPath>
<clipPath id="clip1_409_4612">
<rect width="303.333" height="303.333" fill="white" transform="translate(2.0625 0.03125) rotate(0.350068)"/>
</clipPath>
<clipPath id="clip2_409_4612">
<rect width="303.333" height="303.333" fill="white" transform="translate(2.0625 0.03125) rotate(0.350068)"/>
</clipPath>
</defs>
</svg>
