<svg width="308" height="270" viewBox="0 0 308 270" fill="none" xmlns="http://www.w3.org/2000/svg">
<path d="M176.678 269.5H130.136C22.5294 269.5 -4.59002e-06 238.95 0 134.75C4.59004e-06 30.5506 23.7151 -4.61601e-06 130.136 0L176.678 2.0187e-06C284.285 6.68615e-06 308 30.8234 308 134.75C308 238.676 284.285 269.5 176.678 269.5Z" fill="white"/>
<path d="M74.828 180.183C74.828 171.699 74.9923 163.216 74.7732 154.789C74.39 138.994 80.3581 125.934 91.4184 115.274C108.173 99.0889 128.268 92.6706 151.155 94.5681C168.512 96.0192 183.788 102.326 196.272 114.828C209.796 128.39 216.312 144.743 212.041 164.165C208.482 180.35 199.119 192.684 185.048 200.777C161.777 214.172 137.466 216.237 112.499 205.912C111.568 205.521 110.637 205.075 109.761 204.628C105.381 202.396 105.381 202.396 101.822 206.023C97.8246 210.098 93.7728 214.116 89.8306 218.246C87.0381 221.148 83.8076 222.097 80.1391 220.534C76.4159 218.972 74.8827 215.958 74.8827 211.884C74.828 201.391 74.828 190.787 74.828 180.183ZM144.201 148.817C138.342 148.817 132.539 148.817 126.68 148.817C118.905 148.817 111.185 148.817 103.41 148.817C101.274 148.817 99.4125 149.71 99.1387 151.886C98.9745 153.449 99.4125 155.514 100.398 156.63C101.219 157.579 103.191 157.802 104.669 157.802C128.761 157.858 152.852 157.858 176.889 157.858C179.517 157.858 182.2 157.914 184.829 157.802C188.004 157.635 190.03 154.677 188.88 151.719C188.004 149.375 186.143 148.761 183.843 148.761C170.647 148.817 157.452 148.817 144.201 148.817ZM144.146 176.778C152.962 176.778 161.832 176.778 170.647 176.778C174.097 176.778 175.958 175.104 175.958 172.202C175.958 169.244 174.206 167.681 170.702 167.569C170.319 167.569 169.99 167.569 169.607 167.569C152.578 167.569 135.55 167.569 118.467 167.569C117.372 167.569 116.277 167.625 115.236 167.848C112.991 168.407 111.623 170.751 112.115 172.983C112.608 175.439 114.36 176.778 117.372 176.834C126.297 176.834 135.222 176.778 144.146 176.778ZM144.037 138.938C153.071 138.938 162.106 139.05 171.14 138.827C172.618 138.771 174.59 137.766 175.301 136.538C176.013 135.422 175.904 132.966 175.137 131.962C174.152 130.79 172.071 129.953 170.483 129.953C153.236 129.841 135.988 129.841 118.741 129.841C117.81 129.841 116.934 129.785 116.003 129.897C113.594 130.176 111.951 132.129 112.006 134.417C112.061 136.817 113.703 138.603 116.112 138.827C116.934 138.882 117.755 138.882 118.576 138.882C127.063 138.994 135.55 138.994 144.037 138.938Z" fill="#1C275F"/>
<g clip-path="url(#clip0_146_45)">
<path d="M253.764 95.9488C253.764 96.7241 253.264 97.0514 252.575 97.1893C251.869 97.3271 251.162 97.4132 250.456 97.5683C240.533 99.8252 233.572 105.666 229.679 115.038C228.8 117.157 228.421 119.483 227.887 121.74C227.663 122.687 227.301 123.17 226.543 123.118C225.682 123.066 225.406 122.48 225.303 121.74C223.425 108.887 213.639 99.0671 200.856 97.2237C199.874 97.0859 199.426 96.6896 199.426 95.9316C199.426 95.1735 199.874 94.7773 200.856 94.6395C213.57 92.865 223.459 82.9587 225.32 70.1408C225.475 69.1243 225.992 68.6419 226.819 68.7798C227.611 68.9004 227.801 69.5034 227.887 70.158C228.455 74.1895 229.765 77.9625 231.97 81.3909C236.742 88.8508 243.53 93.244 252.282 94.6395C253.299 94.8117 253.764 95.1908 253.764 95.9488Z" fill="#1C275F"/>
<path d="M210.778 67.1254C210.451 67.2977 210.141 67.5733 209.779 67.6423C207.712 68.0041 205.799 68.7276 204.077 69.9336C201.027 72.0699 199.132 74.9815 198.391 78.6339C198.357 78.7718 198.339 78.9096 198.305 79.0646C198.236 79.5298 198.202 80.0294 197.564 80.0294C196.927 80.0122 196.91 79.5126 196.841 79.0474C195.91 73.2931 191.448 68.7621 185.694 67.7284C185.556 67.7112 185.384 67.7284 185.28 67.6423C185.005 67.4183 184.746 67.1599 184.471 66.9187C184.746 66.6775 184.988 66.2985 185.298 66.2295C187.176 65.885 188.95 65.282 190.57 64.2483C194.05 62.0258 196.117 58.8558 196.841 54.8072C196.927 54.342 196.961 53.8252 197.581 53.8252C198.202 53.8252 198.236 54.3248 198.322 54.7899C199.442 60.9232 203.663 65.0752 209.865 66.2295C210.193 66.2985 210.468 66.5741 210.778 66.7464C210.778 66.8842 210.778 67.0048 210.778 67.1254Z" fill="#1C275F"/>
</g>
<defs>
<clipPath id="clip0_146_45">
<rect width="69.2923" height="69.2923" fill="white" transform="translate(184.47 53.8251)"/>
</clipPath>
</defs>
</svg>
