<svg width="309" height="271" viewBox="0 0 309 271" fill="none" xmlns="http://www.w3.org/2000/svg">
<path d="M177.231 270.396H130.544C22.5999 270.396 -4.6044e-06 239.75 0 135.224C4.60442e-06 30.6978 23.7894 0.051509 130.544 0.0515137L177.231 0.0515157C285.176 0.0515204 308.965 30.9715 308.965 135.224C308.965 239.476 285.176 270.396 177.231 270.396Z" fill="#D7FF7B"/>
<path d="M220.86 88.6228C219.875 90.4745 219.245 92.1291 218.26 93.508C216.211 96.384 214.005 99.1812 211.759 101.9C210.774 103.081 210.735 103.948 211.405 105.406C213.296 109.503 214.951 113.719 216.566 117.934C216.96 118.919 217.314 119.392 218.417 119.51C222.397 119.943 226.376 120.456 230.315 121.007C234.255 121.519 236.067 123.647 236.067 127.626C236.067 133.26 236.067 138.933 236.067 144.566C236.067 148.388 234.216 150.515 230.394 151.028C226.415 151.579 222.475 152.091 218.496 152.525C217.433 152.643 216.96 152.997 216.566 154.022C214.911 158.277 213.217 162.571 211.326 166.708C210.696 168.086 210.814 168.914 211.72 170.017C213.966 172.775 216.054 175.611 218.26 178.369C220.545 181.206 221.451 184.87 217.708 188.258C213.769 191.803 210.144 195.743 206.401 199.486C203.486 202.401 200.61 202.598 197.301 200.077C194.267 197.752 191.234 195.467 188.279 193.064C187.254 192.237 186.506 192.237 185.285 192.749C181.03 194.64 176.735 196.413 172.402 198.068C171.338 198.462 171.023 198.974 170.905 199.998C170.471 203.898 169.959 207.799 169.408 211.699C168.856 215.757 166.807 217.569 162.671 217.569C157.037 217.569 151.364 217.569 145.73 217.569C142.066 217.569 139.899 215.678 139.387 211.975C138.836 207.956 138.402 203.898 137.772 199.88C137.654 199.249 137.023 198.422 136.393 198.146C132.059 196.255 127.686 194.561 123.353 192.67C122.328 192.197 121.619 192.158 120.713 192.907C117.916 195.152 114.961 197.28 112.203 199.565C109.209 202.047 105.427 202.953 101.999 199.092C98.4537 195.113 94.514 191.528 90.7713 187.785C88.0135 185.027 87.7378 182.191 90.0622 179.039C92.3866 175.926 94.7504 172.893 97.193 169.859C98.0598 168.796 98.0992 168.008 97.5082 166.708C95.6171 162.532 93.9231 158.277 92.2684 154.022C91.8744 153.037 91.5199 152.564 90.4167 152.446C86.4377 152.013 82.4586 151.461 78.5189 150.949C74.6974 150.476 72.8457 148.349 72.8457 144.409C72.8457 138.775 72.8457 133.102 72.8457 127.468C72.8457 123.647 74.7368 121.519 78.5583 121.007C82.5374 120.495 86.4771 119.943 90.4561 119.51C91.5199 119.392 91.9532 118.998 92.3472 117.974C94.0413 113.64 95.7747 109.346 97.6658 105.091C98.1386 103.988 98.2173 103.239 97.4294 102.294C95.105 99.4176 92.9382 96.4628 90.6531 93.6262C88.1711 90.5533 87.6984 86.8893 91.2441 83.7376C95.2232 80.2312 98.8083 76.2916 102.551 72.5094C105.388 69.6335 108.224 69.3577 111.455 71.8003C114.488 74.0853 117.522 76.4097 120.477 78.813C121.58 79.7191 122.446 79.7585 123.786 79.1675C127.962 77.2765 132.256 75.6612 136.432 73.8489C137.063 73.5732 137.733 72.7852 137.851 72.1549C138.481 68.2152 138.914 64.2361 139.427 60.257C139.939 56.2385 142.027 54.3868 145.966 54.3868C151.6 54.3868 157.273 54.3868 162.907 54.3868C166.847 54.3868 168.935 56.2385 169.486 60.1782C169.999 64.0785 170.55 67.9788 170.984 71.8791C171.102 73.0216 171.496 73.4944 172.599 73.9277C176.893 75.543 181.109 77.3159 185.285 79.1675C186.467 79.6797 187.254 79.7585 188.279 78.9311C191.115 76.6067 194.07 74.4005 196.986 72.1549C200.649 69.2789 203.407 69.4365 206.677 72.7064C210.577 76.6067 214.517 80.4282 218.339 84.4467C219.363 85.5498 219.954 87.0863 220.86 88.6228ZM106.53 135.939C106.491 162.335 128.159 184.003 154.516 183.963C180.833 183.924 202.383 162.413 202.462 136.057C202.541 109.7 180.833 87.9925 154.476 88.0318C128.12 88.0712 106.53 109.621 106.53 135.939Z" fill="#1C275F"/>
<path d="M162.279 136.329C164.564 137.432 166.456 138.417 168.425 139.205C171.577 140.466 174.847 141.451 177.999 142.79C182.372 144.642 185.445 147.557 185.484 152.797C185.524 156.579 185.878 160.361 186.115 164.301C183.042 164.301 180.244 164.301 178.078 164.301C177.211 163.08 176.62 162.173 175.99 161.228C175.359 162.095 174.729 163.001 173.783 164.301C161.216 164.301 147.939 164.301 134.662 164.301C134.032 163.277 135.056 161.11 132.968 161.385C132.298 161.464 131.786 163.04 130.959 164.301C128.831 164.301 126.034 164.301 122.922 164.301C123.119 160.44 123.473 156.697 123.513 152.915C123.552 147.597 126.625 144.602 131.116 142.751C134.662 141.254 138.365 140.151 141.99 138.732C143.526 138.141 144.945 137.196 146.678 136.29C148.766 137.905 151.327 139.284 154.558 139.284C157.67 139.284 160.27 137.905 162.279 136.329Z" fill="#1C275F"/>
<path d="M167.513 115.255C167.71 121.716 165.622 127.035 161.84 131.605C157.112 137.278 151.833 137.278 147.105 131.605C142.259 125.774 140.329 118.919 141.787 111.394C143.008 104.973 148.996 100.875 155.654 101.545C162.509 102.215 167.277 107.1 167.513 113.719C167.513 114.31 167.513 114.979 167.513 115.255Z" fill="#1C275F"/>
</svg>
