<svg width="527" height="512" viewBox="0 0 527 512" fill="none" xmlns="http://www.w3.org/2000/svg">
<rect x="0.757812" width="525.838" height="512" rx="256" fill="#D7FF7B"/>
<path d="M277.374 174.08C277.374 168.348 272.728 163.702 266.996 163.702C261.264 163.702 256.618 168.348 256.618 174.08L277.374 174.08ZM259.657 345.259C263.71 349.312 270.282 349.312 274.335 345.259L340.382 279.211C344.435 275.158 344.435 268.587 340.382 264.534C336.329 260.481 329.758 260.481 325.705 264.534L266.996 323.243L208.287 264.534C204.234 260.481 197.663 260.481 193.61 264.534C189.557 268.587 189.557 275.158 193.61 279.211L259.657 345.259ZM256.618 174.08L256.618 337.92L277.374 337.92L277.374 174.08L256.618 174.08Z" fill="black"/>
</svg>
