<svg width="57" height="56" viewBox="0 0 57 56" fill="none" xmlns="http://www.w3.org/2000/svg">
<path d="M46.3766 6.47844C46.026 6.36159 46.026 5.86655 46.3766 5.7497L48.4345 5.06452C48.8869 4.9137 49.2979 4.6596 49.635 4.32235C49.9721 3.9851 50.226 3.57398 50.3766 3.12156L51.0618 1.06495C51.1787 0.714385 51.6738 0.714385 51.7907 1.06495L52.4759 3.12263C52.6268 3.57496 52.8809 3.98594 53.2182 4.32301C53.5555 4.66007 53.9666 4.91395 54.4191 5.06452L56.4759 5.7497C56.5527 5.77489 56.6196 5.82369 56.667 5.88912C56.7144 5.95455 56.7399 6.03328 56.7399 6.11407C56.7399 6.19486 56.7144 6.27359 56.667 6.33902C56.6196 6.40445 56.5527 6.45325 56.4759 6.47844L54.418 7.16363C53.9658 7.31434 53.5548 7.56828 53.2177 7.90533C52.8806 8.24239 52.6267 8.6533 52.4759 9.10551L51.7907 11.1632C51.7655 11.24 51.7167 11.3068 51.6512 11.3542C51.5858 11.4016 51.5071 11.4271 51.4263 11.4271C51.3455 11.4271 51.2667 11.4016 51.2013 11.3542C51.1358 11.3068 51.087 11.24 51.0618 11.1632L50.3766 9.10551C50.2259 8.6533 49.9719 8.24239 49.6348 7.90533C49.2977 7.56828 48.8867 7.31434 48.4345 7.16363L46.3766 6.47844ZM40.9593 10.5821C40.9133 10.5669 40.8732 10.5375 40.8449 10.4983C40.8165 10.459 40.8012 10.4117 40.8012 10.3633C40.8012 10.3148 40.8165 10.2676 40.8449 10.2283C40.8732 10.189 40.9133 10.1597 40.9593 10.1444L42.1938 9.73334C42.7441 9.54956 43.1755 9.11826 43.3593 8.56799L43.7704 7.33359C43.7857 7.28759 43.815 7.24756 43.8543 7.21918C43.8936 7.19081 43.9408 7.17554 43.9893 7.17554C44.0378 7.17554 44.085 7.19081 44.1243 7.21918C44.1636 7.24756 44.1929 7.28759 44.2082 7.33359L44.6193 8.56799C44.7097 8.83938 44.8622 9.08598 45.0644 9.28826C45.2667 9.49053 45.5134 9.64292 45.7848 9.73334L47.0193 10.1444C47.0653 10.1597 47.1054 10.189 47.1338 10.2283C47.1621 10.2676 47.1774 10.3148 47.1774 10.3633C47.1774 10.4117 47.1621 10.459 47.1338 10.4983C47.1054 10.5375 47.0653 10.5669 47.0193 10.5821L45.7848 10.9932C45.5134 11.0836 45.2667 11.236 45.0644 11.4383C44.8622 11.6406 44.7098 11.8872 44.6193 12.1586L44.2082 13.393C44.1929 13.439 44.1636 13.479 44.1243 13.5074C44.085 13.5358 44.0378 13.551 43.9893 13.551C43.9408 13.551 43.8936 13.5358 43.8543 13.5074C43.815 13.479 43.7857 13.439 43.7704 13.393L43.3593 12.1586C43.2689 11.8872 43.1165 11.6406 42.9142 11.4383C42.7119 11.236 42.4652 11.0836 42.1938 10.9932L40.9593 10.5821ZM39.8448 3.0727C39.8145 3.06221 39.7883 3.04256 39.7698 3.01648C39.7512 2.9904 39.7412 2.95918 39.7412 2.92716C39.7412 2.89515 39.7512 2.86393 39.7698 2.83785C39.7883 2.81177 39.8145 2.79211 39.8448 2.78163L40.6671 2.50755C41.0347 2.38539 41.3226 2.09751 41.4448 1.72995L41.7189 0.907727C41.7294 0.877479 41.7491 0.851249 41.7751 0.832686C41.8012 0.814123 41.8324 0.804149 41.8645 0.804149C41.8965 0.804149 41.9277 0.814123 41.9538 0.832686C41.9799 0.851249 41.9995 0.877479 42.01 0.907727L42.2841 1.72995C42.3444 1.91108 42.446 2.07568 42.581 2.21066C42.716 2.34564 42.8807 2.4473 43.0618 2.50755L43.8841 2.78163C43.9144 2.79211 43.9406 2.81177 43.9592 2.83785C43.9777 2.86393 43.9877 2.89515 43.9877 2.92716C43.9877 2.95918 43.9777 2.9904 43.9592 3.01648C43.9406 3.04256 43.9144 3.06221 43.8841 3.0727L43.0618 3.34677C42.8807 3.40703 42.716 3.50868 42.581 3.64367C42.446 3.77865 42.3444 3.94324 42.2841 4.12438L42.01 4.94554C41.9995 4.97579 41.9799 5.00202 41.9538 5.02058C41.9277 5.03914 41.8965 5.04912 41.8645 5.04912C41.8324 5.04912 41.8012 5.03914 41.7751 5.02058C41.7491 5.00202 41.7294 4.97579 41.7189 4.94554L41.4448 4.12332C41.3226 3.75576 41.0347 3.46788 40.6671 3.34571L39.8448 3.0727Z" fill="white"/>
<path d="M50.0215 49.9936L38.6537 38.2404C41.3906 34.4734 42.868 29.8882 42.863 25.1769C42.863 13.1426 33.3932 3.35181 21.7535 3.35181C10.1138 3.35181 0.644043 13.1426 0.644043 25.1769C0.644043 37.2111 10.1138 47.0019 21.7535 47.0019C26.3104 47.0071 30.7453 45.4796 34.3888 42.6499L45.7566 54.4031C46.3321 54.9349 47.0826 55.2188 47.8541 55.1965C48.6257 55.1742 49.3597 54.8473 49.9054 54.2831C50.4512 53.7188 50.7673 52.9599 50.7889 52.1622C50.8105 51.3646 50.5359 50.5886 50.0215 49.9936ZM6.67532 25.1769C6.67532 22.0936 7.55965 19.0796 9.21646 16.5159C10.8733 13.9522 13.2282 11.9541 15.9833 10.7742C18.7385 9.59429 21.7703 9.28557 24.6951 9.88708C27.62 10.4886 30.3067 11.9733 32.4154 14.1535C34.5242 16.3338 35.9602 19.1115 36.542 22.1355C37.1238 25.1596 36.8252 28.2941 35.684 31.1426C34.5427 33.9912 32.6101 36.4259 30.1305 38.1389C27.6509 39.8519 24.7357 40.7662 21.7535 40.7662C17.756 40.7612 13.9236 39.1172 11.0969 36.1947C8.27025 33.2722 6.68012 29.3099 6.67532 25.1769Z" fill="white"/>
</svg>
