<svg width="241" height="234" viewBox="0 0 241 234" fill="none" xmlns="http://www.w3.org/2000/svg">
<path d="M196.263 24.6385C194.759 24.137 194.759 22.0125 196.263 21.511L205.095 18.5705C207.037 17.9232 208.801 16.8327 210.247 15.3854C211.694 13.938 212.784 12.1737 213.43 10.2321L216.371 1.40589C216.872 -0.0985751 218.997 -0.0985752 219.499 1.40589L222.439 10.2366C223.087 12.1779 224.177 13.9416 225.625 15.3882C227.072 16.8347 228.837 17.9243 230.779 18.5705L239.606 21.511C239.935 21.6191 240.222 21.8285 240.426 22.1093C240.629 22.3901 240.739 22.728 240.739 23.0747C240.739 23.4215 240.629 23.7593 240.426 24.0401C240.222 24.3209 239.935 24.5303 239.606 24.6385L230.774 27.579C228.833 28.2258 227.07 29.3156 225.623 30.7621C224.176 32.2086 223.086 33.9721 222.439 35.9128L219.499 44.7436C219.39 45.073 219.181 45.3599 218.9 45.5633C218.619 45.7667 218.281 45.8762 217.935 45.8762C217.588 45.8762 217.25 45.7667 216.969 45.5633C216.688 45.3599 216.479 45.073 216.371 44.7436L213.43 35.9128C212.783 33.9721 211.693 32.2086 210.246 30.7621C208.8 29.3156 207.036 28.2258 205.095 27.579L196.263 24.6385ZM173.015 42.2498C172.817 42.1844 172.645 42.0585 172.524 41.8899C172.402 41.7213 172.336 41.5186 172.336 41.3107C172.336 41.1027 172.402 40.9 172.524 40.7314C172.645 40.5628 172.817 40.4369 173.015 40.3715L178.313 38.6072C180.675 37.8185 182.526 35.9675 183.314 33.606L185.079 28.3085C185.144 28.111 185.27 27.9392 185.439 27.8174C185.608 27.6957 185.81 27.6301 186.018 27.6301C186.226 27.6301 186.429 27.6957 186.598 27.8174C186.766 27.9392 186.892 28.111 186.958 28.3085L188.722 33.606C189.11 34.7707 189.764 35.829 190.632 36.6971C191.501 37.5652 192.559 38.2191 193.724 38.6072L199.022 40.3715C199.219 40.4369 199.391 40.5628 199.513 40.7314C199.635 40.9 199.7 41.1027 199.7 41.3107C199.7 41.5186 199.635 41.7213 199.513 41.8899C199.391 42.0585 199.219 42.1844 199.022 42.2498L193.724 44.0141C192.559 44.4022 191.501 45.0562 190.632 45.9242C189.764 46.7923 189.11 47.8506 188.722 49.0154L186.958 54.3129C186.892 54.5103 186.766 54.6821 186.598 54.8039C186.429 54.9257 186.226 54.9912 186.018 54.9912C185.81 54.9912 185.608 54.9257 185.439 54.8039C185.27 54.6821 185.144 54.5103 185.079 54.3129L183.314 49.0154C182.926 47.8506 182.272 46.7923 181.404 45.9242C180.536 45.0562 179.478 44.4022 178.313 44.0141L173.015 42.2498ZM168.232 10.0224C168.102 9.97737 167.989 9.89303 167.91 9.7811C167.83 9.66916 167.787 9.53519 167.787 9.39779C167.787 9.2604 167.83 9.12642 167.91 9.01449C167.989 8.90255 168.102 8.81822 168.232 8.77321L171.761 7.59699C173.338 7.07271 174.574 5.83723 175.098 4.25982L176.275 0.731168C176.32 0.601356 176.404 0.488787 176.516 0.409122C176.628 0.329457 176.762 0.286651 176.899 0.286651C177.037 0.286651 177.171 0.329457 177.283 0.409122C177.395 0.488787 177.479 0.601356 177.524 0.731167L178.7 4.25982C178.959 5.03718 179.395 5.74354 179.975 6.32284C180.554 6.90213 181.26 7.33839 182.038 7.59699L185.567 8.77321C185.697 8.81822 185.809 8.90255 185.889 9.01449C185.969 9.12642 186.011 9.2604 186.011 9.39779C186.011 9.53518 185.969 9.66916 185.889 9.7811C185.809 9.89303 185.697 9.97737 185.567 10.0224L182.038 11.1986C181.26 11.4572 180.554 11.8935 179.975 12.4727C179.395 13.052 178.959 13.7584 178.7 14.5358L177.524 18.0599C177.479 18.1897 177.395 18.3022 177.283 18.3819C177.171 18.4616 177.037 18.5044 176.899 18.5044C176.762 18.5044 176.628 18.4616 176.516 18.3819C176.404 18.3022 176.32 18.1897 176.275 18.0599L175.098 14.5312C174.574 12.9538 173.338 11.7183 171.761 11.194L168.232 10.0224Z" fill="white"/>
<path d="M211.909 211.388L163.122 160.948C174.868 144.782 181.209 125.104 181.187 104.885C181.187 53.2385 140.547 11.2202 90.5936 11.2202C40.6406 11.2202 0 53.2385 0 104.885C0 156.531 40.6406 198.549 90.5936 198.549C110.15 198.571 129.183 192.016 144.819 179.872L193.605 230.312C196.075 232.595 199.296 233.813 202.607 233.717C205.918 233.621 209.068 232.219 211.41 229.797C213.753 227.375 215.109 224.119 215.202 220.695C215.295 217.272 214.116 213.942 211.909 211.388ZM25.8839 104.885C25.8839 91.6525 29.679 78.7175 36.7894 67.7153C43.8998 56.7131 54.0061 48.138 65.8302 43.0742C77.6544 38.0105 90.6654 36.6856 103.218 39.267C115.77 41.8485 127.3 48.2204 136.35 57.577C145.4 66.9336 151.563 78.8546 154.06 91.8326C156.557 104.811 155.275 118.263 150.378 130.488C145.48 142.712 137.186 153.161 126.544 160.513C115.903 167.864 103.392 171.788 90.5936 171.788C73.4378 171.767 56.9906 164.711 44.8596 152.169C32.7287 139.627 25.9045 122.622 25.8839 104.885Z" fill="white"/>
</svg>
