<svg width="242" height="240" viewBox="0 0 242 240" fill="none" xmlns="http://www.w3.org/2000/svg">
<rect y="0.923706" width="241.604" height="238.152" rx="34.5148" fill="#F1FFD0"/>
<path d="M113.355 120.006H84.5013M177.107 116.731C177.721 117.03 178.238 117.496 178.6 118.074C178.962 118.653 179.153 119.322 179.153 120.005C179.152 120.688 178.96 121.357 178.597 121.935C178.234 122.513 177.716 122.978 177.102 123.276L67.1988 176.203C66.5416 176.519 65.8046 176.631 65.0834 176.523C64.3621 176.415 63.6899 176.093 63.1539 175.599C62.6179 175.104 62.2429 174.46 62.0775 173.75C61.9121 173.039 61.964 172.296 62.2264 171.615L81.5727 121.309C81.8952 120.47 81.8952 119.542 81.5727 118.703L62.2312 68.3918C61.9711 67.7122 61.9208 66.9701 62.0868 66.2616C62.2527 65.5531 62.6273 64.9106 63.1622 64.4172C63.697 63.9237 64.3676 63.602 65.0871 63.4936C65.8067 63.3852 66.5423 63.495 67.1988 63.8089L177.107 116.731Z" stroke="#1C275F" stroke-width="11.6312" stroke-linecap="round" stroke-linejoin="round"/>
</svg>
