<svg width="196" height="225" viewBox="0 0 196 225" fill="none" xmlns="http://www.w3.org/2000/svg">
<path d="M136.893 166.245C136.523 172.414 128.527 174.556 125.122 169.399L105.148 139.125C100.754 132.47 94.8709 126.931 87.9647 122.946C81.0584 118.96 73.3189 116.639 65.3597 116.164L29.1749 113.997C23.0068 113.626 20.8641 105.63 26.0206 102.225L56.291 82.2506C62.9443 77.8566 68.4827 71.9731 72.4673 65.0664C76.4519 58.1597 78.773 50.4196 79.2468 42.4596L81.4121 6.27153C81.4868 4.92246 81.9855 3.63142 82.8373 2.58267C83.689 1.53392 84.8502 0.781034 86.1552 0.431369C87.4601 0.0817048 88.8422 0.153122 90.1042 0.635497C91.3662 1.11787 92.4437 1.98656 93.1829 3.11756L113.157 33.3919C117.548 40.0448 123.429 45.5836 130.332 49.5696C137.235 53.5556 144.971 55.8794 152.928 56.3568L189.13 58.5197C190.479 58.5945 191.77 59.0934 192.818 59.9452C193.867 60.7971 194.62 61.9585 194.97 63.2636C195.319 64.5687 195.248 65.9509 194.766 67.213C194.284 68.4751 193.415 69.5526 192.284 70.2918L162.014 90.2659C155.362 94.6577 149.824 100.538 145.839 107.442C141.853 114.345 139.53 122.082 139.053 130.04L136.893 166.245ZM46.0368 222.373C45.9983 222.907 45.7944 223.415 45.4535 223.828C45.1125 224.241 44.6515 224.537 44.1344 224.676C43.6173 224.814 43.0698 224.788 42.5682 224.601C42.0666 224.414 41.6356 224.076 41.3353 223.632L33.3494 211.536C29.7852 206.128 23.8892 202.723 17.4236 202.34L2.95651 201.472C2.42255 201.433 1.91384 201.229 1.50111 200.888C1.08837 200.547 0.792141 200.086 0.65357 199.569C0.514999 199.052 0.540975 198.504 0.727912 198.003C0.914848 197.501 1.25344 197.07 1.69662 196.77L13.791 188.784C16.456 187.026 18.6745 184.672 20.2705 181.907C21.8665 179.142 22.796 176.044 22.9852 172.857L23.8532 158.388C23.8917 157.854 24.0955 157.346 24.4365 156.933C24.7774 156.52 25.2385 156.224 25.7556 156.085C26.2727 155.947 26.8201 155.973 27.3218 156.16C27.8234 156.347 28.2543 156.685 28.5546 157.129L36.5405 169.225C38.2978 171.89 40.6522 174.109 43.4168 175.705C46.1813 177.301 49.2799 178.231 52.4664 178.421L66.9163 179.294C67.4503 179.332 67.959 179.536 68.3717 179.877C68.7844 180.218 69.0807 180.68 69.2193 181.197C69.3578 181.714 69.3318 182.261 69.1449 182.763C68.958 183.265 68.6194 183.696 68.1762 183.996L56.0818 191.982C50.6737 195.546 47.2698 201.443 46.8876 207.909L46.0368 222.373Z" fill="#BCB1DF"/>
</svg>
