<svg width="1119" height="1277" viewBox="0 0 1119 1277" fill="none" xmlns="http://www.w3.org/2000/svg">
<path opacity="0.5" d="M0.257856 -0.000144137C36.483 31.3727 76.2647 57.6261 116.837 82.8294C202.065 135.599 278.203 199.001 341.96 276.58C345.78 281.305 349.336 284.062 356.186 282.749C422.84 269.622 490.022 265.422 557.73 270.541C667.854 279.074 771.655 308.084 866.368 365.841C995.461 444.602 1078.32 558.279 1118.76 703.198C1119.02 703.985 1118.76 704.904 1118.76 705.823C1110.85 710.68 981.366 745.728 963.714 747.697C962.134 742.709 960.421 737.458 958.84 732.208C937.764 664.343 902.066 605.535 850.429 556.572C794.839 503.934 728.976 469.674 655.471 449.196C591.452 431.344 525.983 427.012 459.988 430.818C457.353 430.95 454.719 431.475 452.216 431.869C449.186 432.262 446.156 432.656 441.809 433.313C443.258 437.644 444.18 441.189 445.629 444.602C478.298 519.555 497.267 597.659 500.955 679.307C508.068 838.928 467.233 984.766 374.364 1115.38C340.379 1163.29 299.28 1204.24 248.828 1235.35C209.31 1259.64 166.762 1275 120.13 1276.83C79.6896 1278.41 41.8838 1268.7 6.97599 1248.09C4.73662 1246.77 2.49712 1245.46 0.257747 1244.15C0.25777 985.159 0.257792 726.169 0.257815 467.311C1.04818 466.917 1.97037 466.786 2.49728 466.129C46.3626 420.58 97.0778 384.35 152.667 354.552C161.756 349.695 170.977 344.707 181.252 339.194C177.432 334.993 174.929 331.581 171.767 328.824C145.949 306.508 121.184 282.749 93.9164 262.403C63.8825 239.825 31.4773 220.397 0.126143 199.526C0.257876 132.973 0.25785 66.421 0.257856 -0.000144137ZM279.257 472.693C218.531 497.765 164.786 530.844 119.34 576.525C48.9971 647.409 12.245 732.864 7.50281 832.233C5.52689 873.057 8.55672 913.488 16.3287 953.524C23.5737 991.329 32.9263 1028.61 50.8412 1063.13C58.3497 1077.57 67.1755 1091.09 79.5579 1101.99C92.9942 1113.93 108.275 1117.87 125.926 1113.8C146.476 1109.08 164.127 1098.71 180.725 1086.24C206.807 1066.55 228.542 1042.52 247.247 1015.88C304.549 933.703 333.924 841.816 339.72 742.447C343.804 671.825 333.529 603.041 308.764 536.488C300.465 514.961 291.376 493.827 279.257 472.693Z" fill="url(#paint0_linear_409_4603)"/>
<defs>
<linearGradient id="paint0_linear_409_4603" x1="1040.49" y1="862.486" x2="-222.161" y2="1135.92" gradientUnits="userSpaceOnUse">
<stop stop-color="#E8E0FF"/>
<stop offset="1" stop-color="white"/>
</linearGradient>
</defs>
</svg>
