<svg width="2884" height="1505" viewBox="0 0 2884 1505" fill="none" xmlns="http://www.w3.org/2000/svg">
<path d="M937.08 321.386C936.909 324.802 936.568 327.535 936.739 330.267C941.171 414.295 918.839 492.345 883.381 567.151C831.728 676.455 758.937 770.218 671.997 853.562C614.719 908.556 552.326 956.548 482.604 994.634C431.462 1022.47 377.934 1044.16 320.315 1053.56C269.685 1061.92 219.737 1060.39 171.153 1041.77C114.727 1020.08 75.1779 963.721 82.8491 892.161C88.1337 842.632 108.931 799.593 134.502 758.263C171.494 698.487 217.01 645.542 265.935 595.501C397.539 460.92 546.36 348.883 707.966 253.413C712.399 250.851 716.66 248.118 721.093 245.386C696.374 218.572 590.341 180.144 520.619 170.922C447.316 161.187 375.718 166.14 305.314 188.513C235.591 210.716 173.54 245.898 120.523 298.501C80.292 261.098 40.9131 224.379 0 186.293C8.01214 177.924 15.0015 169.897 22.6727 162.895C106.544 87.748 204.395 39.7565 313.837 14.9922C375.207 1.15835 437.599 -2.76977 499.992 1.84151C581.477 7.98989 659.553 28.8261 734.56 61.959C770.018 77.6715 804.283 95.2627 833.774 120.881C849.117 134.202 863.266 149.061 879.119 164.261C891.564 158.967 905.713 153.16 919.691 147.182C1002.03 112.512 1086.58 85.1862 1174.89 70.6692C1256.03 57.1769 1337.52 53.9319 1418.49 72.8894C1468.1 84.503 1512.59 105.852 1548.73 142.742C1588.11 182.877 1608.74 231.722 1614.36 287.229C1616.07 303.454 1616.75 319.849 1617.94 337.44C1639.59 333 1660.56 328.73 1681.53 324.461C1778.87 304.991 1877.23 297.476 1976.27 305.503C2038.32 310.627 2098.5 324.119 2152.88 356.739C2166.52 364.937 2178.96 374.843 2191.75 384.236C2196.35 387.481 2200.44 391.239 2205.04 394.996C2289.6 344.955 2665.06 157.088 2758.82 120.881C2777.91 172.971 3028.8 216.522 2758.82 315.067C2672.39 350.933 2357.79 496.273 2278.69 544.777C2279.71 558.44 2281.24 571.42 2281.41 584.4C2281.93 639.565 2270.85 692.68 2252.95 744.6C2224.14 828.627 2181.69 905.482 2131.74 978.409C2028.44 1128.7 1904.33 1258.84 1756.53 1365.93C1691.41 1413.06 1622.37 1453.37 1546.34 1480.18C1501.68 1495.9 1455.65 1505.8 1408.09 1504.95C1369.74 1504.27 1332.74 1496.75 1297.8 1479.84C1232.51 1448.25 1198.92 1382.49 1210.86 1310.93C1218.19 1267.38 1236.43 1228.78 1259.27 1191.72C1294.39 1134.85 1337.52 1084.3 1383.37 1036.14C1491.62 922.049 1611.29 820.942 1734.71 724.105C1834.44 645.884 1936.89 571.591 2041.9 500.543C2044.97 498.494 2047.87 495.932 2053.66 491.321C2039.52 486.709 2028.26 481.415 2016.5 479.536C1987.35 475.096 1958.2 469.972 1928.88 468.947C1811.43 464.678 1697.21 484.831 1585.21 519.33C1577.88 521.55 1572.25 524.112 1568.85 532.139C1525.72 637.515 1466.05 733.328 1398.89 824.699C1340.24 904.457 1275.81 979.433 1205.23 1048.94C1134.31 1118.97 1058.97 1183.7 973.049 1234.93C927.022 1262.43 878.949 1285.49 826.103 1296.07C780.246 1305.3 734.73 1304.96 690.919 1285.49C620.344 1254.23 586.421 1187.8 596.99 1111.79C604.491 1056.97 629.038 1009.15 658.7 963.721C698.931 901.895 747.686 847.243 800.873 796.519C975.776 629.488 1176.59 502.08 1399.91 409.855C1410.99 405.243 1422.24 401.486 1432.98 396.362C1437.07 394.484 1441.84 390.214 1442.87 386.115C1449.86 356.056 1454.63 325.998 1448.49 295.085C1443.55 270.15 1429.4 253.242 1406.56 243.165C1378.94 231.039 1349.79 227.794 1320.13 226.599C1232.68 223.012 1148.63 241.457 1066.47 269.637C1027.43 283.13 989.414 299.696 950.888 315.067C946.114 316.433 941.853 318.995 937.08 321.386ZM2105.66 660.23C2102.59 660.913 2101.4 660.913 2100.54 661.597C2094.75 665.354 2089.12 668.94 2083.5 672.869C1941.67 771.584 1803.92 875.594 1673.51 988.998C1599.7 1053.04 1528.27 1119.82 1464.18 1193.94C1434.17 1228.78 1405.19 1264.65 1385.08 1306.66C1381.16 1314.69 1378.43 1323.06 1374.34 1333.65C1385.93 1335.7 1395.14 1338.09 1404.34 1338.77C1430.76 1340.82 1456.33 1335.19 1481.22 1326.99C1541.23 1307.52 1595.27 1276.6 1646.58 1240.4C1786.88 1141.34 1903.82 1019.23 1999.97 877.131C2039 819.576 2072.59 759.117 2095.43 693.192C2099.18 682.774 2102.08 671.844 2105.66 660.23ZM1334.11 625.048C1333.6 624.365 1332.91 623.682 1332.4 622.998C1328.48 624.706 1324.56 626.243 1320.64 628.293C1223.64 678.846 1131.76 736.914 1045.33 803.863C967.423 864.151 894.291 929.734 832.069 1006.59C809.908 1034.09 789.622 1062.78 774.28 1094.72C768.484 1106.84 762.858 1119.14 761.494 1135.7C768.654 1135.7 774.791 1136.56 780.417 1135.53C790.474 1133.83 800.532 1131.78 810.249 1128.87C843.491 1118.46 873.835 1101.72 903.156 1083.1C971.685 1039.72 1032.37 986.607 1089.82 929.734C1170.28 849.976 1242.22 762.874 1305.81 668.94C1315.53 654.594 1324.73 639.736 1334.11 625.048ZM763.369 413.783C753.141 419.931 746.322 423.859 739.674 428.129C670.974 471.509 604.661 518.305 541.587 569.371C461.977 633.758 386.799 702.586 321.509 782.002C297.643 811.036 275.652 841.266 259.116 875.082C256.729 879.864 255.195 884.988 252.127 892.844C268.151 891.819 281.277 892.161 294.063 890.111C336.51 883.109 375.548 866.201 412.199 844.169C545.337 764.411 647.79 655.107 722.286 519.159C739.674 487.392 753.312 453.747 763.369 413.783Z" fill="url(#paint0_linear_409_4601)"/>
<defs>
<linearGradient id="paint0_linear_409_4601" x1="834.721" y1="1930.4" x2="2091.3" y2="284.943" gradientUnits="userSpaceOnUse">
<stop offset="0.165" stop-color="white"/>
<stop offset="1" stop-color="#D7FF7B"/>
</linearGradient>
</defs>
</svg>
